<?xml  version="1.0" encoding="UTF-8"?>
<!DOCTYPE svg PUBLIC "-//W3C//DTD SVG 1.0//EN" "http://www.w3.org/TR/2001/REC-SVG-20010904/DTD/svg10.dtd" >
<svg xmlns="http://www.w3.org/2000/svg" >
<metadata>
<version>1.0</version>
<id><![CDATA[Calluna W01 Black]]></id>
<vendor>Monotype Imaging Inc.</vendor>
<credits>
<name>Fonts.com WebFonts</name>
<URL>http://webfonts.fonts.com</URL>
<role>Home of the Web fonts</role>
</credits>
<license>
<URL>http://webfonts.fonts.com/Legal</URL>
</license>
<copyright><![CDATA[© 2009 exljbris Font Foundry. All rights reserved.]]></copyright>
<trademark><![CDATA[Calluna is a trademark of exljbris Font Foundry.]]></trademark>
<licensee>
<name></name>
</licensee>
</metadata>
<defs >
<font horiz-adv-x="532" id="9ab45b0c-0131-45d8-ac29-7b9ea3877e1d">
<font-face font-family="" panose-1="0 0 10 0 0 0 0 0 0 0" ascent="753" descent="-247" units-per-em="1000" alphabetic="0">
</font-face>
<missing-glyph horiz-adv-x="0" />

<glyph unicode="&#xA;" />
<glyph unicode="&#xD;" horiz-adv-x="0" />
<glyph unicode=" " horiz-adv-x="210" />
<glyph unicode="!" horiz-adv-x="308" d="M59 75Q59 112 84 138T146 164Q164 164 180 157T208 138T227 110T234 75Q234 57 227 42T208 14T180 -5T146 -12Q128 -12 112 -5T85 14T66 41T59 75ZM49 661Q82 666 118 673T184 688Q219 696 253 705L260 694Q255 681 250 663Q245 647 241 625T231 570L169 222H125L49 661Z"  />
<glyph unicode="&quot;" horiz-adv-x="403" d="M243 667H380V630L321 383H243V667ZM48 667H184V630L125 383H48V667Z"  />
<glyph unicode="#" horiz-adv-x="684" d="M249 186H394L420 313H275L249 186ZM380 117H235L193 -89H120L162 117H30L41 186H176L202 313H69L80 382H216L257 578H329L289 382H434L475 578H547L507 382H654L643 313H493L467 186H614L603 117H453L411 -89H338L380 117Z"  />
<glyph unicode="$" horiz-adv-x="451" d="M154 451Q154 428 169 413T207 384L213 513Q184 507 169 490T154 451ZM307 110Q307 133 290 150T247 182L241 47Q268 52 287 67T307 110ZM23 79Q23 83 24 90T28 110T37 143T54 195H91Q91 155 100 128T124 84T157 58T193 46L200 205Q171 219 141 234T87 271T47 322T31 392Q31 426 42 455T76 508T133 546T215 566L218 646H266L262 568Q294 567 334 563T417 551L387 397H350Q350 436 341 459T319 495T289 511T260 516L254 362Q284 349 315 334T371 298T413 246T429 171Q429 131 415 100T376 46T316 10T239 -6L236 -89H188L191 -6Q162 -5 132 0T78 16T39 42T23 79Z"  />
<glyph unicode="%" horiz-adv-x="782" d="M508 153Q508 114 529 90T581 66Q613 66 634 90T656 153Q656 190 635 213T581 237Q551 237 530 214T508 153ZM410 152Q410 185 423 214T460 266T515 300T582 313Q617 313 648 301T703 266T740 215T754 152Q754 118 740 89T703 37T648 2T581 -11Q546 -11 515 2T460 37T424 88T410 152ZM128 513Q128 474 149 450T201 426Q233 426 254 450T276 513Q276 550 255 573T201 597Q171 597 150 574T128 513ZM600 682L647 651L195 0H127L600 682ZM30 512Q30 545 43 574T80 626T135 660T202 673Q237 673 268 661T323 626T360 575T374 512Q374 478 360 449T323 397T268 362T201 349Q166 349 135 362T80 397T44 448T30 512Z"  />
<glyph unicode="&amp;" horiz-adv-x="692" d="M259 555Q259 522 272 484T308 403Q340 430 352 464T364 552Q364 583 349 606T307 630Q293 630 284 623T269 605T261 580T259 555ZM319 57Q354 57 387 71Q329 116 279 169T190 282Q176 267 170 247T163 197Q163 157 176 130T210 87T260 64T319 57ZM20 156Q20 198 52 242T162 332Q136 380 123 428T109 522Q109 550 121 578T158 628T219 665T306 679Q342 679 375 673T435 651T476 611T492 548Q492 522 477 496T437 444T385 398T333 360Q366 307 407 255T492 155Q512 181 527 210T553 266T569 317T575 358Q575 392 560 406T510 425V458H669L674 443Q663 427 655 399T639 345Q622 287 595 228T527 118Q581 61 626 23T692 -26L678 -55Q618 -49 557 -26T437 36Q401 13 359 1T265 -12Q221 -12 178 -4T99 25T42 77T20 156Z"  />
<glyph unicode="&apos;" horiz-adv-x="207" d="M48 667H185V630L123 383H48V667Z"  />
<glyph unicode="(" horiz-adv-x="285" d="M23 270Q23 319 31 364T52 448T81 522T115 585Q155 651 208 702L251 682Q220 630 195 566Q174 511 157 436T139 270Q139 171 160 91T207 -47Q237 -115 276 -168L233 -192Q174 -137 128 -66Q108 -36 89 0T56 79T32 169T23 270Z"  />
<glyph unicode=")" horiz-adv-x="282" d="M12 -168Q48 -115 76 -47Q100 11 120 91T141 270Q141 360 125 434T89 562Q66 624 37 674L80 702Q129 651 168 585Q184 557 200 523T229 449T249 364T257 270Q257 217 248 170T225 80T193 1T156 -66Q111 -137 55 -192L12 -168Z"  />
<glyph unicode="*" horiz-adv-x="510" d="M288 487Q289 492 291 496Q295 505 304 517L379 622Q385 629 393 627T411 617T430 598T444 578Q450 569 455 556T462 530T461 509T448 499L322 486Q307 484 298 486Q293 486 288 487ZM131 314Q125 306 116 308T98 319T79 338T65 358Q60 367 55 380T48 406T48 427T61 437L188 450Q196 451 202 451T213 451Q218 450 222 449Q221 445 218 440Q216 435 213 430T206 419L131 314ZM304 419Q294 430 291 440Q288 445 288 449Q292 450 297 451Q302 452 308 452T322 450L451 437Q460 436 462 427T463 406T455 381T444 358Q439 349 430 338T412 320T394 310T379 315L304 419ZM59 499Q50 500 48 509T47 530T55 555T65 578Q70 587 79 598T97 616T116 626T131 621L206 517Q211 510 214 505T219 496Q221 492 222 487Q217 486 212 486Q202 484 188 486L59 499ZM255 248Q244 248 230 250T205 256T186 268T183 284L237 401Q243 414 249 422Q252 426 255 430Q257 427 261 423Q263 419 266 414T273 401L327 284Q330 275 324 268T305 257T279 250T255 248ZM183 652Q179 661 186 667T204 678T230 685T255 688Q265 688 279 686T305 679T323 668T327 652L273 535Q270 527 267 522T261 513Q257 509 255 506Q252 510 249 514Q243 521 237 535L183 652Z"  />
<glyph unicode="+" horiz-adv-x="520" d="M28 299H219V504H304V299H492V218H304V0H219V218H28V299Z"  />
<glyph unicode="&#x2c;" horiz-adv-x="241" d="M36 115L148 173Q181 129 194 93T207 28Q207 -4 196 -34T165 -94T119 -150T63 -203L27 -161Q68 -123 87 -98T107 -42Q107 -19 90 4T36 54V115Z"  />
<glyph unicode="-" horiz-adv-x="380" d="M48 302H332V214H48V302Z"  />
<glyph unicode="." horiz-adv-x="248" d="M37 75Q37 112 62 138T124 164Q161 164 186 138T212 75Q212 57 205 42T186 14T158 -5T124 -12Q106 -12 90 -5T63 14T44 41T37 75Z"  />
<glyph unicode="/" horiz-adv-x="349" d="M293 667H381L49 -196H-40L293 667Z"  />
<glyph unicode="0" horiz-adv-x="586" d="M45 234Q45 280 61 326T109 408T188 467T299 490Q359 490 404 470T480 416T526 339T541 250Q541 203 525 157T477 73T398 12T287 -12Q227 -12 182 9T106 64T60 143T45 234ZM292 62Q322 62 341 76T370 115T384 170T388 234Q388 268 385 301T371 359T342 400T293 416Q263 416 244 401T215 360T202 301T198 234Q198 201 201 170T215 115T244 77T292 62Z"  />
<glyph unicode="1" horiz-adv-x="417" d="M47 37Q95 37 113 51T131 101V377Q131 411 113 423T42 436V478H374L370 438L281 427V101Q281 90 280 80T278 63Q277 54 276 48L379 38L375 0L47 -5V37Z"  />
<glyph unicode="2" horiz-adv-x="503" d="M35 42Q63 66 100 95T170 158T226 232T249 315Q249 358 226 375T171 393Q145 393 117 386T66 366L42 398Q67 424 98 444Q124 461 160 475T240 490Q278 490 308 479T359 448T391 406T403 357Q403 328 389 302T349 247T284 186T195 114H316Q346 114 363 121T391 140T406 167T417 199H470L437 0H46L35 42Z"  />
<glyph unicode="3" horiz-adv-x="416" d="M8 -155Q41 -149 77 -139T144 -110T195 -62T216 13Q216 50 205 74T176 112T136 131T92 137Q85 137 80 137T71 136Q67 135 63 135V195Q100 198 125 214T166 253T189 300T196 343Q196 369 181 386T133 403Q113 403 95 397T63 384Q47 376 33 366L15 393Q36 420 64 441Q88 459 122 474T200 490Q232 490 260 480T310 453T344 413T357 361Q357 325 339 298T295 252T238 218T183 194Q273 186 327 142T381 23Q381 -13 365 -43T321 -99T258 -143T186 -176T112 -195T46 -202H23Q18 -202 14 -201L8 -155Z"  />
<glyph unicode="4" horiz-adv-x="538" d="M253 120V289Q253 304 254 322T257 355L116 120H253ZM12 64L262 460L407 490L414 489Q412 477 410 461Q408 447 407 427T406 380V120H516L501 26H406V-133Q406 -148 405 -158T403 -175Q402 -183 401 -188L252 -202L248 -199Q249 -192 250 -182Q251 -174 252 -163T253 -138V26H20L12 64Z"  />
<glyph unicode="5" horiz-adv-x="428" d="M36 -155Q81 -150 118 -137T183 -102T226 -54T242 7Q242 29 233 47T210 79T177 103T139 121Q94 139 37 146L56 478H301Q331 478 351 481Q362 482 371 484L357 367H108L104 287Q185 271 249 240Q276 226 302 208T348 167T381 115T394 49Q394 -9 368 -55T296 -134T193 -184T71 -202H50Q46 -202 42 -201L36 -155Z"  />
<glyph unicode="6" horiz-adv-x="538" d="M281 -12Q221 -12 176 11T101 73T57 164T42 273Q42 347 66 420T140 550T264 643T440 679L446 636Q381 622 335 589T261 507T219 400T206 274Q206 230 212 188T229 112T258 59T299 38Q331 38 346 75T362 171Q362 186 359 217T347 282T322 341T278 371L269 417Q272 418 279 419T295 422T311 424T324 425Q359 425 393 412T454 373T497 312T514 229Q514 185 499 142T455 64T383 9T281 -12Z"  />
<glyph unicode="7" horiz-adv-x="499" d="M155 -71Q172 -50 218 21T323 222L375 337Q361 335 343 334T309 333H172Q147 333 132 330T106 320T89 299T73 264H20L58 478H426Q439 478 450 478T470 480Q480 481 487 482L491 452Q477 425 465 401Q454 381 445 361T431 331L229 -117Q221 -135 214 -150T200 -177T182 -195T156 -202Q138 -202 123 -189T108 -150Q108 -128 121 -113T155 -71Z"  />
<glyph unicode="8" horiz-adv-x="534" d="M209 571Q209 531 238 494T308 419Q325 441 330 473T336 533Q336 582 317 606T266 630Q238 630 224 614T209 571ZM170 173Q170 111 195 74T260 37Q276 37 291 43T318 60T337 87T344 123Q344 146 335 168T309 211T271 252T226 294Q216 285 206 276T188 253T175 220T170 173ZM41 142Q41 179 56 208T94 261T142 301T187 331Q163 352 141 375T101 422T74 473T64 530Q64 597 119 638T270 679Q364 679 415 642T467 548Q467 533 463 515T446 476T411 431T353 381Q379 357 404 333T449 281T481 225T493 163Q493 123 475 91T426 36T353 1T262 -12Q222 -12 183 -3T112 25T61 73T41 142Z"  />
<glyph unicode="9" horiz-adv-x="551" d="M110 -159Q175 -145 221 -112T295 -31T337 76T350 199Q350 245 344 288T326 365T297 419T258 440Q228 440 214 403T200 312Q200 295 201 263T210 198T234 140T278 112L286 65Q268 60 256 59T230 58Q197 58 165 71T106 108T63 169T47 251Q47 294 61 336T104 413T176 468T277 490Q336 490 380 467T454 404T499 313T514 204Q514 130 490 57T416 -73T291 -166T116 -202L110 -159Z"  />
<glyph unicode=":" horiz-adv-x="288" d="M57 75Q57 93 64 109T83 138T110 157T144 164Q181 164 206 138T232 75Q232 57 225 42T206 14T178 -5T144 -12Q126 -12 111 -5T83 14T64 41T57 75ZM57 388Q57 406 64 422T83 451T110 470T144 477Q181 477 206 451T232 388Q232 370 225 355T206 327T178 308T144 301Q126 301 111 308T83 327T64 354T57 388Z"  />
<glyph unicode=";" horiz-adv-x="261" d="M36 388Q36 425 61 451T123 477Q160 477 185 451T211 388Q211 370 204 355T185 327T157 308T123 301Q105 301 89 308T62 327T43 354T36 388ZM51 115L163 173Q196 129 209 93T222 28Q222 -4 211 -34T180 -94T134 -150T78 -203L42 -161Q83 -123 102 -98T122 -42Q122 -19 105 4T51 54V115Z"  />
<glyph unicode="&lt;" horiz-adv-x="520" d="M21 280L447 509L470 427L136 257L470 77L447 -4L21 234V280Z"  />
<glyph unicode="=" horiz-adv-x="520" d="M44 207H476V128H44V207ZM44 373H476V294H44V373Z"  />
<glyph unicode="&gt;" horiz-adv-x="520" d="M384 257L50 427L73 509L499 280V234L73 -4L50 77L384 257Z"  />
<glyph unicode="?" horiz-adv-x="385" d="M72 75Q72 93 79 109T98 138T125 157T159 164Q196 164 222 138T248 75Q248 57 241 42T222 14T194 -5T159 -12Q141 -12 126 -5T98 14T79 41T72 75ZM139 224Q136 238 135 254T134 282Q134 318 145 343T168 387T192 421T203 452Q203 461 196 471T176 490T149 507T117 524Q79 542 31 557L63 714Q152 683 222 648Q252 633 280 616T331 579T368 540T382 498Q382 475 367 455T330 415T281 374T233 330T195 281T180 224H139Z"  />
<glyph unicode="@" horiz-adv-x="863" d="M364 195Q364 134 375 112T407 89Q414 89 422 91T438 97Q446 101 454 105V409Q428 400 409 374Q392 352 378 310T364 195ZM16 187Q16 271 51 346T148 479T290 569T463 603Q542 603 609 578T727 509T805 404T834 272Q834 231 824 186T789 101T726 35T630 2L452 -13L450 -9Q452 0 454 9Q456 17 457 26T458 45V74Q443 49 425 31Q409 14 387 1T335 -12Q310 -12 286 -3T242 28T212 84T200 167Q200 232 222 286T283 378T375 438T493 460Q514 460 534 458T570 454T599 450T615 447L617 445Q615 432 613 419Q611 408 610 394T609 365V97Q609 74 617 62T640 50Q652 50 665 59T690 89T710 145T718 232Q718 303 700 361T647 461T560 526T439 549Q358 549 301 520T207 442T153 334T136 214Q136 161 149 105T191 1T269 -82T388 -126L378 -174Q300 -171 234 -142T119 -65T44 48T16 187Z"  />
<glyph unicode="A" horiz-adv-x="616" d="M294 397Q291 405 287 416T280 439T273 462T266 482L177 251H344L294 397ZM-20 37Q6 40 20 54T42 85L272 661L344 676L562 107Q566 95 571 83T582 61T598 44T623 35L619 0H584Q564 0 527 -1T454 -3Q412 -4 364 -5V37Q384 38 397 46T403 78L365 189H166L148 177L99 48L185 38L178 0H-20V37Z"  />
<glyph unicode="B" horiz-adv-x="635" d="M335 373Q339 373 349 379T370 398T389 435T398 494Q398 518 394 539T378 575T348 598T299 607H281L267 594V373H335ZM312 60Q335 60 356 68T395 92T422 127T433 172Q433 182 432 205T419 253T377 295T290 313H281L267 300V115Q267 104 266 94T264 76Q263 67 262 60H312ZM47 37Q106 45 106 99V561Q106 579 104 590T96 610T75 623T37 634V667H303Q375 667 425 656T508 624T554 578T569 521Q569 481 548 450T501 398T452 365T422 352Q448 346 480 335T541 305T588 257T607 187Q607 148 588 114T531 55T441 15T322 0H229Q200 0 169 0T110 -2Q78 -3 47 -3V37Z"  />
<glyph unicode="C" horiz-adv-x="689" d="M27 323Q27 378 48 441T116 556T235 644T408 679Q443 679 478 675T546 666T606 655T655 648L625 488H583Q581 525 566 550T527 592T470 615T400 622Q339 622 298 600T233 542T198 461T187 369Q187 298 210 246T272 158T360 106T462 89Q503 89 537 99T596 123Q625 138 648 157L667 128Q639 89 599 58Q564 32 511 10T383 -12Q291 -12 224 19T113 100T48 208T27 323Z"  />
<glyph unicode="D" horiz-adv-x="757" d="M318 60Q370 60 413 75T488 124T536 208T553 329Q553 390 540 441T500 529T436 586T347 607H281L267 594V116Q267 105 266 95T264 77Q263 68 262 60H318ZM47 37Q106 45 106 99V561Q106 579 104 590T96 610T75 623T37 634V667H343Q422 667 492 648T615 591T699 495T730 361Q730 274 696 207T604 94T472 24T318 0H229Q200 0 169 0T110 -2Q78 -3 47 -3V37Z"  />
<glyph unicode="E" horiz-adv-x="604" d="M47 37Q106 45 106 99V561Q106 579 104 590T96 610T75 623T37 634V667H481Q496 667 510 667T536 669Q549 670 561 671L530 488H488Q490 527 485 550T466 586T432 603T380 607H281L267 594V371H424L432 429L477 435V235H422V311H281L267 298V116Q267 105 266 95T264 77Q263 68 262 60H391Q423 60 443 63T478 77T506 112T539 174H581L544 0H229Q200 0 169 0T110 -2Q78 -3 47 -3V37Z"  />
<glyph unicode="F" horiz-adv-x="566" d="M48 37Q77 41 92 58T107 102V561Q107 579 105 590T97 610T76 623T38 634V667H488Q503 667 517 667T543 669Q556 670 568 671L537 488H495Q497 527 492 550T473 586T439 603T387 607H282L268 594V367H429L437 426L482 432V234H427V308H282L268 294V102Q268 91 267 82T265 64Q264 55 263 48L373 39L369 3L48 -3V37Z"  />
<glyph unicode="G" horiz-adv-x="718" d="M27 318Q27 386 50 451T123 566T248 648T428 679Q494 679 556 670T668 655L638 488H596Q596 529 580 555T539 596T484 616T427 622Q368 622 326 599T255 538T213 449T199 343Q199 281 215 228T263 136T338 75T438 52Q452 52 471 53T510 60V180Q510 198 508 210T497 230T470 243T418 253V286H689L694 264Q684 257 677 245Q670 234 665 216T660 169V14Q634 13 605 9T544 1T478 -8T409 -12Q332 -12 263 9T142 73T58 176T27 318Z"  />
<glyph unicode="H" horiz-adv-x="823" d="M45 37Q74 41 89 58T104 102V561Q104 579 103 590T97 610T79 623T43 634V667H108Q163 667 198 667T255 669Q280 670 293 671L298 667Q288 653 281 634Q275 617 270 593T265 538V371H550L563 384V561Q563 579 562 590T555 610T536 623T497 634V667H567Q622 667 657 667T714 669Q739 670 752 672L757 668Q747 653 740 634Q734 617 729 593T724 538V102Q724 91 723 82T721 64Q720 55 719 48L796 39L792 3L499 -3V37Q528 41 545 57T563 99V308H279L265 295V102Q265 91 264 82T262 64Q261 55 260 48L342 39L338 3L45 -3V37Z"  />
<glyph unicode="I" horiz-adv-x="364" d="M45 37Q74 41 89 58T104 104V561Q104 579 103 590T97 610T79 623T43 634V667H108Q163 667 198 667T255 669Q280 670 293 671L298 667Q288 653 281 634Q275 617 270 593T265 538V104Q265 92 264 82T262 64Q261 55 260 48L335 39L331 3L45 -3V37Z"  />
<glyph unicode="J" horiz-adv-x="335" d="M91 561Q91 579 90 590T84 610T66 623T30 634V667H95Q151 667 186 667T243 669Q268 670 280 671L285 667Q275 656 268 638Q262 623 257 600T252 546V173Q252 96 235 34T185 -72T104 -139T-6 -163L-18 -131Q3 -128 23 -111T58 -66T82 0T91 82V561Z"  />
<glyph unicode="K" horiz-adv-x="700" d="M45 37Q73 41 88 57T104 99V561Q104 579 103 590T97 610T79 623T43 634V667H108Q164 667 199 667T256 669Q281 670 293 671L298 667Q288 656 281 638Q275 623 270 600T265 546V370H283Q293 377 303 384Q311 390 321 398T339 414L501 586Q507 593 510 600T511 614T498 626T466 634V667H669L676 645Q659 639 641 628Q625 619 606 604T567 569L426 418V397L641 98Q653 79 662 68T678 51T691 43T704 41L715 40L711 0H497L493 5Q490 15 483 30Q477 43 465 62T433 109L288 312H265V99Q265 88 264 79T262 63Q261 55 260 48L342 39L338 3L45 -3V37Z"  />
<glyph unicode="L" horiz-adv-x="577" d="M45 37Q73 41 90 56T107 99V561Q107 579 106 590T99 610T81 623T45 634V667H111Q163 667 198 667T256 669Q282 670 296 671L301 667Q291 653 284 634Q278 617 273 593T268 538V116Q268 105 267 95T265 77Q264 68 263 60H388Q417 60 438 68T475 92T507 134T542 194H584L541 0H229Q200 0 169 0T109 -2Q76 -3 45 -3V37Z"  />
<glyph unicode="M" horiz-adv-x="909" d="M30 37Q59 41 77 57T97 99L118 561Q119 580 117 591T108 609T86 622T48 634V667H115Q157 667 191 667T251 669Q280 670 303 671L307 667Q308 658 312 645Q318 624 336 575L438 304Q443 290 448 275T457 246L596 593Q599 601 603 614T610 639Q614 653 618 667H680Q709 667 735 667T781 669Q805 670 825 671L830 667Q820 653 813 635Q807 619 802 596T799 541L818 96Q818 84 818 75T817 59Q816 51 815 45L890 39L886 3L594 -3V37Q625 41 642 55T658 96L643 543L426 0L381 12L183 550V537Q183 531 183 524T182 509L165 99Q164 88 164 79T161 61Q159 52 158 45L250 39L246 3L30 -3V37Z"  />
<glyph unicode="N" horiz-adv-x="790" d="M46 37Q78 41 95 56T113 99V517Q113 540 110 557T99 587T76 612T38 634V667H66Q83 667 108 667T156 669Q182 670 210 671Q214 663 220 655Q225 647 232 639T251 619L593 279Q603 269 614 257T635 233V554Q635 570 634 583T625 606T601 622T555 631V667H759L764 645Q746 639 732 626Q720 615 710 596T700 545V-5H648L222 424Q211 435 199 449T178 474V99Q178 88 177 79T175 61Q174 52 173 45L263 39L259 3L46 -3V37Z"  />
<glyph unicode="O" horiz-adv-x="803" d="M29 322Q29 387 53 451T125 565T248 647T421 679Q518 679 585 650T695 575T756 471T775 357Q775 293 751 228T679 109T557 22T384 -12Q291 -12 224 17T114 94T50 201T29 322ZM204 353Q204 296 217 241T257 142T323 71T412 44Q460 44 494 67T552 130T586 221T597 329Q597 383 586 436T549 530T486 597T396 623Q346 623 310 601T250 541T215 454T204 353Z"  />
<glyph unicode="P" horiz-adv-x="600" d="M48 37Q76 41 91 57T107 99V561Q107 579 105 590T97 610T76 623T38 634V667H334Q379 667 425 658T509 629T569 576T593 494Q593 448 572 406T516 332T433 284T332 272V316Q374 323 395 357T417 452Q417 487 409 515T386 564T351 596T309 607H282L268 594V99Q268 88 267 79T265 63Q264 55 263 48L358 39L354 3L48 -3V37Z"  />
<glyph unicode="Q" horiz-adv-x="803" d="M204 353Q204 296 217 241T257 144T323 75T412 49Q460 49 494 72T552 135T586 224T597 328Q597 383 586 435T549 527T486 593T396 618Q346 618 310 596T250 536T215 451T204 353ZM275 0Q210 18 164 51T87 128T43 220T29 319Q29 385 53 449T125 565T248 647T422 679Q518 679 585 650T694 575T756 472T775 358Q775 307 760 255T713 156T634 71T523 9Q538 1 562 -26T618 -83T690 -136T778 -160Q792 -160 807 -157V-199Q790 -211 768 -220Q749 -228 724 -234T666 -241Q613 -241 574 -223T505 -177T453 -121T411 -71Q392 -51 374 -39T338 -19T304 -8T275 0Z"  />
<glyph unicode="R" horiz-adv-x="674" d="M335 337Q348 337 361 345T386 370T405 412T412 472Q412 534 385 570T300 607H282L268 594V337H335ZM48 37Q76 41 91 57T107 99V561Q107 579 105 590T97 610T76 623T38 634V667H346Q411 667 457 653T532 617T574 565T588 506Q588 478 578 454T550 409T512 371T470 340V321L616 99Q629 79 639 68T656 51T669 44T679 41L690 40L686 0H472L468 5Q465 17 458 33Q452 47 441 67T413 113L307 277H282L268 264V99Q268 88 267 79T265 63Q264 55 263 48L353 39L349 3L48 -3V37Z"  />
<glyph unicode="S" horiz-adv-x="524" d="M34 89Q34 92 35 99T39 121T49 158T68 213H110Q110 162 124 130T160 78T207 52T255 45Q273 45 290 50T322 64T345 88T354 123Q354 159 332 185T275 232T201 275T127 323T70 388T47 481Q47 523 62 559T107 622T183 664T289 679Q328 679 375 674T476 660L442 488H400Q399 517 394 541T375 584T340 612T284 622Q233 622 208 599T183 545Q183 508 205 483T262 438T336 397T410 350T467 284T490 189Q490 139 472 101T421 38T346 1T253 -12Q218 -12 181 -7T111 11T58 42T34 89Z"  />
<glyph unicode="T" horiz-adv-x="653" d="M179 37Q209 41 226 58T243 102V607H170Q147 607 130 603T97 585T67 549T37 488H-4L27 673Q34 671 45 670Q63 667 94 667H590Q621 667 641 670Q652 671 662 673L631 488H589Q588 525 581 548T561 585T527 602T480 607H417L404 594V102Q404 91 403 82T401 64Q400 55 399 48L499 39L495 3L179 -3V37Z"  />
<glyph unicode="U" horiz-adv-x="735" d="M77 561Q77 579 76 590T70 610T52 623T16 634V667H81Q136 667 172 667T229 669Q254 670 266 671L271 667Q261 653 254 635Q248 619 243 595T238 538V241Q238 192 253 157T294 99T350 65T415 54Q448 54 478 65T531 100T569 156T583 234V556Q583 572 582 585T574 607T552 622T510 631V667H720L725 645Q705 636 689 621Q675 608 664 587T653 535V237Q653 174 632 128T574 50T486 4T376 -12Q325 -12 272 1T175 43T105 118T77 233V561Z"  />
<glyph unicode="V" horiz-adv-x="604" d="M37 579Q30 596 23 606T7 623Q-2 630 -11 634V667H38Q70 667 101 667T156 669Q184 670 209 671L213 667Q203 649 201 623T207 575L327 258Q332 244 337 227T346 196L489 547Q503 579 495 601T444 634V667H613L619 645Q610 637 599 624Q590 613 579 594T556 546L327 -9L267 3L37 579Z"  />
<glyph unicode="W" horiz-adv-x="941" d="M471 426L333 -9L264 3L34 579Q27 596 19 606T3 623Q-6 630 -14 634V667H35Q56 667 84 667T139 669Q169 670 201 671L205 667Q195 649 193 622T199 575L318 264Q323 250 327 234T335 203L436 522L415 579Q409 596 400 606T382 623Q372 630 362 634V667H416Q437 667 465 667T520 669Q550 670 582 671L586 667Q576 649 575 623T580 575L683 262Q688 247 692 230T698 199L810 547Q815 563 817 577T815 601T798 620T765 634V667H931L937 645Q926 638 915 625Q905 614 894 595T874 546L699 -9L628 3L471 426Z"  />
<glyph unicode="X" horiz-adv-x="643" d="M-1 37Q26 40 43 54T78 89L255 314L72 590Q64 602 54 610T35 624Q24 630 14 634V667H64Q85 667 115 667T174 669Q207 670 242 671L246 667Q241 656 240 645Q239 635 241 622T253 595L360 428L475 574Q485 586 484 597T475 616T456 629T436 634V667H624L629 646Q619 641 608 631Q598 623 586 610T558 578L395 373L611 46L645 36L641 0H606Q586 0 549 0T476 -1Q433 -2 386 -2V36Q412 40 416 48T409 76L291 260L127 51L218 39L214 0H-1V37Z"  />
<glyph unicode="Y" horiz-adv-x="589" d="M153 37Q184 41 200 58T217 104V295L38 590Q29 604 21 613T5 627Q-3 632 -10 634V667H41Q80 667 110 667T162 669Q187 670 206 671L210 667Q206 655 204 643Q202 632 203 620T212 595L314 417Q321 405 328 390T341 362L468 572Q480 592 473 610T428 634V667H597L603 645Q596 641 588 634Q581 628 573 618T553 590L377 311H378V104Q378 92 377 82T375 64Q374 55 373 48L455 39L451 3L153 -3V37Z"  />
<glyph unicode="Z" horiz-adv-x="593" d="M14 32Q20 36 29 45Q36 53 46 66T69 103L325 558Q331 569 340 582T357 607H236Q211 607 189 603T148 586T111 550T79 488H37L64 667H485Q499 667 511 667T532 669Q542 670 549 671L553 635Q545 628 537 617Q530 608 521 595T503 564L250 112Q243 100 234 86T215 60H370Q396 60 417 65T457 86T494 127T531 194H573L531 0H84Q69 0 57 0T37 -2Q27 -3 20 -4L14 32Z"  />
<glyph unicode="[" horiz-adv-x="294" d="M71 667H281V605H170V-104H281V-166H71V667Z"  />
<glyph unicode="\" horiz-adv-x="348" d="M-32 667H55L388 -196H300L-32 667Z"  />
<glyph unicode="]" horiz-adv-x="294" d="M124 -104V605H13V667H223V-166H13V-104H124Z"  />
<glyph unicode="^" horiz-adv-x="582" d="M250 679H332L546 250H456L290 584L124 250H36L250 679Z"  />
<glyph unicode="_" horiz-adv-x="496" d="M498 -37V-102H-2V-37H498Z"  />
<glyph unicode="`" horiz-adv-x="500" d="M144 715L285 703L355 532L310 508L144 688V715Z"  />
<glyph unicode="a" horiz-adv-x="494" d="M169 136Q169 107 182 93T216 79Q238 79 265 95V225L240 220Q169 206 169 136ZM14 106Q14 145 33 173T84 222T154 254T231 272L266 277Q266 307 266 333T261 378T248 408T223 419Q203 419 187 401T159 362Q145 337 133 306H79L54 401Q80 420 114 435Q143 448 185 459T282 470Q324 470 350 462T392 437T414 392T420 327V105Q420 83 424 71T442 58Q454 58 464 63Q469 66 474 69L492 39Q477 24 458 13Q441 3 417 -4T363 -12Q318 -12 294 5T269 53V64Q254 43 234 26Q217 12 193 0T139 -12Q118 -12 96 -6T56 14T26 50T14 106Z"  />
<glyph unicode="b" horiz-adv-x="545" d="M52 3Q54 13 57 27Q59 39 60 58T62 103V599Q62 629 58 646T32 664H3V699Q72 713 114 722T182 739Q210 747 224 753L227 750Q224 739 222 723Q220 709 219 688T217 638V513Q217 472 215 448T213 412Q253 470 338 470Q385 470 420 452T478 403T512 334T524 255Q524 208 507 160T454 74T364 12T235 -12Q212 -12 187 -10T138 -6T92 -2T55 0L52 3ZM217 53Q220 51 224 49Q234 45 250 45Q281 45 303 60T338 100T358 156T364 220Q364 251 359 279T340 330T306 366T252 380Q233 380 217 377V53Z"  />
<glyph unicode="c" horiz-adv-x="451" d="M21 214Q21 258 37 303T85 386T164 446T273 470Q295 470 323 466T377 453T419 428T436 388Q436 366 421 349T381 331Q358 331 346 345T322 375T297 406T255 420Q232 420 215 408T186 374T168 325T162 266Q162 188 198 140T306 92Q331 92 352 96T391 107Q410 114 426 123L438 89Q420 60 392 38Q368 19 331 4T241 -12Q189 -12 149 6T80 56T36 129T21 214Z"  />
<glyph unicode="d" horiz-adv-x="563" d="M181 240Q181 216 185 189T202 138T234 99T285 83Q297 83 309 84T331 90V361Q331 379 327 389T318 404T306 410T295 411Q265 411 243 395T208 354T188 299T181 240ZM21 197Q21 248 40 297T94 384T178 446T290 470Q298 470 306 470T319 468Q325 467 331 467V599Q331 629 327 646T301 664H271V699Q340 713 383 722T451 739Q480 747 493 753L496 750Q493 739 491 723Q489 709 488 688T486 638V103Q486 82 490 70T501 53T519 47T542 46H557L554 11Q499 6 457 3T386 -4Q352 -8 327 -10L326 -8Q328 1 330 11Q332 19 333 28T335 48V61Q325 44 309 31T274 8T236 -7T201 -12Q167 -12 135 3T77 45T37 111T21 197Z"  />
<glyph unicode="e" horiz-adv-x="463" d="M235 416Q219 416 206 406T183 377T168 336T162 285L298 302Q297 333 290 359Q284 380 271 398T235 416ZM21 221Q21 272 39 317T89 397T164 450T259 470Q294 470 326 460T384 428T424 371T441 285Q425 279 410 275Q397 271 385 267T364 262L175 233L167 220Q172 194 182 171T211 131T254 103T316 92Q341 92 361 97T397 109Q415 117 428 127L441 93Q423 63 397 40Q374 20 340 4T256 -12Q200 -12 156 7T82 59T37 134T21 221Z"  />
<glyph unicode="f" horiz-adv-x="360" d="M28 34Q57 38 69 55T82 99V386H22V437L82 459V492Q82 546 102 592T157 671T233 723T321 742Q344 742 369 738T416 724T452 701T466 666Q466 637 448 621T407 604Q386 604 369 617T338 645T310 674T284 687Q255 687 246 646T237 511V458H361L349 389H250L237 376V99Q237 88 236 79T234 61Q233 52 232 45L332 36L328 3L28 -3V34Z"  />
<glyph unicode="g" horiz-adv-x="504" d="M240 207Q277 207 291 236T306 305Q306 326 303 346T291 383T269 410T236 421Q218 421 206 413T187 389T176 355T173 314Q173 270 187 239T240 207ZM219 -40Q205 -37 192 -34T165 -27Q156 -39 148 -56T140 -97Q140 -139 168 -162T247 -185Q265 -185 286 -182T324 -171T354 -148T366 -112Q366 -96 356 -86T328 -68T282 -54T219 -40ZM42 64Q42 87 55 104T88 133T128 153T164 166Q135 172 110 184T66 214T37 256T26 311Q26 350 44 379T91 429T159 460T239 470Q264 470 282 467T317 460T351 453T391 450H439Q451 450 462 452T484 456Q495 459 505 463L493 377H459Q445 377 437 378T425 379Q426 378 431 374T441 361T450 339T454 308Q454 272 436 244T388 197T319 168T238 158Q213 158 191 161Q188 156 185 148T182 132Q182 116 205 108T262 94T337 79T411 57T469 18T492 -47Q492 -88 471 -123T413 -183T327 -223T223 -237Q190 -237 154 -229T86 -206T35 -170T14 -121Q14 -101 24 -86T52 -58T91 -36T134 -18Q94 -5 68 13T42 64Z"  />
<glyph unicode="h" horiz-adv-x="587" d="M24 34Q50 38 62 55T74 99V599Q74 629 70 646T44 664H14V699Q83 713 126 722T194 739Q223 747 236 753L239 750Q236 739 234 723Q232 709 231 688T229 638V476Q229 435 227 411T225 375Q238 391 254 407T290 438T336 461T391 470Q417 470 439 463T477 439T503 397T513 335V99Q513 88 512 79T510 62Q509 54 508 47L580 36L576 3L320 -3V34Q343 38 350 55T358 99V286Q358 335 348 350T309 366Q290 366 270 363T229 347V99Q229 88 228 79T226 61Q225 52 224 45L277 36L273 3L24 -3V34Z"  />
<glyph unicode="i" horiz-adv-x="306" d="M144 548Q106 548 83 569T59 628Q59 665 82 687T144 709Q183 709 206 687T230 628Q230 591 207 570T144 548ZM27 34Q53 38 64 55T76 99V332Q76 362 72 379T46 397H14V432Q51 436 90 444T161 462Q199 473 234 484L239 481Q237 470 235 454Q233 440 232 419T231 367V99Q231 88 230 79T228 61Q227 52 226 45L298 36L294 3L27 -3V34Z"  />
<glyph unicode="j" horiz-adv-x="288" d="M140 548Q102 548 78 569T54 628Q54 665 78 687T140 709Q178 709 202 687T226 628Q226 591 202 570T140 548ZM71 332Q71 362 67 379T41 397H9V432Q47 436 86 444T157 462Q195 473 230 484L234 481Q232 470 230 453Q228 439 227 417T226 365V60Q226 -94 159 -165T-26 -237L-38 -205Q-17 -202 3 -187T38 -146T62 -88T71 -16V332Z"  />
<glyph unicode="k" horiz-adv-x="571" d="M24 34Q50 38 62 55T74 99V599Q74 629 70 646T44 664H14V699Q83 713 126 722T194 739Q223 747 236 753L239 750Q236 739 234 723Q232 709 231 688T229 638V273H248L345 360Q363 377 371 386T380 405Q380 412 374 417T350 425V458H549L554 442Q532 434 512 425Q495 417 478 407T449 387L368 312V295Q369 293 371 290Q373 288 375 285T379 279L509 90Q521 72 530 62T546 47T559 41T570 39L581 38L577 0L378 -3Q375 9 371 20Q367 30 362 42T348 66L248 223H229V99Q229 88 228 79T226 61Q225 52 224 45L288 36L284 3L24 -3V34Z"  />
<glyph unicode="l" horiz-adv-x="305" d="M24 34Q50 38 62 55T74 99V599Q74 629 70 646T44 664H14V699Q83 713 126 722T194 739Q223 747 236 753L239 750Q236 739 234 723Q232 709 231 688T229 638V99Q229 88 228 79T226 61Q225 52 224 45L296 36L292 3L24 -3V34Z"  />
<glyph unicode="m" horiz-adv-x="874" d="M28 34Q54 38 65 55T77 99V332Q77 362 73 379T47 397H14V432Q62 439 102 448T173 465Q208 475 236 484L239 481Q237 475 234 462Q232 451 229 430T224 376Q236 392 252 408T288 438T332 461T387 470Q429 470 464 451T513 387Q528 403 544 418T579 444T620 463T672 470Q727 470 764 438T801 335V99Q801 88 800 79T798 62Q797 54 796 47L868 36L864 3L611 -3V34Q628 38 637 55T646 99V286Q646 311 643 327T633 351T614 363T586 366Q562 366 540 358T517 331V99Q517 88 516 79T514 62Q513 54 512 47L567 41L561 3L328 -3V34Q345 38 353 55T362 99V286Q362 313 358 329T347 353T329 363T306 366Q286 366 266 361T232 348V99Q232 88 231 79T229 62Q228 54 227 47L282 41L276 3L28 -3V34Z"  />
<glyph unicode="n" horiz-adv-x="589" d="M27 34Q53 38 64 55T76 99V332Q76 362 72 379T46 397H14V432Q62 439 102 448T172 465Q206 475 235 484L238 481Q236 475 233 462Q231 451 228 430T222 376Q235 392 252 408T290 438T337 461T393 470Q419 470 441 463T479 439T505 397T515 335V99Q515 88 514 78T512 61Q511 52 510 46L582 36L578 3L322 -3V34Q343 38 351 55T360 99V286Q360 311 358 327T349 351T333 363T309 366Q288 366 267 361T231 348V99Q231 88 230 78T228 61Q227 52 226 46L279 36L275 3L27 -3V34Z"  />
<glyph unicode="o" horiz-adv-x="556" d="M186 248Q186 212 192 175T210 107T241 58T288 38Q314 38 330 55T354 97T366 150T369 202Q369 235 365 273T349 344T319 398T271 420Q249 420 233 406T207 368T191 313T186 248ZM21 220Q21 264 36 308T83 389T164 447T282 470Q339 470 385 454T465 409T517 338T535 246Q535 198 519 152T469 70T387 11T271 -12Q215 -12 169 5T90 52T39 125T21 220Z"  />
<glyph unicode="p" horiz-adv-x="549" d="M260 47Q289 47 309 61T343 100T362 154T368 215Q368 241 364 269T348 320T318 359T272 374Q264 374 253 373T221 367V96Q221 63 234 55T260 47ZM27 -210Q53 -191 59 -169T66 -111V332Q66 362 62 379T36 397H9V432Q54 439 93 448T162 465Q196 475 225 484L228 481Q226 472 223 460Q221 449 219 433T216 395Q236 422 255 437T291 459T322 468T348 470Q384 470 416 455T474 412T513 345T528 260Q528 210 511 162T460 75T378 12T266 -12Q249 -12 238 -11T221 -9V-110Q221 -121 220 -131T218 -150Q217 -160 216 -167H313L309 -199Q255 -206 204 -214Q159 -221 111 -229T27 -247V-210Z"  />
<glyph unicode="q" horiz-adv-x="547" d="M181 238Q181 208 186 180T205 128T240 91T296 77Q315 77 330 81V405Q326 407 322 409Q312 413 296 413Q265 413 244 398T208 358T188 302T181 238ZM21 200Q21 249 39 297T93 384T184 446T313 470Q335 470 360 468T410 464T456 460T491 458L494 455Q491 443 488 419T485 355V-115Q485 -126 484 -136T482 -154Q481 -163 480 -171H542L538 -203Q494 -209 448 -216T363 -231Q318 -239 275 -247V-210Q304 -191 317 -170T330 -114V-55Q330 -14 332 10T334 46Q311 15 281 2T209 -12Q161 -12 126 7T67 56T33 124T21 200Z"  />
<glyph unicode="r" horiz-adv-x="429" d="M27 34Q53 38 64 55T76 99V331Q76 361 72 378T46 396H14V431Q62 438 102 447T171 464Q205 474 234 484L237 481Q233 465 229 446Q226 429 224 408T222 362Q227 370 239 388T270 424T313 456T368 470Q388 470 401 463T421 446T432 424T435 402Q435 390 431 377T417 354T394 336T361 329Q347 329 338 332T322 340T308 347T291 351Q280 351 270 348T251 340Q240 335 231 329V99Q231 88 230 79T228 61Q227 52 226 45L313 36L309 3L27 -3V34Z"  />
<glyph unicode="s" horiz-adv-x="392" d="M23 59Q23 69 26 84T33 113Q37 129 43 146H78Q81 114 92 93T118 59T151 41T185 35Q208 35 222 47T236 82Q236 105 221 121T184 149T135 175T87 206T49 252T34 319Q34 356 48 384T86 432T141 460T208 470Q230 470 255 467T303 460Q329 456 354 450L329 331H293Q290 359 283 377T265 405T243 419T218 423Q198 423 183 412T168 375Q168 350 183 335T220 307T268 282T317 252T354 209T369 143Q369 102 354 73T313 25T253 -3T182 -12Q156 -12 128 -8T77 6T39 28T23 59Z"  />
<glyph unicode="t" horiz-adv-x="383" d="M72 321Q72 332 72 343T73 364Q74 375 75 386H12V437Q25 440 38 444Q49 448 61 454T83 468L122 583L232 579L235 576Q232 569 230 557Q228 546 227 527T226 479V458H360L353 389H240L227 376V173Q227 129 237 105T286 80Q302 80 317 83T343 92Q356 97 368 104L386 74Q363 49 335 31Q311 14 277 1T200 -12Q173 -12 150 -5T109 18T82 59T72 119V321Z"  />
<glyph unicode="u" horiz-adv-x="574" d="M62 329Q62 361 58 379T32 397H10V433Q89 447 132 455T196 468Q220 473 224 475L226 472Q223 463 221 448Q219 435 218 416T217 367V170Q217 118 231 101T268 84Q283 84 296 88T319 99Q330 106 341 115V329Q341 361 337 379T311 397H291V435Q368 449 410 456T473 468Q497 472 503 475L505 472Q502 463 500 448Q498 435 497 416T496 367V103Q496 82 500 70T511 53T529 47T552 46H567L564 11Q509 6 469 3T400 -3Q367 -7 345 -9L344 -8Q345 1 347 11Q348 19 349 28T350 48V83Q332 56 309 35Q289 17 261 3T196 -12Q169 -12 145 -5T102 19T73 62T62 124V329Z"  />
<glyph unicode="v" horiz-adv-x="476" d="M45 367Q37 385 28 396T10 414Q0 421 -10 425V458H33Q72 458 103 458T158 460Q184 461 206 462L210 458Q204 446 201 431Q199 418 199 402T207 366L271 212Q276 199 281 183T290 153L378 354Q402 407 320 425V458H476L481 442Q477 439 473 432Q469 426 464 416T451 388L275 -11L194 2L45 367Z"  />
<glyph unicode="w" horiz-adv-x="746" d="M46 367Q38 386 29 397T11 415Q1 422 -9 425V458H34Q73 458 104 458T157 460Q183 461 203 462L207 458Q201 446 198 431Q196 418 196 402T204 366L262 210Q267 196 272 177T281 143L337 265Q344 277 344 296T334 336L321 367Q313 385 304 396T287 414Q278 421 269 425V458H309Q348 458 379 458T432 460Q458 461 478 462L482 458Q476 446 473 431Q471 418 471 402T479 366L537 211Q542 197 547 179T555 147L651 353Q659 370 658 381T648 401T626 415T596 425V458H747L752 442Q750 439 746 433Q742 428 737 418T723 389L540 -11L467 2L376 226L267 -11L192 2L46 367Z"  />
<glyph unicode="x" horiz-adv-x="502" d="M253 36Q260 36 266 38T277 44T281 56T273 75L214 164L120 45L187 36L183 3L7 -3V34Q27 37 42 43T70 66L184 209L67 380Q56 396 46 405T27 419Q17 424 9 425V458H71Q96 458 122 458T171 460Q197 461 222 462L226 458Q223 446 223 435Q223 424 226 412T238 386L290 307L353 388Q361 398 357 404T344 415T324 422T308 425V458H482L487 442Q478 438 467 431Q458 425 447 416T424 392L320 262L474 39L507 35L503 3L253 -3V36Z"  />
<glyph unicode="y" horiz-adv-x="477" d="M82 -124Q130 -124 161 -104T217 -30Q211 -15 202 9T182 56L43 367Q35 386 25 397T7 415Q-3 422 -12 425V458H30Q69 458 100 458T155 460Q181 461 202 462L206 458Q197 438 196 413T204 366L272 203Q277 190 282 175T291 145L379 353Q385 367 383 378T372 399T351 414T324 425V458H475L480 442Q475 437 471 429Q467 422 462 413T451 389L312 59Q296 22 274 -28T222 -125T154 -204T67 -237Q37 -237 22 -221T6 -181Q6 -171 9 -161T22 -143T45 -129T82 -124Z"  />
<glyph unicode="z" horiz-adv-x="459" d="M16 30Q21 35 27 42Q36 52 52 78L219 358Q226 369 236 382T255 407H175Q152 407 136 398T108 375T90 348T80 324H29L47 458H367Q381 458 392 458T412 460Q422 461 429 462L437 428Q431 422 426 415Q421 409 415 400T403 380L239 101Q232 90 222 76T202 51H269Q305 51 328 65T364 96Q379 116 386 142H439L412 0H92Q75 0 63 0T42 -2Q31 -3 24 -4L16 30Z"  />
<glyph unicode="{" horiz-adv-x="337" d="M106 -66Q106 -41 106 -9T104 57T96 123T79 181T49 223T3 240V285Q44 286 65 318T96 396T105 492T106 581Q106 623 122 653T168 703T238 732T326 741L331 697Q293 694 271 685T237 656T222 605T218 528Q218 459 209 412T183 335T148 288T107 264V262Q128 254 147 236T183 186T208 105T218 -13Q218 -60 221 -90T236 -140T270 -168T331 -182L326 -226Q279 -226 239 -218T169 -191T123 -142T106 -66Z"  />
<glyph unicode="|" horiz-adv-x="244" d="M70 749H174V-225H70V749Z"  />
<glyph unicode="}" horiz-adv-x="336" d="M119 -13Q119 56 128 105T153 186T189 236T230 262V264Q209 271 189 287T154 334T129 412T119 528Q119 574 116 605T100 655T66 684T5 697L10 741Q58 741 98 732T167 704T213 654T230 581Q230 543 230 493T240 396T270 318T333 285V240Q305 239 287 223T258 182T241 124T233 58T230 -8T230 -66Q230 -111 214 -141T168 -191T98 -218T10 -226L5 -182Q44 -178 66 -169T100 -140T115 -91T119 -13Z"  />
<glyph unicode="~" horiz-adv-x="589" d="M50 164Q50 256 89 298T193 341Q222 341 242 334T278 314T306 289T331 264T358 245T392 237Q413 237 425 247T445 273T455 305T458 337H538Q538 245 499 203T395 160Q352 160 327 176T282 211T244 247T196 264Q175 264 163 254T143 228T133 196T130 164H50Z"  />
<glyph unicode="&#xA0;" horiz-adv-x="210" />
<glyph unicode="&#xA1;" horiz-adv-x="307" d="M245 383Q245 346 220 320T158 294Q140 294 124 301T96 320T77 348T70 383Q70 401 77 416T96 444T124 463T158 470Q176 470 192 463T219 444T238 417T245 383ZM255 -203Q221 -208 186 -215T120 -230Q85 -238 51 -247L44 -236Q49 -224 54 -206Q59 -191 63 -168T73 -112L135 236H179L255 -203Z"  />
<glyph unicode="&#xA2;" horiz-adv-x="468" d="M185 329Q185 280 201 233T246 160L260 452Q239 451 225 441T202 414T189 375T185 329ZM26 272Q26 312 41 351T86 422T160 472T262 494L267 585H315L310 491Q331 488 353 481T393 464T422 441T433 409Q433 359 386 359Q372 359 362 365T342 382T324 403T307 425L293 141H294Q320 141 353 153T421 190L435 159Q421 138 401 120Q383 104 356 90T289 69L285 -22H237L241 67Q187 68 147 86T80 132T40 197T26 272Z"  />
<glyph unicode="&#xA3;" horiz-adv-x="547" d="M50 292H116L127 380Q131 422 146 457T189 518T256 558T351 573Q371 573 394 570T436 559T467 538T480 506Q480 458 428 458Q408 458 395 468T372 490T350 513T320 523Q309 523 303 517T292 494T286 449T279 377L271 292H423L415 244H267V240Q264 209 256 184T238 142Q227 121 216 105Q233 97 255 91Q274 86 300 82T359 78Q401 78 434 90T476 135L483 170H525Q522 133 514 98T487 36T440 -8T365 -25Q348 -25 329 -24T288 -14L193 17Q184 20 176 20T159 20Q132 20 104 14T49 0L37 37Q52 45 64 57Q75 68 84 85T97 127L111 244H50V292Z"  />
<glyph unicode="&#xA4;" horiz-adv-x="506" d="M253 222Q310 222 341 262T372 365Q372 395 364 421T341 467T304 498T253 509Q224 509 202 498T165 468T141 422T133 365Q133 334 141 308T164 263T202 233T253 222ZM19 168L88 239Q50 294 50 365Q50 436 88 489L19 560L64 603L131 534Q155 552 185 563T253 574Q289 574 320 563T375 534L442 603L487 560L418 489Q455 435 455 365Q455 330 445 298T417 240L487 168L442 125L374 194Q325 157 253 157Q181 157 132 194L64 125L19 168Z"  />
<glyph unicode="&#xA5;" horiz-adv-x="566" d="M62 318H181L76 495Q69 506 61 512T45 522Q36 526 28 528V561H68Q103 561 132 561T185 562Q211 563 233 564L236 561Q233 552 232 543Q231 535 232 526T238 507L304 385Q311 373 318 358T331 330L417 480Q427 496 424 509T389 528V561H532L536 545Q529 543 522 539Q516 534 508 526T491 504L379 318H511V270H361V210H511V162H361V99Q361 88 360 79T358 61Q357 52 356 45L406 36L402 3L152 -3V34Q181 38 193 55T206 99V162H62V210H206V270H62V318Z"  />
<glyph unicode="&#xA6;" horiz-adv-x="256" d="M180 181V-177H76V181H180ZM76 694H180V336H76V694Z"  />
<glyph unicode="&#xA7;" horiz-adv-x="474" d="M75 396Q66 449 72 500T103 590T169 654T275 679Q313 679 343 669T394 647Q419 633 437 615L421 577Q408 587 390 596Q374 603 351 609T295 615Q250 615 221 597T176 549T157 481T162 404L214 118Q217 102 220 80T225 34T226 -14T217 -60T194 -96T155 -118L150 -113Q151 -95 151 -79T151 -46T146 -9T138 41L75 396ZM36 -135Q49 -146 67 -154Q83 -162 106 -167T162 -173Q207 -173 236 -155T281 -107T299 -39T295 38L243 324Q238 348 234 384T232 456T250 521T302 560L307 555Q305 537 305 521T306 488T311 450T319 401L382 46Q391 -7 385 -57T354 -148T288 -212T182 -237Q144 -237 114 -227T63 -205Q38 -191 20 -173L36 -135Z"  />
<glyph unicode="&#xA8;" horiz-adv-x="500" d="M377 553Q342 553 321 572T299 626Q299 661 320 681T377 701Q412 701 433 681T454 626Q454 592 433 573T377 553ZM124 553Q89 553 68 572T46 626Q46 661 67 681T124 701Q159 701 180 681T202 626Q202 592 181 573T124 553Z"  />
<glyph unicode="&#xA9;" horiz-adv-x="750" d="M169 329Q169 367 182 405T224 473T294 523T395 542Q414 542 432 539T467 531T497 522T521 515L504 393H465Q462 427 455 447T436 479T410 495T380 499Q359 499 343 488T314 456T296 410T289 353Q289 318 298 290T323 243T361 213T408 202Q433 202 454 207T492 221Q510 229 526 240L537 203Q524 187 506 174T468 152T428 138T389 133Q345 133 305 146T235 185T187 247T169 329ZM84 333Q84 272 106 218T168 124T260 61T375 37Q436 37 489 60T581 124T643 218T666 333Q666 394 644 448T582 542T489 605T375 629Q313 629 260 606T168 542T107 448T84 333ZM30 333Q30 404 57 467T131 577T241 651T375 678Q446 678 509 651T619 577T693 467T720 333Q720 262 693 199T619 89T509 15T375 -12Q304 -12 241 15T131 89T57 199T30 333Z"  />
<glyph unicode="&#xAA;" horiz-adv-x="392" d="M169 408Q174 408 179 409T189 412Q194 414 200 417V500Q162 495 150 481T138 444Q138 432 143 420T169 408ZM117 340Q102 340 86 344T57 359T36 385T27 425Q27 452 41 472T78 507T133 531T201 545V558Q201 606 194 622T173 639Q160 639 149 627T129 600Q118 582 110 561H71L53 629Q71 642 97 653Q118 662 149 670T218 678Q277 678 296 655T316 577V426Q316 412 318 402T331 392Q336 392 340 394T349 398Q353 401 357 405L372 378Q360 367 345 359Q332 351 314 346T273 340Q239 340 221 354T203 388Q191 375 178 364Q167 355 151 348T117 340Z"  />
<glyph unicode="&#xAB;" horiz-adv-x="504" d="M225 256Q230 260 235 264T248 276T269 297T303 332T357 388T435 470L475 460Q436 388 413 348T378 286Q364 261 360 254Q364 247 378 222Q390 201 413 161T475 50L435 40Q370 108 332 147T273 208T243 237T225 252V256ZM21 256Q26 260 31 264T44 276T65 297T99 332T153 388T231 470L271 460Q232 388 209 348T174 286Q160 261 156 254Q160 247 174 222Q186 201 209 161T271 50L231 40Q166 108 128 147T69 208T39 237T21 252V256Z"  />
<glyph unicode="&#xAC;" horiz-adv-x="520" d="M19 397H475V111H392V318H19V397Z"  />
<glyph unicode="&#xAD;" horiz-adv-x="380" d="M48 302H332V214H48V302Z"  />
<glyph unicode="&#xAE;" horiz-adv-x="406" d="M189 538H201Q206 539 212 546T218 568Q218 579 211 587T189 596V538ZM123 466Q139 468 139 481V587Q139 596 136 599T120 606V618H192Q237 618 253 606T269 576Q269 562 259 552T236 534Q237 529 240 525Q242 521 244 517T250 509L272 477Q278 468 283 468T293 466L292 447L235 446Q234 451 231 455Q226 462 219 476L192 516H189V481Q189 478 189 476T188 472Q187 470 187 469L212 466L211 448L123 446V466ZM203 392Q229 392 253 403T296 434T326 478T337 531Q337 558 326 583T297 627T254 657T203 669Q176 669 152 658T109 627T80 583T69 531Q69 504 80 479T109 434T151 404T203 392ZM203 358Q167 358 136 371T81 408T44 463T30 531Q30 567 43 598T80 653T135 690T203 704Q239 704 270 691T325 654T362 599T376 531Q376 495 363 464T326 409T271 372T203 358Z"  />
<glyph unicode="&#xAF;" horiz-adv-x="500" d="M112 656H388V573H112V656Z"  />
<glyph unicode="&#xB0;" horiz-adv-x="291" d="M146 439Q120 439 98 448T60 474T34 512T24 559Q24 584 33 605T59 643T98 669T146 679Q171 679 193 670T232 644T258 606T268 559Q268 534 259 513T233 475T194 449T146 439ZM146 496Q172 496 189 514T207 559Q207 586 190 603T146 620Q120 620 103 603T85 559Q85 532 102 514T146 496Z"  />
<glyph unicode="&#xB1;" horiz-adv-x="520" d="M63 80H448V0H63V80ZM53 386H213V558H297V386H454V305H297V120H213V305H53V386Z"  />
<glyph unicode="&#xB2;" horiz-adv-x="350" d="M17 410Q38 431 64 456T113 509T151 568T167 632Q167 672 149 689T103 706Q90 706 73 701T39 686L15 714Q35 734 60 750Q81 764 110 775T175 787Q199 787 221 781T261 762T290 731T301 690Q301 667 291 645T259 597T207 539T133 465H238Q267 465 278 478T297 518H333L315 376H27L17 410Z"  />
<glyph unicode="&#xB3;" horiz-adv-x="332" d="M232 390Q209 379 183 374T130 369Q111 369 90 371T50 378T21 394T9 420Q9 431 20 439T44 448Q63 448 74 441T93 426T109 410T130 403Q148 403 159 427T170 483Q170 522 154 540T107 559Q94 559 79 556V599Q112 607 132 626T152 677Q152 694 142 707T106 720Q92 720 77 716T54 706L33 735Q50 750 69 761Q86 771 108 779T157 787Q212 787 249 768T287 707Q287 686 278 669T254 638T221 616T185 602Q240 590 276 562T312 495Q312 463 291 435T232 390Z"  />
<glyph unicode="&#xB4;" horiz-adv-x="522" d="M146 532L217 703L358 715V688L192 508L146 532Z"  />
<glyph unicode="&#xB5;" horiz-adv-x="582" d="M58 336Q58 359 57 378T54 410Q52 425 51 436L216 467L220 464Q218 454 216 438Q213 411 213 354V182Q213 127 228 106T267 84Q288 84 303 91T332 107V344Q332 367 331 386T328 418Q326 433 325 444L490 475L494 472Q492 462 490 446Q487 419 487 362V103Q487 73 498 60T535 46H561L564 14Q541 6 519 1Q500 -4 480 -8T442 -12Q396 -12 369 7T341 72V76Q320 35 289 12T215 -12Q193 -12 173 -2T135 25Q137 -8 143 -39T156 -98T168 -148T174 -187Q174 -214 157 -225T120 -237Q110 -237 99 -234T77 -222T61 -199T54 -165Q54 -142 56 -115T58 -57V336Z"  />
<glyph unicode="&#xB6;" horiz-adv-x="660" d="M160 -185Q160 -178 163 -170T173 -154T190 -141T214 -136Q226 -136 237 -140T260 -144Q282 -144 294 -134T312 -104T318 -54T319 15V159H305Q230 159 175 180T84 237T31 318T14 412Q14 460 32 505T85 587T174 645T300 667H537Q565 667 583 667T616 671L605 604H544V0H471V604H396V72Q396 29 392 -24T369 -125T316 -205T218 -237Q192 -237 176 -222T160 -185Z"  />
<glyph unicode="&#xB7;" horiz-adv-x="258" d="M128 169Q110 169 95 176T67 194T48 222T41 256Q41 274 48 290T67 318T94 337T128 344Q146 344 162 337T191 318T210 290T217 256Q217 220 191 195T128 169Z"  />
<glyph unicode="&#xB8;" horiz-adv-x="500" d="M190 -91Q190 -79 195 -63T209 -33Q218 -16 229 0H268Q265 -9 263 -17Q261 -24 260 -30T259 -40Q259 -50 274 -56T307 -72T341 -95T356 -137Q356 -182 322 -209T232 -237Q206 -237 186 -232T153 -218Q137 -209 127 -198L145 -155Q155 -163 167 -169Q178 -174 191 -178T220 -183Q233 -183 247 -178T262 -160Q262 -148 251 -141T226 -128T201 -113T190 -91Z"  />
<glyph unicode="&#xB9;" horiz-adv-x="311" d="M26 410L68 412Q94 414 99 424T104 447V674Q104 699 99 701T83 701L25 689L13 729Q64 741 105 752T176 772Q210 782 238 791L241 787Q239 781 237 771Q235 763 234 750T233 719V447Q233 441 233 436T232 426Q231 421 231 417L310 412L307 378L26 374V410Z"  />
<glyph unicode="&#xBA;" horiz-adv-x="411" d="M213 380Q234 380 244 395T259 432T264 475T265 512Q265 534 261 556T249 597T229 626T201 638Q187 638 177 629T159 603T149 565T146 522Q146 498 149 473T161 427T182 393T213 380ZM200 340Q161 340 129 352T73 385T37 437T24 504Q24 535 34 566T67 622T124 662T208 678Q248 678 281 667T338 635T375 585T388 521Q388 488 376 456T341 398T282 356T200 340Z"  />
<glyph unicode="&#xBB;" horiz-adv-x="504" d="M29 50Q68 120 90 160T125 222Q139 247 144 254Q139 261 125 286Q113 307 91 347T29 460L69 470Q137 398 175 358T234 297T262 269T278 256V252Q270 246 261 238T230 208T171 148T69 40L29 50ZM233 50Q272 120 294 160T329 222Q343 247 348 254Q343 261 329 286Q317 307 295 347T233 460L273 470Q342 398 380 358T438 297T467 269T483 256V252Q475 246 466 238T435 208T376 148T273 40L233 50Z"  />
<glyph unicode="&#xBC;" horiz-adv-x="872" d="M199 0L595 687L650 663L270 0H199ZM44 295L86 297Q112 299 117 309T122 332V559Q122 584 117 586T101 586L43 574L31 614Q82 626 123 637T194 657Q228 667 256 676L259 672Q257 666 255 656Q253 648 252 635T251 604V332Q251 326 251 321T250 311Q249 306 249 302L328 297L325 263L44 259V295ZM649 156V289L549 156H649ZM492 141L682 403L778 410Q777 405 777 396Q776 388 776 375T776 342V156H844L835 100H776V70Q776 64 776 59T775 49Q774 44 774 40L831 35L829 2L604 -2V32Q625 34 637 44T649 70V100H501L492 141Z"  />
<glyph unicode="&#xBD;" horiz-adv-x="914" d="M228 0L624 687L679 663L299 0H228ZM42 295L84 297Q110 299 115 309T120 332V559Q120 584 115 586T99 586L41 574L29 614Q80 626 121 637T192 657Q226 667 254 676L257 672Q255 666 253 656Q251 648 250 635T249 604V332Q249 326 249 321T248 311Q247 306 247 302L326 297L323 263L42 259V295ZM569 34Q590 55 616 80T665 133T703 192T719 256Q719 296 701 313T655 330Q642 330 625 325T591 310L567 338Q587 358 612 374Q633 388 662 399T727 411Q751 411 773 405T813 386T842 355T853 314Q853 291 843 269T811 221T759 163T685 89H790Q819 89 830 102T849 142H885L867 0H579L569 34Z"  />
<glyph unicode="&#xBE;" horiz-adv-x="886" d="M210 0L606 687L661 663L281 0H210ZM252 275Q229 264 203 259T150 254Q131 254 110 256T70 263T41 279T29 305Q29 316 40 324T64 333Q83 333 94 326T113 311T129 295T150 288Q168 288 179 312T190 368Q190 407 174 425T127 444Q114 444 99 441V484Q132 492 152 511T172 562Q172 579 162 592T126 605Q112 605 97 601T74 591L53 620Q70 635 89 646Q106 656 128 664T177 672Q232 672 269 653T307 592Q307 571 298 554T274 523T241 501T205 487Q260 475 296 447T332 380Q332 348 311 320T252 275ZM660 156V289L560 156H660ZM503 141L693 403L789 410Q788 405 788 396Q787 388 787 375T787 342V156H855L846 100H787V70Q787 64 787 59T786 49Q785 44 785 40L842 35L840 2L615 -2V32Q636 34 648 44T660 70V100H512L503 141Z"  />
<glyph unicode="&#xBF;" horiz-adv-x="410" d="M320 383Q320 365 313 349T294 320T267 301T233 294Q196 294 170 320T144 383Q144 401 151 416T170 444T198 463T233 470Q251 470 266 463T294 444T313 417T320 383ZM254 234Q257 220 258 204T259 176Q259 140 248 115T225 71T201 37T190 6Q190 -4 197 -13T217 -32T244 -50T276 -66Q314 -84 362 -100L330 -256Q240 -225 170 -190Q140 -175 111 -158T60 -121T24 -82T10 -40Q10 -18 25 2T62 43T111 84T160 128T198 177T213 234H254Z"  />
<glyph unicode="&#xC0;" horiz-adv-x="616" d="M294 397Q291 405 287 416T280 439T273 462T266 482L177 251H344L294 397ZM171 795L219 877H224L425 759L403 713L171 763V795ZM-20 37Q6 40 20 54T42 85L272 661L344 676L562 107Q566 95 571 83T582 61T598 44T623 35L619 0H584Q564 0 527 -1T454 -3Q412 -4 364 -5V37Q384 38 397 46T403 78L365 189H166L148 177L99 48L185 38L178 0H-20V37Z"  />
<glyph unicode="&#xC1;" horiz-adv-x="616" d="M391 877H396L445 795V763L213 713L190 759L391 877ZM294 397Q291 405 287 416T280 439T273 462T266 482L177 251H344L294 397ZM-20 37Q6 40 20 54T42 85L272 661L344 676L562 107Q566 95 571 83T582 61T598 44T623 35L619 0H584Q564 0 527 -1T454 -3Q412 -4 364 -5V37Q384 38 397 46T403 78L365 189H166L148 177L99 48L185 38L178 0H-20V37Z"  />
<glyph unicode="&#xC2;" horiz-adv-x="616" d="M266 871H351L486 751L448 716L315 782H301L168 716L130 751L266 871ZM294 397Q291 405 287 416T280 439T273 462T266 482L177 251H344L294 397ZM-20 37Q6 40 20 54T42 85L272 661L344 676L562 107Q566 95 571 83T582 61T598 44T623 35L619 0H584Q564 0 527 -1T454 -3Q412 -4 364 -5V37Q384 38 397 46T403 78L365 189H166L148 177L99 48L185 38L178 0H-20V37Z"  />
<glyph unicode="&#xC3;" horiz-adv-x="616" d="M121 740Q125 774 138 800Q149 823 172 842T236 861Q261 861 282 854T321 837T356 821T391 813Q409 813 419 820T436 837Q443 848 446 861L496 855Q493 819 480 792Q469 769 445 750T378 730Q351 730 330 737T291 754T257 770T224 778Q207 778 197 771T180 754Q173 743 170 730L121 740ZM294 397Q291 405 287 416T280 439T273 462T266 482L177 251H344L294 397ZM-20 37Q6 40 20 54T42 85L272 661L344 676L562 107Q566 95 571 83T582 61T598 44T623 35L619 0H584Q564 0 527 -1T454 -3Q412 -4 364 -5V37Q384 38 397 46T403 78L365 189H166L148 177L99 48L185 38L178 0H-20V37Z"  />
<glyph unicode="&#xC4;" horiz-adv-x="616" d="M363 795Q363 830 384 849T440 869Q475 869 496 850T518 795Q518 761 497 742T440 722Q405 722 384 741T363 795ZM100 795Q100 830 121 849T178 869Q213 869 234 850T256 795Q256 761 235 742T178 722Q143 722 122 741T100 795ZM294 397Q291 405 287 416T280 439T273 462T266 482L177 251H344L294 397ZM-20 37Q6 40 20 54T42 85L272 661L344 676L562 107Q566 95 571 83T582 61T598 44T623 35L619 0H584Q564 0 527 -1T454 -3Q412 -4 364 -5V37Q384 38 397 46T403 78L365 189H166L148 177L99 48L185 38L178 0H-20V37Z"  />
<glyph unicode="&#xC5;" horiz-adv-x="616" d="M308 750Q329 750 341 761T353 791Q353 804 342 815T308 827Q285 827 275 816T264 791Q264 772 275 761T308 750ZM294 397Q291 405 287 416T280 439T273 462T266 482L177 251H344L294 397ZM308 706Q251 706 227 731T203 792Q203 807 209 821T227 846T260 864T308 871Q336 871 356 864T388 846T407 821T413 792Q413 757 389 732T308 706ZM-20 37Q6 40 20 54T42 85L272 661L344 676L562 107Q566 95 571 83T582 61T598 44T623 35L619 0H584Q564 0 527 -1T454 -3Q412 -4 364 -5V37Q384 38 397 46T403 78L365 189H166L148 177L99 48L185 38L178 0H-20V37Z"  />
<glyph unicode="&#xC6;" horiz-adv-x="892" d="M260 361H394V595Q386 586 378 576T362 551L260 361ZM-30 37Q-1 40 13 54T37 85L302 561Q317 587 293 605T213 634V667H769Q784 667 798 667T824 669Q837 670 849 671L818 488H776Q778 527 773 550T754 586T720 603T668 607H569L555 594V361H712L720 429L765 435V235H710V301H569L555 288V116Q555 105 554 95T552 77Q551 68 550 60H679Q711 60 731 63T766 77T794 112T827 174H869L832 0H517Q488 0 456 0T395 -2Q362 -3 330 -3V37Q394 45 394 99V301H240L221 289L92 48L179 38L171 0H-30V37Z"  />
<glyph unicode="&#xC7;" horiz-adv-x="689" d="M293 -91Q293 -81 296 -70T305 -47T316 -25T326 -8Q249 2 193 35T99 116T45 217T27 323Q27 378 48 441T116 556T235 644T408 679Q443 679 478 675T546 666T606 655T655 648L625 488H583Q581 525 566 550T527 592T470 615T400 622Q339 622 298 600T233 542T198 461T187 369Q187 298 210 246T272 158T360 106T462 89Q503 89 537 99T596 123Q625 138 648 157L667 128Q639 89 599 58Q564 32 511 10T383 -12Q378 -12 375 -12T367 -11Q365 -19 364 -27T362 -40Q362 -50 377 -56T410 -72T444 -95T459 -137Q459 -182 425 -209T335 -237Q309 -237 289 -232T256 -218Q240 -209 230 -198L248 -155Q258 -163 270 -169Q281 -174 294 -178T323 -183Q336 -183 350 -178T365 -160Q365 -148 354 -141T329 -128T304 -113T293 -91Z"  />
<glyph unicode="&#xC8;" horiz-adv-x="604" d="M47 37Q106 45 106 99V561Q106 579 104 590T96 610T75 623T37 634V667H481Q496 667 510 667T536 669Q549 670 561 671L530 488H488Q490 527 485 550T466 586T432 603T380 607H281L267 594V371H424L432 429L477 435V235H422V311H281L267 298V116Q267 105 266 95T264 77Q263 68 262 60H391Q423 60 443 63T478 77T506 112T539 174H581L544 0H229Q200 0 169 0T110 -2Q78 -3 47 -3V37ZM187 795L235 877H240L441 759L419 713L187 763V795Z"  />
<glyph unicode="&#xC9;" horiz-adv-x="604" d="M406 877H411L460 795V763L228 713L205 759L406 877ZM47 37Q106 45 106 99V561Q106 579 104 590T96 610T75 623T37 634V667H481Q496 667 510 667T536 669Q549 670 561 671L530 488H488Q490 527 485 550T466 586T432 603T380 607H281L267 594V371H424L432 429L477 435V235H422V311H281L267 298V116Q267 105 266 95T264 77Q263 68 262 60H391Q423 60 443 63T478 77T506 112T539 174H581L544 0H229Q200 0 169 0T110 -2Q78 -3 47 -3V37Z"  />
<glyph unicode="&#xCA;" horiz-adv-x="604" d="M47 37Q106 45 106 99V561Q106 579 104 590T96 610T75 623T37 634V667H481Q496 667 510 667T536 669Q549 670 561 671L530 488H488Q490 527 485 550T466 586T432 603T380 607H281L267 594V371H424L432 429L477 435V235H422V311H281L267 298V116Q267 105 266 95T264 77Q263 68 262 60H391Q423 60 443 63T478 77T506 112T539 174H581L544 0H229Q200 0 169 0T110 -2Q78 -3 47 -3V37ZM274 871H359L494 751L456 716L323 782H309L176 716L138 751L274 871Z"  />
<glyph unicode="&#xCB;" horiz-adv-x="604" d="M378 795Q378 830 399 849T455 869Q490 869 511 850T533 795Q533 761 512 742T455 722Q420 722 399 741T378 795ZM115 795Q115 830 136 849T193 869Q228 869 249 850T271 795Q271 761 250 742T193 722Q158 722 137 741T115 795ZM47 37Q106 45 106 99V561Q106 579 104 590T96 610T75 623T37 634V667H481Q496 667 510 667T536 669Q549 670 561 671L530 488H488Q490 527 485 550T466 586T432 603T380 607H281L267 594V371H424L432 429L477 435V235H422V311H281L267 298V116Q267 105 266 95T264 77Q263 68 262 60H391Q423 60 443 63T478 77T506 112T539 174H581L544 0H229Q200 0 169 0T110 -2Q78 -3 47 -3V37Z"  />
<glyph unicode="&#xCC;" horiz-adv-x="364" d="M42 795L90 877H95L296 759L274 713L42 763V795ZM45 37Q74 41 89 58T104 104V561Q104 579 103 590T97 610T79 623T43 634V667H108Q163 667 198 667T255 669Q280 670 293 671L298 667Q288 653 281 634Q275 617 270 593T265 538V104Q265 92 264 82T262 64Q261 55 260 48L335 39L331 3L45 -3V37Z"  />
<glyph unicode="&#xCD;" horiz-adv-x="364" d="M261 877H266L315 795V763L83 713L60 759L261 877ZM45 37Q74 41 89 58T104 104V561Q104 579 103 590T97 610T79 623T43 634V667H108Q163 667 198 667T255 669Q280 670 293 671L298 667Q288 653 281 634Q275 617 270 593T265 538V104Q265 92 264 82T262 64Q261 55 260 48L335 39L331 3L45 -3V37Z"  />
<glyph unicode="&#xCE;" horiz-adv-x="364" d="M136 871H221L356 751L318 716L185 782H171L38 716L0 751L136 871ZM45 37Q74 41 89 58T104 104V561Q104 579 103 590T97 610T79 623T43 634V667H108Q163 667 198 667T255 669Q280 670 293 671L298 667Q288 653 281 634Q275 617 270 593T265 538V104Q265 92 264 82T262 64Q261 55 260 48L335 39L331 3L45 -3V37Z"  />
<glyph unicode="&#xCF;" horiz-adv-x="364" d="M45 37Q74 41 89 58T104 104V561Q104 579 103 590T97 610T79 623T43 634V667H108Q163 667 198 667T255 669Q280 670 293 671L298 667Q288 653 281 634Q275 617 270 593T265 538V104Q265 92 264 82T262 64Q261 55 260 48L335 39L331 3L45 -3V37ZM208 795Q208 830 229 849T285 869Q320 869 341 850T363 795Q363 761 342 742T285 722Q250 722 229 741T208 795ZM-5 795Q-5 830 16 849T73 869Q108 869 129 850T150 795Q150 761 129 742T73 722Q38 722 17 741T-5 795Z"  />
<glyph unicode="&#xD0;" horiz-adv-x="766" d="M327 60Q379 60 422 75T497 124T546 208T563 329Q563 390 550 441T510 529T446 586T356 607H290L277 594V371H409V308H277V116Q277 105 276 95T274 77Q273 68 272 60H327ZM33 371H116V561Q116 579 114 590T105 610T83 623T42 634V667H352Q431 667 501 648T625 591T708 495T739 361Q739 274 705 207T613 94T481 24T327 0H238Q209 0 177 0T116 -2Q83 -3 52 -3V37Q82 41 99 56T116 99V308H33V371Z"  />
<glyph unicode="&#xD1;" horiz-adv-x="790" d="M218 740Q222 774 235 800Q246 823 269 842T333 861Q358 861 379 854T418 837T453 821T488 813Q506 813 516 820T533 837Q540 848 543 861L593 855Q590 819 577 792Q566 769 542 750T475 730Q448 730 427 737T388 754T354 770T321 778Q304 778 294 771T277 754Q270 743 267 730L218 740ZM46 37Q78 41 95 56T113 99V517Q113 540 110 557T99 587T76 612T38 634V667H66Q83 667 108 667T156 669Q182 670 210 671Q214 663 220 655Q225 647 232 639T251 619L593 279Q603 269 614 257T635 233V554Q635 570 634 583T625 606T601 622T555 631V667H759L764 645Q746 639 732 626Q720 615 710 596T700 545V-5H648L222 424Q211 435 199 449T178 474V99Q178 88 177 79T175 61Q174 52 173 45L263 39L259 3L46 -3V37Z"  />
<glyph unicode="&#xD2;" horiz-adv-x="803" d="M29 322Q29 387 53 451T125 565T248 647T421 679Q518 679 585 650T695 575T756 471T775 357Q775 293 751 228T679 109T557 22T384 -12Q291 -12 224 17T114 94T50 201T29 322ZM204 353Q204 296 217 241T257 142T323 71T412 44Q460 44 494 67T552 130T586 221T597 329Q597 383 586 436T549 530T486 597T396 623Q346 623 310 601T250 541T215 454T204 353ZM266 795L314 877H319L520 759L498 713L266 763V795Z"  />
<glyph unicode="&#xD3;" horiz-adv-x="803" d="M29 322Q29 387 53 451T125 565T248 647T421 679Q518 679 585 650T695 575T756 471T775 357Q775 293 751 228T679 109T557 22T384 -12Q291 -12 224 17T114 94T50 201T29 322ZM204 353Q204 296 217 241T257 142T323 71T412 44Q460 44 494 67T552 130T586 221T597 329Q597 383 586 436T549 530T486 597T396 623Q346 623 310 601T250 541T215 454T204 353ZM485 877H490L539 795V763L307 713L284 759L485 877Z"  />
<glyph unicode="&#xD4;" horiz-adv-x="803" d="M29 322Q29 387 53 451T125 565T248 647T421 679Q518 679 585 650T695 575T756 471T775 357Q775 293 751 228T679 109T557 22T384 -12Q291 -12 224 17T114 94T50 201T29 322ZM204 353Q204 296 217 241T257 142T323 71T412 44Q460 44 494 67T552 130T586 221T597 329Q597 383 586 436T549 530T486 597T396 623Q346 623 310 601T250 541T215 454T204 353ZM360 871H445L580 751L542 716L409 782H395L262 716L224 751L360 871Z"  />
<glyph unicode="&#xD5;" horiz-adv-x="803" d="M215 740Q219 774 232 800Q243 823 266 842T330 861Q355 861 376 854T415 837T450 821T485 813Q503 813 513 820T530 837Q537 848 540 861L590 855Q587 819 574 792Q563 769 539 750T472 730Q445 730 424 737T385 754T351 770T318 778Q301 778 291 771T274 754Q267 743 264 730L215 740ZM29 322Q29 387 53 451T125 565T248 647T421 679Q518 679 585 650T695 575T756 471T775 357Q775 293 751 228T679 109T557 22T384 -12Q291 -12 224 17T114 94T50 201T29 322ZM204 353Q204 296 217 241T257 142T323 71T412 44Q460 44 494 67T552 130T586 221T597 329Q597 383 586 436T549 530T486 597T396 623Q346 623 310 601T250 541T215 454T204 353Z"  />
<glyph unicode="&#xD6;" horiz-adv-x="803" d="M457 795Q457 830 478 849T534 869Q569 869 590 850T612 795Q612 761 591 742T534 722Q499 722 478 741T457 795ZM194 795Q194 830 215 849T272 869Q307 869 328 850T350 795Q350 761 329 742T272 722Q237 722 216 741T194 795ZM29 322Q29 387 53 451T125 565T248 647T421 679Q518 679 585 650T695 575T756 471T775 357Q775 293 751 228T679 109T557 22T384 -12Q291 -12 224 17T114 94T50 201T29 322ZM204 353Q204 296 217 241T257 142T323 71T412 44Q460 44 494 67T552 130T586 221T597 329Q597 383 586 436T549 530T486 597T396 623Q346 623 310 601T250 541T215 454T204 353Z"  />
<glyph unicode="&#xD7;" horiz-adv-x="520" d="M86 487L259 315L434 490L489 433L316 259L498 78L441 22L259 202L79 21L23 78L203 258L28 433L86 487Z"  />
<glyph unicode="&#xD8;" horiz-adv-x="803" d="M204 353Q204 305 213 260T240 175L531 556Q507 587 474 605T396 623Q346 623 310 601T250 541T215 454T204 353ZM597 329Q597 376 589 421T562 506L270 122Q296 87 331 66T412 44Q460 44 494 67T552 130T586 221T597 329ZM29 322Q29 387 53 451T125 565T248 647T421 679Q474 679 518 670T598 644L638 697H707L646 617Q680 593 704 563T744 498T767 428T775 357Q775 293 751 228T679 109T557 22T384 -12Q328 -12 283 -2T199 29L154 -30H84L152 59Q89 108 59 178T29 322Z"  />
<glyph unicode="&#xD9;" horiz-adv-x="735" d="M77 561Q77 579 76 590T70 610T52 623T16 634V667H81Q136 667 172 667T229 669Q254 670 266 671L271 667Q261 653 254 635Q248 619 243 595T238 538V241Q238 192 253 157T294 99T350 65T415 54Q448 54 478 65T531 100T569 156T583 234V556Q583 572 582 585T574 607T552 622T510 631V667H720L725 645Q705 636 689 621Q675 608 664 587T653 535V237Q653 174 632 128T574 50T486 4T376 -12Q325 -12 272 1T175 43T105 118T77 233V561ZM246 795L294 877H299L500 759L478 713L246 763V795Z"  />
<glyph unicode="&#xDA;" horiz-adv-x="735" d="M465 877H470L519 795V763L287 713L264 759L465 877ZM77 561Q77 579 76 590T70 610T52 623T16 634V667H81Q136 667 172 667T229 669Q254 670 266 671L271 667Q261 653 254 635Q248 619 243 595T238 538V241Q238 192 253 157T294 99T350 65T415 54Q448 54 478 65T531 100T569 156T583 234V556Q583 572 582 585T574 607T552 622T510 631V667H720L725 645Q705 636 689 621Q675 608 664 587T653 535V237Q653 174 632 128T574 50T486 4T376 -12Q325 -12 272 1T175 43T105 118T77 233V561Z"  />
<glyph unicode="&#xDB;" horiz-adv-x="735" d="M77 561Q77 579 76 590T70 610T52 623T16 634V667H81Q136 667 172 667T229 669Q254 670 266 671L271 667Q261 653 254 635Q248 619 243 595T238 538V241Q238 192 253 157T294 99T350 65T415 54Q448 54 478 65T531 100T569 156T583 234V556Q583 572 582 585T574 607T552 622T510 631V667H720L725 645Q705 636 689 621Q675 608 664 587T653 535V237Q653 174 632 128T574 50T486 4T376 -12Q325 -12 272 1T175 43T105 118T77 233V561ZM340 871H425L560 751L522 716L389 782H375L242 716L204 751L340 871Z"  />
<glyph unicode="&#xDC;" horiz-adv-x="735" d="M437 795Q437 830 458 849T514 869Q549 869 570 850T592 795Q592 761 571 742T514 722Q479 722 458 741T437 795ZM174 795Q174 830 195 849T252 869Q287 869 308 850T330 795Q330 761 309 742T252 722Q217 722 196 741T174 795ZM77 561Q77 579 76 590T70 610T52 623T16 634V667H81Q136 667 172 667T229 669Q254 670 266 671L271 667Q261 653 254 635Q248 619 243 595T238 538V241Q238 192 253 157T294 99T350 65T415 54Q448 54 478 65T531 100T569 156T583 234V556Q583 572 582 585T574 607T552 622T510 631V667H720L725 645Q705 636 689 621Q675 608 664 587T653 535V237Q653 174 632 128T574 50T486 4T376 -12Q325 -12 272 1T175 43T105 118T77 233V561Z"  />
<glyph unicode="&#xDD;" horiz-adv-x="589" d="M388 877H393L442 795V763L210 713L187 759L388 877ZM153 37Q184 41 200 58T217 104V295L38 590Q29 604 21 613T5 627Q-3 632 -10 634V667H41Q80 667 110 667T162 669Q187 670 206 671L210 667Q206 655 204 643Q202 632 203 620T212 595L314 417Q321 405 328 390T341 362L468 572Q480 592 473 610T428 634V667H597L603 645Q596 641 588 634Q581 628 573 618T553 590L377 311H378V104Q378 92 377 82T375 64Q374 55 373 48L455 39L451 3L153 -3V37Z"  />
<glyph unicode="&#xDE;" horiz-adv-x="601" d="M332 198Q417 212 417 319Q417 384 386 421T309 459H282L268 446V104Q268 92 267 82T265 64Q264 55 263 48L343 39L339 3L43 -3V37Q74 41 90 58T107 104V561Q107 579 106 590T99 610T80 623T41 634V667H111Q166 667 201 667T258 669Q283 670 296 671L301 667Q291 653 284 634Q278 617 273 593T268 538V519H318Q366 519 415 511T503 483T568 434T593 361Q593 317 572 278T516 209T433 164T332 154V198Z"  />
<glyph unicode="&#xDF;" horiz-adv-x="606" d="M26 26Q55 30 67 46T80 88V386H21V437L80 459V490Q80 532 96 575T145 652T224 707T332 729Q368 729 401 722T459 701T500 663T515 606Q515 574 499 548T464 498T428 455T412 417Q412 401 425 387T459 357T503 323T547 282T581 230T595 161Q595 127 584 96T550 41T494 3T415 -12Q395 -12 371 -9T326 3T291 25T276 63Q276 72 278 83T283 106Q286 118 290 131H331Q341 80 363 57T411 33Q434 33 451 48T468 90Q468 113 456 131T426 165T386 197T346 234T315 281T303 342Q303 382 319 408T353 458T388 507T404 573Q404 591 400 609T387 641T363 665T324 674Q297 674 280 665T252 635T239 583T235 507V53Q235 42 235 33T237 18Q238 11 239 5L236 2L26 -3V26Z"  />
<glyph unicode="&#xE0;" horiz-adv-x="494" d="M89 715L230 703L300 532L255 508L89 688V715ZM169 136Q169 107 182 93T216 79Q238 79 265 95V225L240 220Q169 206 169 136ZM14 106Q14 145 33 173T84 222T154 254T231 272L266 277Q266 307 266 333T261 378T248 408T223 419Q203 419 187 401T159 362Q145 337 133 306H79L54 401Q80 420 114 435Q143 448 185 459T282 470Q324 470 350 462T392 437T414 392T420 327V105Q420 83 424 71T442 58Q454 58 464 63Q469 66 474 69L492 39Q477 24 458 13Q441 3 417 -4T363 -12Q318 -12 294 5T269 53V64Q254 43 234 26Q217 12 193 0T139 -12Q118 -12 96 -6T56 14T26 50T14 106Z"  />
<glyph unicode="&#xE1;" horiz-adv-x="494" d="M181 532L252 703L393 715V688L227 508L181 532ZM169 136Q169 107 182 93T216 79Q238 79 265 95V225L240 220Q169 206 169 136ZM14 106Q14 145 33 173T84 222T154 254T231 272L266 277Q266 307 266 333T261 378T248 408T223 419Q203 419 187 401T159 362Q145 337 133 306H79L54 401Q80 420 114 435Q143 448 185 459T282 470Q324 470 350 462T392 437T414 392T420 327V105Q420 83 424 71T442 58Q454 58 464 63Q469 66 474 69L492 39Q477 24 458 13Q441 3 417 -4T363 -12Q318 -12 294 5T269 53V64Q254 43 234 26Q217 12 193 0T139 -12Q118 -12 96 -6T56 14T26 50T14 106Z"  />
<glyph unicode="&#xE2;" horiz-adv-x="494" d="M211 709H272L393 532L352 503L241 609L130 503L87 532L211 709ZM169 136Q169 107 182 93T216 79Q238 79 265 95V225L240 220Q169 206 169 136ZM14 106Q14 145 33 173T84 222T154 254T231 272L266 277Q266 307 266 333T261 378T248 408T223 419Q203 419 187 401T159 362Q145 337 133 306H79L54 401Q80 420 114 435Q143 448 185 459T282 470Q324 470 350 462T392 437T414 392T420 327V105Q420 83 424 71T442 58Q454 58 464 63Q469 66 474 69L492 39Q477 24 458 13Q441 3 417 -4T363 -12Q318 -12 294 5T269 53V64Q254 43 234 26Q217 12 193 0T139 -12Q118 -12 96 -6T56 14T26 50T14 106Z"  />
<glyph unicode="&#xE3;" horiz-adv-x="494" d="M74 554Q69 597 77 630Q80 644 87 658T105 682T132 699T172 706Q199 706 217 695T251 671T279 646T309 635Q331 635 341 645T356 667Q360 681 360 699H412Q416 655 407 622Q399 593 377 570T309 546Q283 546 265 557T233 581T206 606T177 617Q154 617 143 607T128 585Q123 571 125 554H74ZM169 136Q169 107 182 93T216 79Q238 79 265 95V225L240 220Q169 206 169 136ZM14 106Q14 145 33 173T84 222T154 254T231 272L266 277Q266 307 266 333T261 378T248 408T223 419Q203 419 187 401T159 362Q145 337 133 306H79L54 401Q80 420 114 435Q143 448 185 459T282 470Q324 470 350 462T392 437T414 392T420 327V105Q420 83 424 71T442 58Q454 58 464 63Q469 66 474 69L492 39Q477 24 458 13Q441 3 417 -4T363 -12Q318 -12 294 5T269 53V64Q254 43 234 26Q217 12 193 0T139 -12Q118 -12 96 -6T56 14T26 50T14 106Z"  />
<glyph unicode="&#xE4;" horiz-adv-x="494" d="M368 553Q333 553 312 572T290 626Q290 661 311 681T368 701Q403 701 424 681T445 626Q445 592 424 573T368 553ZM115 553Q80 553 59 572T37 626Q37 661 58 681T115 701Q150 701 171 681T193 626Q193 592 172 573T115 553ZM169 136Q169 107 182 93T216 79Q238 79 265 95V225L240 220Q169 206 169 136ZM14 106Q14 145 33 173T84 222T154 254T231 272L266 277Q266 307 266 333T261 378T248 408T223 419Q203 419 187 401T159 362Q145 337 133 306H79L54 401Q80 420 114 435Q143 448 185 459T282 470Q324 470 350 462T392 437T414 392T420 327V105Q420 83 424 71T442 58Q454 58 464 63Q469 66 474 69L492 39Q477 24 458 13Q441 3 417 -4T363 -12Q318 -12 294 5T269 53V64Q254 43 234 26Q217 12 193 0T139 -12Q118 -12 96 -6T56 14T26 50T14 106Z"  />
<glyph unicode="&#xE5;" horiz-adv-x="494" d="M241 583Q262 583 274 596T286 629Q286 647 275 660T241 673Q218 673 208 660T197 629Q197 610 208 597T241 583ZM241 534Q213 534 193 543T161 566T142 598T136 630Q136 645 142 661T160 691T193 713T241 722Q269 722 289 714T321 692T340 662T346 630Q346 615 340 598T322 567T289 543T241 534ZM169 136Q169 107 182 93T216 79Q238 79 265 95V225L240 220Q169 206 169 136ZM14 106Q14 145 33 173T84 222T154 254T231 272L266 277Q266 307 266 333T261 378T248 408T223 419Q203 419 187 401T159 362Q145 337 133 306H79L54 401Q80 420 114 435Q143 448 185 459T282 470Q324 470 350 462T392 437T414 392T420 327V105Q420 83 424 71T442 58Q454 58 464 63Q469 66 474 69L492 39Q477 24 458 13Q441 3 417 -4T363 -12Q318 -12 294 5T269 53V64Q254 43 234 26Q217 12 193 0T139 -12Q118 -12 96 -6T56 14T26 50T14 106Z"  />
<glyph unicode="&#xE6;" horiz-adv-x="708" d="M484 416Q469 416 457 407T436 381T421 343T412 296L539 307Q539 309 538 326T532 363T515 399T484 416ZM208 80Q225 80 237 90T256 115T267 144T270 168V229Q236 224 216 215T184 194T169 169T165 142Q165 114 176 97T208 80ZM11 105Q11 147 33 178T91 230T175 263T271 281V304Q271 324 270 344T265 381T253 408T229 419Q209 419 193 401T164 362Q150 337 138 306H84L59 401Q86 420 120 435Q149 448 189 459T277 470Q302 470 319 467T348 458T368 447T384 433Q410 449 440 459T506 470Q539 470 570 460T627 427T668 369T686 283Q672 278 658 274Q646 270 633 267T608 263L411 244Q414 216 423 189T450 140T495 105T560 92Q586 92 607 97T644 109Q662 117 675 127L687 93Q668 63 641 40Q618 20 581 4T493 -12Q457 -12 429 -4T378 19T338 53T308 93Q288 45 247 17T151 -12Q126 -12 101 -6T56 15T24 52T11 105Z"  />
<glyph unicode="&#xE7;" horiz-adv-x="451" d="M160 -91Q160 -81 164 -69T173 -46T184 -24T194 -7Q153 1 121 22T66 72T33 138T21 214Q21 258 37 303T85 386T164 446T273 470Q295 470 323 466T377 453T419 428T436 388Q436 366 421 349T381 331Q358 331 346 345T322 375T297 406T255 420Q232 420 215 408T186 374T168 325T162 266Q162 188 198 140T306 92Q331 92 352 96T391 107Q410 114 426 123L438 89Q420 60 392 38Q368 19 331 4T241 -12H234Q232 -20 231 -27T229 -40Q229 -50 244 -56T277 -72T311 -95T326 -137Q326 -182 292 -209T202 -237Q176 -237 156 -232T123 -218Q107 -209 97 -198L115 -155Q125 -163 137 -169Q148 -174 161 -178T190 -183Q203 -183 217 -178T232 -160Q232 -148 221 -141T196 -128T171 -113T160 -91Z"  />
<glyph unicode="&#xE8;" horiz-adv-x="463" d="M83 714L224 702L294 531L249 507L83 687V714ZM235 416Q219 416 206 406T183 377T168 336T162 285L298 302Q297 333 290 359Q284 380 271 398T235 416ZM21 221Q21 272 39 317T89 397T164 450T259 470Q294 470 326 460T384 428T424 371T441 285Q425 279 410 275Q397 271 385 267T364 262L175 233L167 220Q172 194 182 171T211 131T254 103T316 92Q341 92 361 97T397 109Q415 117 428 127L441 93Q423 63 397 40Q374 20 340 4T256 -12Q200 -12 156 7T82 59T37 134T21 221Z"  />
<glyph unicode="&#xE9;" horiz-adv-x="463" d="M235 416Q219 416 206 406T183 377T168 336T162 285L298 302Q297 333 290 359Q284 380 271 398T235 416ZM21 221Q21 272 39 317T89 397T164 450T259 470Q294 470 326 460T384 428T424 371T441 285Q425 279 410 275Q397 271 385 267T364 262L175 233L167 220Q172 194 182 171T211 131T254 103T316 92Q341 92 361 97T397 109Q415 117 428 127L441 93Q423 63 397 40Q374 20 340 4T256 -12Q200 -12 156 7T82 59T37 134T21 221ZM175 531L246 702L387 714V687L221 507L175 531Z"  />
<glyph unicode="&#xEA;" horiz-adv-x="463" d="M235 416Q219 416 206 406T183 377T168 336T162 285L298 302Q297 333 290 359Q284 380 271 398T235 416ZM21 221Q21 272 39 317T89 397T164 450T259 470Q294 470 326 460T384 428T424 371T441 285Q425 279 410 275Q397 271 385 267T364 262L175 233L167 220Q172 194 182 171T211 131T254 103T316 92Q341 92 361 97T397 109Q415 117 428 127L441 93Q423 63 397 40Q374 20 340 4T256 -12Q200 -12 156 7T82 59T37 134T21 221ZM206 708H267L388 531L347 502L236 608L125 502L82 531L206 708Z"  />
<glyph unicode="&#xEB;" horiz-adv-x="463" d="M235 416Q219 416 206 406T183 377T168 336T162 285L298 302Q297 333 290 359Q284 380 271 398T235 416ZM21 221Q21 272 39 317T89 397T164 450T259 470Q294 470 326 460T384 428T424 371T441 285Q425 279 410 275Q397 271 385 267T364 262L175 233L167 220Q172 194 182 171T211 131T254 103T316 92Q341 92 361 97T397 109Q415 117 428 127L441 93Q423 63 397 40Q374 20 340 4T256 -12Q200 -12 156 7T82 59T37 134T21 221ZM363 552Q328 552 307 571T285 625Q285 660 306 680T363 700Q398 700 419 680T440 625Q440 591 419 572T363 552ZM110 552Q75 552 54 571T32 625Q32 660 53 680T110 700Q145 700 166 680T188 625Q188 591 167 572T110 552Z"  />
<glyph unicode="&#xEC;" horiz-adv-x="306" d="M-7 715L134 703L204 532L159 508L-7 688V715ZM27 34Q53 38 64 55T76 99V332Q76 362 72 379T46 397H14V432Q51 436 90 444T161 462Q199 473 234 484L239 481Q237 470 235 454Q233 440 232 419T231 367V99Q231 88 230 79T228 61Q227 52 226 45L298 36L294 3L27 -3V34Z"  />
<glyph unicode="&#xED;" horiz-adv-x="306" d="M27 34Q53 38 64 55T76 99V332Q76 362 72 379T46 397H14V432Q51 436 90 444T161 462Q199 473 234 484L239 481Q237 470 235 454Q233 440 232 419T231 367V99Q231 88 230 79T228 61Q227 52 226 45L298 36L294 3L27 -3V34ZM85 532L156 703L297 715V688L131 508L85 532Z"  />
<glyph unicode="&#xEE;" horiz-adv-x="306" d="M27 34Q53 38 64 55T76 99V332Q76 362 72 379T46 397H14V432Q51 436 90 444T161 462Q199 473 234 484L239 481Q237 470 235 454Q233 440 232 419T231 367V99Q231 88 230 79T228 61Q227 52 226 45L298 36L294 3L27 -3V34ZM115 709H176L297 532L256 503L145 609L34 503L-9 532L115 709Z"  />
<glyph unicode="&#xEF;" horiz-adv-x="306" d="M27 34Q53 38 64 55T76 99V332Q76 362 72 379T46 397H14V432Q51 436 90 444T161 462Q199 473 234 484L239 481Q237 470 235 454Q233 440 232 419T231 367V99Q231 88 230 79T228 61Q227 52 226 45L298 36L294 3L27 -3V34ZM171 626Q171 661 192 681T248 701Q283 701 304 681T326 626Q326 592 305 573T248 553Q213 553 192 572T171 626ZM-39 626Q-39 661 -18 681T39 701Q74 701 95 681T117 626Q117 592 96 573T39 553Q4 553 -17 572T-39 626Z"  />
<glyph unicode="&#xF0;" horiz-adv-x="540" d="M178 226Q178 197 182 164T195 103T220 57T257 38Q297 38 323 97T349 257Q349 287 346 315T335 367T313 404T278 418Q257 418 239 404T207 364T186 303T178 226ZM84 554L202 618Q146 673 64 703L76 745Q137 734 190 714T289 666L435 745L460 696L339 631Q421 564 464 473T508 281Q508 219 491 166T441 73T360 11T250 -12Q194 -12 151 6T79 55T35 126T20 211Q20 260 38 306T87 389T162 448T256 470Q274 470 285 468T306 464Q293 494 277 522T240 576L110 505L84 554Z"  />
<glyph unicode="&#xF1;" horiz-adv-x="589" d="M128 554Q123 597 131 630Q134 644 141 658T159 682T186 699T226 706Q253 706 271 695T305 671T333 646T363 635Q385 635 395 645T410 667Q414 681 414 699H466Q470 655 461 622Q453 593 431 570T363 546Q337 546 319 557T287 581T260 606T231 617Q208 617 197 607T182 585Q177 571 179 554H128ZM27 34Q53 38 64 55T76 99V332Q76 362 72 379T46 397H14V432Q62 439 102 448T172 465Q206 475 235 484L238 481Q236 475 233 462Q231 451 228 430T222 376Q235 392 252 408T290 438T337 461T393 470Q419 470 441 463T479 439T505 397T515 335V99Q515 88 514 78T512 61Q511 52 510 46L582 36L578 3L322 -3V34Q343 38 351 55T360 99V286Q360 311 358 327T349 351T333 363T309 366Q288 366 267 361T231 348V99Q231 88 230 78T228 61Q227 52 226 46L279 36L275 3L27 -3V34Z"  />
<glyph unicode="&#xF2;" horiz-adv-x="556" d="M127 715L268 703L338 532L293 508L127 688V715ZM186 248Q186 212 192 175T210 107T241 58T288 38Q314 38 330 55T354 97T366 150T369 202Q369 235 365 273T349 344T319 398T271 420Q249 420 233 406T207 368T191 313T186 248ZM21 220Q21 264 36 308T83 389T164 447T282 470Q339 470 385 454T465 409T517 338T535 246Q535 198 519 152T469 70T387 11T271 -12Q215 -12 169 5T90 52T39 125T21 220Z"  />
<glyph unicode="&#xF3;" horiz-adv-x="556" d="M186 248Q186 212 192 175T210 107T241 58T288 38Q314 38 330 55T354 97T366 150T369 202Q369 235 365 273T349 344T319 398T271 420Q249 420 233 406T207 368T191 313T186 248ZM21 220Q21 264 36 308T83 389T164 447T282 470Q339 470 385 454T465 409T517 338T535 246Q535 198 519 152T469 70T387 11T271 -12Q215 -12 169 5T90 52T39 125T21 220ZM219 532L290 703L431 715V688L265 508L219 532Z"  />
<glyph unicode="&#xF4;" horiz-adv-x="556" d="M186 248Q186 212 192 175T210 107T241 58T288 38Q314 38 330 55T354 97T366 150T369 202Q369 235 365 273T349 344T319 398T271 420Q249 420 233 406T207 368T191 313T186 248ZM21 220Q21 264 36 308T83 389T164 447T282 470Q339 470 385 454T465 409T517 338T535 246Q535 198 519 152T469 70T387 11T271 -12Q215 -12 169 5T90 52T39 125T21 220ZM249 709H310L431 532L390 503L279 609L168 503L125 532L249 709Z"  />
<glyph unicode="&#xF5;" horiz-adv-x="556" d="M111 554Q106 597 114 630Q117 644 124 658T142 682T169 699T209 706Q236 706 254 695T288 671T316 646T346 635Q368 635 378 645T393 667Q397 681 397 699H449Q453 655 444 622Q436 593 414 570T346 546Q320 546 302 557T270 581T243 606T214 617Q191 617 180 607T165 585Q160 571 162 554H111ZM186 248Q186 212 192 175T210 107T241 58T288 38Q314 38 330 55T354 97T366 150T369 202Q369 235 365 273T349 344T319 398T271 420Q249 420 233 406T207 368T191 313T186 248ZM21 220Q21 264 36 308T83 389T164 447T282 470Q339 470 385 454T465 409T517 338T535 246Q535 198 519 152T469 70T387 11T271 -12Q215 -12 169 5T90 52T39 125T21 220Z"  />
<glyph unicode="&#xF6;" horiz-adv-x="556" d="M186 248Q186 212 192 175T210 107T241 58T288 38Q314 38 330 55T354 97T366 150T369 202Q369 235 365 273T349 344T319 398T271 420Q249 420 233 406T207 368T191 313T186 248ZM21 220Q21 264 36 308T83 389T164 447T282 470Q339 470 385 454T465 409T517 338T535 246Q535 198 519 152T469 70T387 11T271 -12Q215 -12 169 5T90 52T39 125T21 220ZM406 553Q371 553 350 572T328 626Q328 661 349 681T406 701Q441 701 462 681T483 626Q483 592 462 573T406 553ZM153 553Q118 553 97 572T75 626Q75 661 96 681T153 701Q188 701 209 681T231 626Q231 592 210 573T153 553Z"  />
<glyph unicode="&#xF7;" horiz-adv-x="520" d="M260 363Q229 363 208 385T186 439Q186 470 207 492T260 515Q292 515 314 493T336 439Q336 408 314 386T260 363ZM186 70Q186 102 207 125T260 148Q292 148 314 125T336 70Q336 39 314 18T260 -4Q229 -4 208 17T186 70ZM36 295H484V215H36V295Z"  />
<glyph unicode="&#xF8;" horiz-adv-x="556" d="M186 248Q186 228 187 207T193 165L341 363Q330 389 313 404T271 420Q249 420 233 406T207 368T191 313T186 248ZM368 232Q367 249 366 266T360 301L212 102Q224 73 243 56T288 38Q319 38 335 61T359 116T368 181T368 232ZM102 42Q64 73 43 118T21 220Q21 264 36 308T83 389T164 447T282 470Q349 470 403 447L434 488H499L449 421Q490 391 512 347T535 246Q535 198 519 152T469 70T387 11T271 -12Q236 -12 205 -5T146 14L113 -30H48L102 42Z"  />
<glyph unicode="&#xF9;" horiz-adv-x="574" d="M127 715L268 703L338 532L293 508L127 688V715ZM62 329Q62 361 58 379T32 397H10V433Q89 447 132 455T196 468Q220 473 224 475L226 472Q223 463 221 448Q219 435 218 416T217 367V170Q217 118 231 101T268 84Q283 84 296 88T319 99Q330 106 341 115V329Q341 361 337 379T311 397H291V435Q368 449 410 456T473 468Q497 472 503 475L505 472Q502 463 500 448Q498 435 497 416T496 367V103Q496 82 500 70T511 53T529 47T552 46H567L564 11Q509 6 469 3T400 -3Q367 -7 345 -9L344 -8Q345 1 347 11Q348 19 349 28T350 48V83Q332 56 309 35Q289 17 261 3T196 -12Q169 -12 145 -5T102 19T73 62T62 124V329Z"  />
<glyph unicode="&#xFA;" horiz-adv-x="574" d="M62 329Q62 361 58 379T32 397H10V433Q89 447 132 455T196 468Q220 473 224 475L226 472Q223 463 221 448Q219 435 218 416T217 367V170Q217 118 231 101T268 84Q283 84 296 88T319 99Q330 106 341 115V329Q341 361 337 379T311 397H291V435Q368 449 410 456T473 468Q497 472 503 475L505 472Q502 463 500 448Q498 435 497 416T496 367V103Q496 82 500 70T511 53T529 47T552 46H567L564 11Q509 6 469 3T400 -3Q367 -7 345 -9L344 -8Q345 1 347 11Q348 19 349 28T350 48V83Q332 56 309 35Q289 17 261 3T196 -12Q169 -12 145 -5T102 19T73 62T62 124V329ZM219 532L290 703L431 715V688L265 508L219 532Z"  />
<glyph unicode="&#xFB;" horiz-adv-x="574" d="M62 329Q62 361 58 379T32 397H10V433Q89 447 132 455T196 468Q220 473 224 475L226 472Q223 463 221 448Q219 435 218 416T217 367V170Q217 118 231 101T268 84Q283 84 296 88T319 99Q330 106 341 115V329Q341 361 337 379T311 397H291V435Q368 449 410 456T473 468Q497 472 503 475L505 472Q502 463 500 448Q498 435 497 416T496 367V103Q496 82 500 70T511 53T529 47T552 46H567L564 11Q509 6 469 3T400 -3Q367 -7 345 -9L344 -8Q345 1 347 11Q348 19 349 28T350 48V83Q332 56 309 35Q289 17 261 3T196 -12Q169 -12 145 -5T102 19T73 62T62 124V329ZM248 709H309L430 532L389 503L278 609L167 503L124 532L248 709Z"  />
<glyph unicode="&#xFC;" horiz-adv-x="574" d="M62 329Q62 361 58 379T32 397H10V433Q89 447 132 455T196 468Q220 473 224 475L226 472Q223 463 221 448Q219 435 218 416T217 367V170Q217 118 231 101T268 84Q283 84 296 88T319 99Q330 106 341 115V329Q341 361 337 379T311 397H291V435Q368 449 410 456T473 468Q497 472 503 475L505 472Q502 463 500 448Q498 435 497 416T496 367V103Q496 82 500 70T511 53T529 47T552 46H567L564 11Q509 6 469 3T400 -3Q367 -7 345 -9L344 -8Q345 1 347 11Q348 19 349 28T350 48V83Q332 56 309 35Q289 17 261 3T196 -12Q169 -12 145 -5T102 19T73 62T62 124V329ZM405 553Q370 553 349 572T327 626Q327 661 348 681T405 701Q440 701 461 681T482 626Q482 592 461 573T405 553ZM152 553Q117 553 96 572T74 626Q74 661 95 681T152 701Q187 701 208 681T230 626Q230 592 209 573T152 553Z"  />
<glyph unicode="&#xFD;" horiz-adv-x="477" d="M208 532L279 703L420 715V688L254 508L208 532ZM82 -124Q130 -124 161 -104T217 -30Q211 -15 202 9T182 56L43 367Q35 386 25 397T7 415Q-3 422 -12 425V458H30Q69 458 100 458T155 460Q181 461 202 462L206 458Q197 438 196 413T204 366L272 203Q277 190 282 175T291 145L379 353Q385 367 383 378T372 399T351 414T324 425V458H475L480 442Q475 437 471 429Q467 422 462 413T451 389L312 59Q296 22 274 -28T222 -125T154 -204T67 -237Q37 -237 22 -221T6 -181Q6 -171 9 -161T22 -143T45 -129T82 -124Z"  />
<glyph unicode="&#xFE;" horiz-adv-x="545" d="M62 599Q62 629 58 646T32 664H-2V699Q68 713 112 722T181 739Q210 747 224 753L227 750Q224 739 222 723Q220 709 219 688T217 638V481Q217 466 216 451T214 423Q213 408 212 395Q232 422 251 437T287 459T318 468T343 470Q379 470 412 455T470 412T509 345T524 260Q524 210 507 162T456 75T373 12T262 -12Q244 -12 217 -9V-110Q217 -121 216 -131T214 -150Q213 -160 212 -167H309L305 -199Q251 -206 198 -214Q153 -221 104 -229T18 -247V-210Q47 -191 54 -169T62 -111V599ZM217 96Q217 63 230 55T256 47Q285 47 305 61T339 100T358 154T364 215Q364 241 360 269T344 320T314 359T268 374Q260 374 249 373T217 367V96Z"  />
<glyph unicode="&#xFF;" horiz-adv-x="477" d="M388 553Q353 553 332 572T310 626Q310 661 331 681T388 701Q423 701 444 681T465 626Q465 592 444 573T388 553ZM135 553Q100 553 79 572T57 626Q57 661 78 681T135 701Q170 701 191 681T213 626Q213 592 192 573T135 553ZM82 -124Q130 -124 161 -104T217 -30Q211 -15 202 9T182 56L43 367Q35 386 25 397T7 415Q-3 422 -12 425V458H30Q69 458 100 458T155 460Q181 461 202 462L206 458Q197 438 196 413T204 366L272 203Q277 190 282 175T291 145L379 353Q385 367 383 378T372 399T351 414T324 425V458H475L480 442Q475 437 471 429Q467 422 462 413T451 389L312 59Q296 22 274 -28T222 -125T154 -204T67 -237Q37 -237 22 -221T6 -181Q6 -171 9 -161T22 -143T45 -129T82 -124Z"  />
<glyph unicode="&#x152;" horiz-adv-x="1010" d="M204 355Q204 297 216 241T255 141T321 69T415 42Q420 42 435 43T468 50T498 66T512 97V531Q512 545 512 561T505 592T474 616T405 626Q352 626 314 604T252 545T216 459T204 355ZM29 321Q29 387 53 451T125 566T242 648T403 679Q426 679 452 677T502 673T546 669T578 667H887Q902 667 916 667T942 669Q955 670 967 671L936 488H894Q896 527 891 550T872 586T838 603T786 607H686L673 594V371H830L838 429L883 435V235H828V311H686L673 298V116Q673 105 672 95T670 77Q669 68 668 60H797Q829 60 849 63T884 77T912 112T945 174H987L950 0H623Q613 0 580 -2T507 -6T428 -10T368 -12Q282 -12 219 17T113 94T50 201T29 321Z"  />
<glyph unicode="&#x153;" horiz-adv-x="808" d="M580 416Q562 416 549 406T527 377T513 336T507 285L643 302Q642 333 635 359Q629 380 616 398T580 416ZM186 248Q186 212 192 175T210 107T241 58T288 38Q315 38 330 55T354 98T365 153T368 206Q368 239 364 276T348 346T318 399T271 420Q249 420 233 406T207 368T191 313T186 248ZM21 220Q21 264 36 308T83 389T164 447T282 470Q336 470 377 451T448 398Q478 430 517 450T604 470Q639 470 671 460T729 428T769 371T786 285Q770 279 755 275Q742 271 730 267T709 262L518 233L510 220Q515 194 526 171T555 131T599 103T661 92Q686 92 706 97T742 109Q760 117 773 127L786 93Q768 63 740 40Q716 20 679 4T589 -12Q537 -12 501 11T440 72Q411 34 372 11T271 -12Q215 -12 169 5T90 52T39 125T21 220Z"  />
<glyph unicode="&#x160;" horiz-adv-x="524" d="M145 871L278 806H292L425 871L463 837L326 716H242L107 837L145 871ZM34 89Q34 92 35 99T39 121T49 158T68 213H110Q110 162 124 130T160 78T207 52T255 45Q273 45 290 50T322 64T345 88T354 123Q354 159 332 185T275 232T201 275T127 323T70 388T47 481Q47 523 62 559T107 622T183 664T289 679Q328 679 375 674T476 660L442 488H400Q399 517 394 541T375 584T340 612T284 622Q233 622 208 599T183 545Q183 508 205 483T262 438T336 397T410 350T467 284T490 189Q490 139 472 101T421 38T346 1T253 -12Q218 -12 181 -7T111 11T58 42T34 89Z"  />
<glyph unicode="&#x161;" horiz-adv-x="392" d="M23 59Q23 69 26 84T33 113Q37 129 43 146H78Q81 114 92 93T118 59T151 41T185 35Q208 35 222 47T236 82Q236 105 221 121T184 149T135 175T87 206T49 252T34 319Q34 356 48 384T86 432T141 460T208 470Q230 470 255 467T303 460Q329 456 354 450L329 331H293Q290 359 283 377T265 405T243 419T218 423Q198 423 183 412T168 375Q168 350 183 335T220 307T268 282T317 252T354 209T369 143Q369 102 354 73T313 25T253 -3T182 -12Q156 -12 128 -8T77 6T39 28T23 59ZM48 694L91 722L202 624L313 722L354 694L233 523H172L48 694Z"  />
<glyph unicode="&#x178;" horiz-adv-x="589" d="M360 795Q360 830 381 849T437 869Q472 869 493 850T515 795Q515 761 494 742T437 722Q402 722 381 741T360 795ZM97 795Q97 830 118 849T175 869Q210 869 231 850T253 795Q253 761 232 742T175 722Q140 722 119 741T97 795ZM153 37Q184 41 200 58T217 104V295L38 590Q29 604 21 613T5 627Q-3 632 -10 634V667H41Q80 667 110 667T162 669Q187 670 206 671L210 667Q206 655 204 643Q202 632 203 620T212 595L314 417Q321 405 328 390T341 362L468 572Q480 592 473 610T428 634V667H597L603 645Q596 641 588 634Q581 628 573 618T553 590L377 311H378V104Q378 92 377 82T375 64Q374 55 373 48L455 39L451 3L153 -3V37Z"  />
<glyph unicode="&#x17D;" horiz-adv-x="593" d="M182 871L315 806H329L462 871L500 837L363 716H279L144 837L182 871ZM14 32Q20 36 29 45Q36 53 46 66T69 103L325 558Q331 569 340 582T357 607H236Q211 607 189 603T148 586T111 550T79 488H37L64 667H485Q499 667 511 667T532 669Q542 670 549 671L553 635Q545 628 537 617Q530 608 521 595T503 564L250 112Q243 100 234 86T215 60H370Q396 60 417 65T457 86T494 127T531 194H573L531 0H84Q69 0 57 0T37 -2Q27 -3 20 -4L14 32Z"  />
<glyph unicode="&#x17E;" horiz-adv-x="459" d="M16 30Q21 35 27 42Q36 52 52 78L219 358Q226 369 236 382T255 407H175Q152 407 136 398T108 375T90 348T80 324H29L47 458H367Q381 458 392 458T412 460Q422 461 429 462L437 428Q431 422 426 415Q421 409 415 400T403 380L239 101Q232 90 222 76T202 51H269Q305 51 328 65T364 96Q379 116 386 142H439L412 0H92Q75 0 63 0T42 -2Q31 -3 24 -4L16 30ZM101 694L144 722L255 624L366 722L407 694L286 523H225L101 694Z"  />
<glyph unicode="&#x192;" horiz-adv-x="449" d="M8 343H146Q161 437 186 501T246 604T324 661T419 679Q466 679 498 667T530 626Q530 604 513 592T473 580Q455 580 442 586T416 599T392 613T365 619Q353 619 345 612T330 578T316 495T299 343H452L435 295H294Q293 290 293 286T292 276Q277 134 251 42T187 -103T104 -178T2 -199Q-45 -199 -77 -187T-109 -146Q-109 -124 -92 -112T-52 -100Q-34 -100 -21 -106T5 -119T29 -133T57 -139Q65 -139 71 -136T83 -120T94 -80T105 -8T118 108T137 276Q137 281 137 285T139 295H8V343Z"  />
<glyph unicode="&#x2C6;" horiz-adv-x="500" d="M220 709H281L402 532L361 503L250 609L139 503L96 532L220 709Z"  />
<glyph unicode="&#x2DC;" horiz-adv-x="500" d="M86 554Q81 597 89 630Q92 644 99 658T117 682T144 699T184 706Q211 706 229 695T263 671T291 646T321 635Q343 635 353 645T368 667Q372 681 372 699H424Q428 655 419 622Q411 593 389 570T321 546Q295 546 277 557T245 581T218 606T189 617Q166 617 155 607T140 585Q135 571 137 554H86Z"  />
<glyph unicode="&#x2013;" horiz-adv-x="508" d="M49 298H459V218H49V298Z"  />
<glyph unicode="&#x2014;" horiz-adv-x="898" d="M49 298H849V218H49V298Z"  />
<glyph unicode="&#x2018;" horiz-adv-x="215" d="M27 531Q27 563 39 592T70 647T113 696T161 741L191 704Q162 672 142 643T121 585Q121 562 137 541T193 500V447L90 392Q56 430 42 464T27 531Z"  />
<glyph unicode="&#x2019;" horiz-adv-x="214" d="M30 685L133 740Q167 702 181 668T196 601Q196 569 184 540T153 485T110 435T62 391L32 428Q61 460 81 489T102 547Q102 570 86 591T30 632V685Z"  />
<glyph unicode="&#x201A;" horiz-adv-x="235" d="M35 116L137 171Q171 133 186 99T201 32Q201 0 189 -28T158 -83T115 -133T67 -177L37 -141Q66 -109 86 -80T107 -22Q107 1 91 22T35 64V116Z"  />
<glyph unicode="&#x201C;" horiz-adv-x="421" d="M27 531Q27 563 39 592T70 647T113 696T161 741L191 704Q162 672 142 643T121 585Q121 562 137 541T193 500V447L90 392Q56 430 42 464T27 531ZM233 531Q233 563 245 592T276 647T319 696T367 741L397 704Q368 672 348 643T327 585Q327 562 343 541T399 500V447L297 392Q263 430 248 464T233 531Z"  />
<glyph unicode="&#x201D;" horiz-adv-x="421" d="M237 685L339 740Q373 702 387 668T402 601Q402 569 390 540T360 485T317 435T269 391L239 428Q268 460 288 489T308 547Q308 570 293 591T237 632V685ZM30 685L133 740Q167 702 181 668T196 601Q196 569 184 540T153 485T110 435T62 391L32 428Q61 460 81 489T102 547Q102 570 86 591T30 632V685Z"  />
<glyph unicode="&#x201E;" horiz-adv-x="442" d="M242 116L344 171Q378 133 393 99T408 32Q408 0 396 -28T365 -83T322 -133T274 -177L244 -141Q273 -109 293 -80T314 -22Q314 1 298 22T242 64V116ZM35 116L137 171Q171 133 186 99T201 32Q201 0 189 -28T158 -83T115 -133T67 -177L37 -141Q66 -109 86 -80T107 -22Q107 1 91 22T35 64V116Z"  />
<glyph unicode="&#x2020;" horiz-adv-x="528" d="M81 369Q67 369 57 374T41 386T33 402T30 419Q30 426 32 435T41 452T57 465T81 470Q90 470 106 467T142 458T185 448T233 440Q231 466 226 491T216 538T206 577T202 605Q202 623 208 634T224 653T244 664T264 667Q273 667 283 664T303 654T318 635T325 605Q325 594 321 577T311 538T300 491T293 440Q343 446 385 458T447 470Q475 470 486 452T498 419Q498 404 487 387T447 369Q427 369 385 381T293 399V114Q293 84 298 55T309 1T320 -45T325 -77Q325 -95 319 -106T303 -125T284 -136T264 -139Q255 -139 245 -136T225 -126T209 -107T202 -77Q202 -65 207 -45T218 0T230 55T235 114V399Q209 396 186 391T142 381T106 373T81 369Z"  />
<glyph unicode="&#x2021;" horiz-adv-x="528" d="M81 369Q67 369 57 374T41 386T33 402T30 419Q30 426 32 435T41 452T57 465T81 470Q90 470 106 467T142 458T185 448T233 440Q231 466 226 491T216 538T207 577T202 605Q202 623 208 634T224 653T244 664T264 667Q273 667 283 664T303 654T318 635T325 605Q325 594 321 577T311 538T300 491T293 440Q343 446 385 458T447 470Q475 470 486 452T498 419Q498 404 487 387T447 369Q427 369 385 381T293 399V142Q343 149 385 161T447 173Q475 173 486 155T498 122Q498 107 487 90T447 72Q437 72 421 75T385 84T342 93T293 101Q294 74 299 47T310 -4T320 -47T325 -77Q325 -95 319 -106T303 -125T284 -136T264 -139Q255 -139 245 -136T225 -126T209 -107T202 -77Q202 -66 207 -47T218 -4T229 47T235 101Q209 98 186 94T142 84T106 76T81 72Q67 72 57 77T41 89T33 105T30 122Q30 129 32 138T41 155T57 168T81 173Q100 173 142 161T235 142V399Q209 396 186 391T142 381T106 373T81 369Z"  />
<glyph unicode="&#x2022;" horiz-adv-x="416" d="M208 96Q174 96 145 108T94 141T60 192T47 256Q47 290 59 319T93 370T144 404T208 416Q242 416 271 404T321 371T355 320T368 256Q368 222 356 193T322 142T271 108T208 96Z"  />
<glyph unicode="&#x2026;" horiz-adv-x="817" d="M605 75Q605 93 612 109T631 138T658 157T692 164Q729 164 755 138T781 75Q781 57 774 42T755 14T727 -5T692 -12Q674 -12 659 -5T631 14T612 41T605 75ZM321 75Q321 93 328 109T347 138T374 157T408 164Q445 164 471 138T497 75Q497 57 490 42T471 14T443 -5T408 -12Q390 -12 375 -5T347 14T328 41T321 75ZM37 75Q37 112 62 138T124 164Q161 164 186 138T212 75Q212 57 205 42T186 14T158 -5T124 -12Q106 -12 90 -5T63 14T44 41T37 75Z"  />
<glyph unicode="&#x2030;" horiz-adv-x="1164" d="M130 513Q130 474 151 450T203 426Q235 426 256 450T278 513Q278 550 257 573T203 597Q173 597 152 574T130 513ZM32 512Q32 545 45 574T82 626T137 660T204 673Q239 673 270 661T325 626T362 575T376 512Q376 478 362 449T325 397T270 362T203 349Q168 349 137 362T82 397T46 448T32 512ZM892 153Q892 114 913 90T965 66Q997 66 1018 90T1040 153Q1040 190 1019 213T965 237Q935 237 914 214T892 153ZM794 152Q794 185 807 214T844 266T899 300T966 313Q1001 313 1032 301T1087 266T1124 215T1138 152Q1138 118 1124 89T1087 37T1032 2T965 -11Q930 -11 899 2T844 37T808 88T794 152ZM508 153Q508 114 529 90T581 66Q613 66 634 90T656 153Q656 190 635 213T581 237Q551 237 530 214T508 153ZM410 152Q410 185 423 214T460 266T515 300T582 313Q617 313 648 301T703 266T740 215T754 152Q754 118 740 89T703 37T648 2T581 -11Q546 -11 515 2T460 37T424 88T410 152ZM602 682L649 651L197 0H129L602 682Z"  />
<glyph unicode="&#x2039;" horiz-adv-x="305" d="M21 256Q29 262 37 269T66 297T126 358T236 470L276 460Q237 388 214 348T179 286Q165 261 161 254Q165 247 179 222Q191 201 214 161T276 50L236 40Q170 108 131 147T71 208T40 237T21 252V256Z"  />
<glyph unicode="&#x203A;" horiz-adv-x="304" d="M29 50Q68 120 90 160T125 222Q139 247 144 254Q139 261 125 286Q113 307 91 347T29 460L69 470Q139 398 178 358T238 297T267 269T283 256V252Q274 246 265 238T234 208T174 148T69 40L29 50Z"  />
<glyph unicode="&#x20AC;" horiz-adv-x="555" d="M31 246H81V267Q81 277 81 286T83 306H31V354H92Q103 398 126 438T182 508T261 555T363 573Q393 573 422 568T475 556Q502 549 527 540L491 422H455Q453 472 428 499T369 527Q340 527 318 514T281 478T256 423T243 354H472L458 306H241V300Q241 269 245 246H439L425 198H255Q274 138 313 103T408 67Q425 67 442 70T475 79Q493 84 509 92L525 59Q505 39 479 23Q456 9 424 -1T349 -12Q292 -12 247 4T170 49T117 116T88 198H31V246Z"  />
<glyph unicode="&#x2122;" horiz-adv-x="783" d="M337 427Q350 428 357 433T366 450L374 620Q375 634 370 639T349 650V667H385Q402 667 419 667T450 668Q466 668 480 669L483 667Q485 662 487 656Q489 651 491 644T496 630L526 546L534 518L579 639L589 667H601Q629 667 648 667T681 668Q696 668 705 669L707 667Q703 661 699 654Q696 647 694 638T694 616L703 453V436Q703 432 702 428L746 427L745 399L582 397V427Q602 428 612 435T621 459L614 623L529 398L493 402L413 624L406 450Q406 443 404 435Q403 431 403 428L449 427L447 399L337 397V427ZM96 427Q114 428 124 435T135 463V636H105Q85 636 74 625T49 578H22L35 669Q40 668 47 668Q53 667 60 667T77 667H287Q295 667 302 667T317 668Q325 668 332 669L319 578H293Q293 614 283 625T249 636H215V453Q215 448 215 444T214 437Q213 433 213 431L263 427L262 399L96 397V427Z"  />

</font>
</defs>
</svg>
