<?xml  version="1.0" encoding="UTF-8"?>
<!DOCTYPE svg PUBLIC "-//W3C//DTD SVG 1.0//EN" "http://www.w3.org/TR/2001/REC-SVG-20010904/DTD/svg10.dtd" >
<svg xmlns="http://www.w3.org/2000/svg" >
<metadata>
<version>1.0</version>
<id><![CDATA[Calluna W01 Regular]]></id>
<vendor>Monotype Imaging Inc.</vendor>
<credits>
<name>Fonts.com WebFonts</name>
<URL>http://webfonts.fonts.com</URL>
<role>Home of the Web fonts</role>
</credits>
<license>
<URL>http://webfonts.fonts.com/Legal</URL>
</license>
<copyright><![CDATA[© 2009 exljbris Font Foundry. All rights reserved.]]></copyright>
<trademark><![CDATA[Calluna is a trademark of exljbris Font Foundry.]]></trademark>
<licensee>
<name></name>
</licensee>
</metadata>
<defs >
<font horiz-adv-x="515" id="bcecb9f0-6953-4184-8b68-7f62b705f975">
<font-face font-family="" panose-1="0 0 5 0 0 0 0 0 0 0" ascent="746" descent="-254" units-per-em="1000" alphabetic="0">
</font-face>
<missing-glyph horiz-adv-x="0" />

<glyph unicode="&#xA;" />
<glyph unicode="&#xD;" horiz-adv-x="0" />
<glyph unicode=" " horiz-adv-x="225" />
<glyph unicode="!" horiz-adv-x="276" d="M75 48Q75 73 92 90T135 108Q160 108 177 91T195 48Q195 23 178 6T135 -12Q110 -12 93 5T75 48ZM80 656Q113 665 135 671T171 683Q187 688 196 692L199 689Q196 678 193 663Q190 649 187 630T182 581L149 176H124L80 656Z"  />
<glyph unicode="&quot;" horiz-adv-x="342" d="M218 667H299V630L256 431H218V667ZM62 667H143V630L100 431H62V667Z"  />
<glyph unicode="#" horiz-adv-x="633" d="M212 175H374L405 327H243L212 175ZM365 130H203L159 -89H110L155 130H29L37 175H164L195 327H67L75 372H204L247 578H295L252 372H414L457 578H505L462 372H601L593 327H453L422 175H563L555 130H413L369 -89H320L365 130Z"  />
<glyph unicode="$" horiz-adv-x="440" d="M122 440Q122 405 145 382T202 340L210 522Q172 517 147 497T122 440ZM326 113Q326 151 301 175T238 219L230 29Q249 31 266 37T297 53T318 78T326 113ZM36 85Q36 96 41 111T57 165H88Q88 130 96 106T119 66T151 42T190 30L198 239Q170 253 143 268T93 302T58 347T44 408Q44 465 85 507T211 558L215 646H255L251 560Q293 559 333 553T393 543L365 403H334Q339 449 319 483T250 523L242 321Q271 307 300 292T352 256T390 210T405 146Q405 111 391 84T353 37T297 8T228 -6L225 -89H185L188 -6Q161 -5 134 1T85 18T50 45T36 85Z"  />
<glyph unicode="%" horiz-adv-x="717" d="M440 137Q440 116 447 98T468 65T499 43T537 34Q557 34 575 42T606 65T626 97T634 137Q634 158 627 176T606 209T575 231T537 240Q517 240 499 232T468 209T448 177T440 137ZM386 137Q386 168 398 195T430 243T478 275T537 287Q568 287 595 275T643 243T676 196T688 137Q688 106 676 79T644 31T596 -1T537 -13Q506 -13 479 -1T431 31T398 78T386 137ZM567 672L606 645L157 0H100L567 672ZM86 507Q86 486 93 468T114 435T145 413T183 404Q203 404 221 412T252 435T272 467T280 507Q280 528 273 546T252 579T221 601T183 610Q163 610 145 602T114 579T94 547T86 507ZM32 507Q32 538 44 565T76 613T124 645T183 657Q214 657 241 645T289 613T322 566T334 507Q334 476 322 449T290 401T242 369T183 357Q152 357 125 369T77 401T44 448T32 507Z"  />
<glyph unicode="&amp;" horiz-adv-x="658" d="M213 552Q213 517 227 476T266 390Q301 419 324 454T348 538Q348 554 345 572T334 607T311 633T276 643Q247 643 230 617T213 552ZM266 36Q303 36 336 48T399 83Q343 133 294 193T207 314Q170 287 147 257T123 187Q123 149 134 121T164 74T210 46T266 36ZM37 154Q37 187 50 214T84 263T132 306T189 345Q160 396 144 443T128 528Q128 555 137 582T165 630T216 665T291 679Q327 679 353 669T398 642T425 604T434 558Q434 525 421 498T387 446T339 401T284 359Q319 302 363 245T456 138Q495 186 517 245T540 361Q540 391 524 406T475 425V450H618L623 435Q611 412 605 391T588 337Q571 284 547 224T482 111Q530 62 571 28T641 -21L627 -42Q579 -34 530 -9T431 56Q394 25 347 7T239 -12Q203 -12 167 -2T102 28T55 79T37 154Z"  />
<glyph unicode="&apos;" horiz-adv-x="186" d="M62 667H141V630L104 431H62V667Z"  />
<glyph unicode="(" horiz-adv-x="282" d="M45 270Q45 369 69 446T124 577Q159 639 204 686L238 674Q205 624 179 562Q156 508 138 434T120 270Q120 171 142 93T190 -43Q221 -109 261 -160L229 -175Q177 -125 137 -58Q120 -30 104 5T74 82T53 170T45 270Z"  />
<glyph unicode=")" horiz-adv-x="282" d="M21 -160Q60 -109 91 -43Q117 14 139 92T162 270Q162 360 144 434T103 562Q77 624 44 674L78 686Q122 639 157 577Q187 523 212 446T237 270Q237 217 229 170T208 82T179 6T145 -58Q105 -125 53 -175L21 -160Z"  />
<glyph unicode="*" horiz-adv-x="493" d="M279 503L282 509Q285 515 292 522L378 606Q384 611 390 611T403 607T414 597T423 586Q429 575 430 558T419 537L302 505Q291 502 286 502Q282 502 279 503ZM114 362Q108 357 102 357T89 361T78 371T69 382Q66 387 64 394T61 409T63 423T73 431L190 463Q195 465 199 465T206 465H213L210 459Q206 451 200 446L114 362ZM292 446Q286 451 282 459L279 465H286Q289 465 293 465T302 463L418 431Q432 427 431 410T423 382Q420 377 415 371T403 361T390 357T378 361L292 446ZM74 537Q60 541 61 558T69 586Q72 591 77 597T89 607T102 611T114 607L200 522Q207 515 210 509L213 503Q210 502 206 502Q199 502 190 505L74 537ZM246 280Q240 280 233 281T219 286T208 295T206 308L236 425Q237 430 238 433T242 440Q244 444 246 446Q248 444 250 440Q253 434 256 425L286 308Q288 301 284 296T274 287T260 282T246 280ZM206 660Q204 667 208 672T218 681T232 686T246 688Q252 688 259 687T273 682T284 673T286 660L256 543Q254 538 253 535T250 528Q248 524 246 522Q244 524 242 528Q240 531 239 534T236 543L206 660Z"  />
<glyph unicode="+" horiz-adv-x="520" d="M36 278H232V488H291V278H484V223H291V0H232V223H36V278Z"  />
<glyph unicode="&#x2c;" horiz-adv-x="231" d="M55 78L132 119Q177 72 177 7Q177 -25 169 -50T148 -96T116 -135T76 -171L51 -145Q77 -122 98 -97T120 -39Q120 6 55 43V78Z"  />
<glyph unicode="-" horiz-adv-x="360" d="M62 283H298V217H62V283Z"  />
<glyph unicode="." horiz-adv-x="234" d="M57 48Q57 73 74 90T117 108Q142 108 159 91T177 48Q177 23 160 6T117 -12Q92 -12 75 5T57 48Z"  />
<glyph unicode="/" horiz-adv-x="352" d="M307 667H371L39 -196H-26L307 667Z"  />
<glyph unicode="0" horiz-adv-x="565" d="M58 228Q58 276 72 321T116 402T188 460T290 482Q344 482 384 462T452 410T493 335T507 248Q507 200 493 154T449 71T377 11T275 -12Q221 -12 181 9T113 63T72 140T58 228ZM282 35Q315 35 341 52T385 98T412 163T422 239Q422 275 413 310T385 373T342 418T283 435Q250 435 224 418T180 373T153 310T143 237Q143 199 152 163T180 98T223 52T282 35Z"  />
<glyph unicode="1" horiz-adv-x="369" d="M58 29Q106 29 124 43T142 93V377Q142 411 124 423T53 436V470H315L311 438L222 427V93Q222 82 221 72T219 55Q218 46 217 40L320 30L316 0L58 -5V29Z"  />
<glyph unicode="2" horiz-adv-x="469" d="M51 31Q79 56 117 90T189 164T247 245T271 331Q271 355 264 371T245 398T217 413T184 418Q155 418 124 406T69 376L50 398Q69 422 95 440Q117 456 148 469T221 482Q246 482 271 475T317 452T349 413T362 357Q362 325 346 291T302 221T236 147T152 71H297Q323 71 340 78T368 97T385 124T398 156H427L396 0H59L51 31Z"  />
<glyph unicode="3" horiz-adv-x="402" d="M28 -158Q65 -158 105 -150T180 -120T237 -64T260 24Q260 58 247 80T212 116T164 135T112 140Q105 140 100 140T91 139Q87 138 83 138V185Q110 188 137 200T187 232T224 279T239 337Q239 374 219 399T156 425Q133 425 113 417T77 400Q59 389 42 376L23 398Q42 422 67 440Q88 456 118 469T187 482Q217 482 243 474T289 449T319 410T330 358Q330 328 315 301T278 251T229 211T178 184Q259 176 305 137T352 39Q352 -23 323 -67T250 -140T154 -181T55 -194H42Q38 -194 34 -193L28 -158Z"  />
<glyph unicode="4" horiz-adv-x="511" d="M289 93V295Q289 310 290 328T293 360L94 93H289ZM22 64L323 468L376 484L378 481Q376 469 374 453Q372 439 371 419T370 372V93H480L468 34H370V-131Q370 -146 369 -156T367 -173Q366 -181 365 -186L288 -194L284 -191Q285 -185 286 -177Q287 -170 288 -160T289 -136V34H29L22 64Z"  />
<glyph unicode="5" horiz-adv-x="410" d="M42 -158Q93 -158 137 -145T212 -108T262 -53T280 17Q280 45 270 67T244 107T206 137T163 158Q112 178 47 186L62 470H273Q303 470 323 473Q334 474 343 476L329 399H99L91 257Q167 245 228 217Q254 205 278 188T322 149T354 97T366 32Q366 -16 342 -57T278 -128T186 -176T77 -194H56Q52 -194 48 -193L42 -158Z"  />
<glyph unicode="6" horiz-adv-x="514" d="M267 -12Q214 -12 174 11T108 75T68 168T55 279Q55 352 76 423T142 552T254 644T412 679L418 644Q345 639 294 606T209 523T161 412T146 290Q146 238 155 190T182 104T225 45T281 22Q307 22 327 36T360 75T381 128T388 188Q388 226 379 265T349 332T297 373T220 368L213 400Q256 425 306 425Q349 425 381 408T434 363T465 297T475 219Q475 177 462 136T423 62T357 9T267 -12Z"  />
<glyph unicode="7" horiz-adv-x="474" d="M133 -92Q143 -76 158 -53T193 8T241 100T304 233L377 394Q363 392 345 391T312 390H160Q135 390 119 389T92 382T74 363T57 326H28L57 470H387Q401 470 413 470T434 472Q444 473 451 474L456 447Q446 434 437 420Q429 408 421 394T407 366L196 -109Q187 -130 180 -146T167 -172T153 -188T134 -194Q114 -194 107 -184T99 -161Q99 -146 106 -134T133 -92Z"  />
<glyph unicode="8" horiz-adv-x="506" d="M160 549Q160 526 169 506T193 467T229 429T272 392Q307 418 328 452T350 533Q350 588 322 616T258 644Q241 644 224 638T192 619T169 589T160 549ZM135 167Q135 132 144 106T170 61T207 33T251 23Q272 23 293 30T331 52T360 88T371 136Q371 165 358 190T324 239T275 284T220 329Q182 300 159 262T135 167ZM54 155Q54 191 65 219T96 271T141 314T193 350Q170 369 149 389T113 431T88 476T78 527Q78 559 91 587T130 635T189 667T265 679Q302 679 333 669T385 641T419 597T431 540Q431 507 419 482T388 437T346 401T299 370Q327 347 354 324T404 276T439 223T453 163Q453 128 437 97T394 41T328 3T246 -12Q212 -12 178 -3T116 27T71 79T54 155Z"  />
<glyph unicode="9" horiz-adv-x="527" d="M113 -159Q186 -155 237 -123T322 -43T370 65T385 185Q385 236 376 283T349 367T306 426T250 448Q226 448 207 434T175 395T155 342T148 282Q148 247 157 209T185 142T236 101T311 107L318 75Q275 50 225 50Q183 50 153 66T102 111T71 175T61 251Q61 293 74 334T113 408T176 461T264 482Q317 482 357 459T423 396T463 305T476 196Q476 124 454 54T388 -71T277 -160T119 -194L113 -159Z"  />
<glyph unicode=":" horiz-adv-x="274" d="M77 48Q77 73 94 90T137 108Q162 108 179 91T197 48Q197 23 180 6T137 -12Q112 -12 95 5T77 48ZM77 390Q77 415 94 432T137 450Q162 450 179 433T197 390Q197 365 180 348T137 330Q112 330 95 347T77 390Z"  />
<glyph unicode=";" horiz-adv-x="271" d="M75 390Q75 415 92 432T135 450Q160 450 177 433T195 390Q195 365 178 348T135 330Q110 330 93 347T75 390ZM77 78L154 119Q199 72 199 7Q199 -25 191 -50T170 -96T138 -135T98 -171L73 -145Q99 -122 120 -97T142 -39Q142 6 77 43V78Z"  />
<glyph unicode="&lt;" horiz-adv-x="520" d="M28 272L454 501L469 443L100 249L469 45L454 -12L28 226V272Z"  />
<glyph unicode="=" horiz-adv-x="520" d="M36 183H484V128H36V183ZM36 373H484V318H36V373Z"  />
<glyph unicode="&gt;" horiz-adv-x="520" d="M419 249L50 443L65 501L491 272V226L65 -12L50 45L419 249Z"  />
<glyph unicode="?" horiz-adv-x="351" d="M77 48Q77 73 94 90T137 108Q162 108 179 91T197 48Q197 23 180 6T137 -12Q112 -12 95 5T77 48ZM121 176Q118 190 117 202T116 226Q116 277 135 314T177 380T220 431T239 476Q239 489 231 501T209 526T178 549T143 570Q101 593 48 613L64 701Q138 674 197 641Q222 627 246 611T289 576T319 539T331 498Q331 477 318 457T283 416T239 371T194 319T160 255T146 176H121Z"  />
<glyph unicode="@" horiz-adv-x="818" d="M35 184Q35 266 67 340T153 471T281 561T439 595Q510 595 571 571T678 503T748 400T774 270Q774 227 763 183T728 102T665 37T570 2L465 -13L463 -9Q465 0 467 9Q469 17 470 26T471 45V84Q448 40 413 14T336 -12Q310 -12 286 -1T244 33T214 88T203 165Q203 226 224 278T283 370T369 431T473 454Q481 454 493 454T517 452T541 449T562 445Q558 431 555 416Q553 403 551 388T549 357V89Q549 42 585 42Q600 42 620 50T660 80T692 140T705 237Q705 303 687 360T633 459T545 525T425 549Q353 549 294 522T193 447T129 336T106 198Q106 124 128 66T186 -34T269 -99T368 -126L358 -166Q289 -163 230 -135T127 -59T60 50T35 184ZM290 189Q290 151 297 125T315 82T340 59T369 52Q397 52 422 68T467 105V414Q417 408 378 382Q361 371 346 355T318 315T298 260T290 189Z"  />
<glyph unicode="A" horiz-adv-x="623" d="M310 500Q304 515 299 532T290 561L179 272H396L310 500ZM-13 29Q19 32 33 45T54 74L291 664L332 673L554 105Q564 79 573 65T590 43T608 32T630 27L626 0H583Q569 0 544 0T493 -2Q464 -3 431 -3V31Q452 32 466 39T473 70L412 230H173L160 220L91 40L176 28L172 0H-13V29Z"  />
<glyph unicode="B" horiz-adv-x="603" d="M317 363Q336 364 353 377T383 409T405 453T413 502Q413 524 406 546T381 587T337 616T271 628H224L214 618V363H317ZM273 39Q330 39 366 50T423 81T451 124T459 174Q459 213 447 239T414 281T370 307T323 319T281 323T251 324H224L214 314V94Q214 83 213 73T211 55Q210 46 209 39H273ZM54 29Q88 33 107 48T126 91V569Q126 587 124 598T114 618T90 631T44 642V667H278Q341 667 385 656T457 624T498 578T511 521Q511 493 501 469T475 424T437 387T392 357Q410 353 438 344T494 315T540 266T560 189Q560 149 543 115T492 55T407 15T289 0H199Q180 0 156 0T108 -2Q82 -3 54 -3V29Z"  />
<glyph unicode="C" horiz-adv-x="679" d="M45 326Q45 402 72 467T147 579T263 652T411 679Q439 679 469 676T527 670T581 662T627 656L597 504H563Q563 543 548 569T509 611T455 634T394 641Q336 641 289 619T209 559T157 468T138 355Q138 287 160 232T221 137T313 76T427 54Q474 54 511 64T574 89Q605 105 628 125L642 104Q618 72 583 46Q552 24 506 6T393 -12Q326 -12 264 10T153 76T75 182T45 326Z"  />
<glyph unicode="D" horiz-adv-x="746" d="M280 39Q368 39 429 62T528 125T583 219T600 335Q600 401 582 455T527 548T438 607T314 628H224L214 618V95Q214 84 213 74T211 56Q210 47 209 39H280ZM54 29Q88 33 107 48T126 91V569Q126 587 124 598T114 618T90 631T44 642V667H318Q391 667 459 652T581 601T666 506T699 358Q699 273 669 207T583 94T451 24T280 0H199Q180 0 156 0T108 -2Q82 -3 54 -3V29Z"  />
<glyph unicode="E" horiz-adv-x="585" d="M54 29Q88 33 107 48T126 91V569Q126 587 124 598T114 618T90 631T44 642V667H456Q471 667 484 667T507 669Q518 670 528 671L497 504H463Q465 543 460 567T441 604T407 623T355 628H224L214 618V358H399L407 415L444 421V245H397V319H224L214 309V95Q214 84 213 74T211 56Q210 47 209 39H366Q398 39 418 43T453 61T481 99T514 163H548L511 0H199Q180 0 156 0T108 -2Q82 -3 54 -3V29Z"  />
<glyph unicode="F" horiz-adv-x="531" d="M54 29Q88 33 107 50T126 94V569Q126 587 124 598T114 618T90 631T44 642V667H446Q461 667 474 667T497 669Q508 670 518 671L487 504H453Q455 543 450 567T431 604T397 623T345 628H224L214 618V353H392L400 410L437 416V240H390V314H224L214 304V94Q214 83 213 74T211 56Q210 47 209 40L319 31L315 3L54 -3V29Z"  />
<glyph unicode="G" horiz-adv-x="712" d="M46 320Q46 387 68 451T135 566T251 648T417 679Q449 679 483 676T548 669T604 662T641 657L611 504H577Q577 545 562 571T523 613T470 635T410 641Q344 641 295 617T212 551T161 456T144 343Q144 275 166 218T228 120T325 55T451 31Q497 31 551 43V188Q551 206 549 218T538 238T511 251T459 261V286H672L677 272Q666 265 657 253Q649 242 644 224T638 177V14Q589 6 528 -3T411 -12Q336 -12 270 9T154 73T75 177T46 320Z"  />
<glyph unicode="H" horiz-adv-x="801" d="M53 29Q87 33 106 50T125 94V569Q125 587 124 598T116 618T94 631T51 642V667H129Q163 667 184 667T219 669Q234 670 241 671L246 667Q236 656 229 638Q223 623 218 600T213 546V360H585L595 370V569Q595 587 594 598T586 618T564 631T521 642V667H599Q633 667 654 667T689 668Q704 669 711 670L716 666Q706 655 699 637Q693 622 688 600T683 546V94Q683 83 682 74T680 56Q679 47 678 40L768 31L764 3L523 -3V29Q556 33 575 49T595 91V318H223L213 308V94Q213 83 212 74T210 56Q209 47 208 40L298 31L294 3L53 -3V29Z"  />
<glyph unicode="I" horiz-adv-x="331" d="M53 29Q86 33 105 49T125 91V569Q125 587 124 598T116 618T94 631T51 642V667H129Q163 667 184 667T219 669Q234 670 241 671L246 667Q236 656 229 638Q223 623 218 600T213 546V91Q213 80 212 71T210 55Q209 47 208 40L303 31L299 3L53 -3V29Z"  />
<glyph unicode="J" horiz-adv-x="307" d="M116 569Q116 587 115 598T107 618T85 631T42 642V667H120Q154 667 175 667T210 669Q225 670 232 671L237 667Q227 656 220 638Q214 623 209 600T204 546V102Q204 -24 156 -93T22 -163L10 -139Q30 -136 49 -121T83 -80T107 -22T116 50V569Z"  />
<glyph unicode="K" horiz-adv-x="643" d="M53 29Q86 33 105 49T125 91V569Q125 587 124 598T116 618T94 631T51 642V667H129Q163 667 184 667T219 669Q234 670 241 671L246 667Q236 656 229 638Q223 623 218 600T213 546V370H232Q237 373 243 377Q248 381 254 386T266 397L461 591Q468 598 471 606T473 621T461 634T433 642V667H620L625 653Q609 649 589 638Q572 629 548 612T496 566L307 378V368L549 90Q566 70 577 60T596 44T613 36T634 33L645 32L641 0H494L491 3Q488 12 478 27Q470 40 455 60T416 109L229 326H213V91Q213 80 212 71T210 55Q209 47 208 40L298 31L294 3L53 -3V29Z"  />
<glyph unicode="L" horiz-adv-x="564" d="M56 29Q123 36 123 91V569Q123 587 122 598T114 618T92 631T49 642V667H127Q161 667 182 667T217 669Q232 670 239 671L244 667Q234 656 227 638Q221 623 216 600T211 546V94Q211 83 210 73T208 55Q207 46 206 39H373Q405 39 426 45T462 68T492 113T525 183H559L518 0H196Q177 0 153 0T107 -2Q81 -3 56 -3V29Z"  />
<glyph unicode="M" horiz-adv-x="900" d="M44 29Q113 37 116 91L135 569Q136 587 134 598T124 618T100 631T54 642V667H134Q164 667 184 667T219 669Q234 670 244 671L248 667Q252 652 256 636Q260 622 265 606T277 575L430 183Q435 170 440 155T449 126L643 598Q646 606 649 617T657 640Q661 653 665 667H691Q724 667 745 667T778 669Q792 670 799 671L804 667Q794 654 787 636Q781 620 776 597T772 541L791 88Q791 76 791 67T790 51Q789 43 788 37L876 31L872 3L633 -3V29Q666 33 686 47T705 88L683 581L443 0L412 12L181 580Q181 574 180 568Q179 563 179 556T178 541L160 91Q159 80 159 71T156 53Q154 44 153 37L245 31L241 3L44 -3V29Z"  />
<glyph unicode="N" horiz-adv-x="766" d="M55 29Q89 33 108 48T127 91V541Q127 567 124 584T111 613T86 630T45 642V667H75Q93 667 111 667T143 669Q160 670 175 671Q179 664 184 656Q189 649 195 640T212 619L574 201Q584 189 595 175T614 148V564Q614 580 613 593T604 615T579 630T532 639V667H722L727 653Q707 646 692 633Q679 622 669 602T658 551V-5H632L207 497Q198 508 189 521T171 545V91Q171 80 170 71T168 53Q167 44 166 37L256 31L252 3L55 -3V29Z"  />
<glyph unicode="O" horiz-adv-x="795" d="M45 325Q45 392 69 456T139 569T252 649T408 679Q486 679 549 654T657 586T726 484T750 357Q750 285 724 219T649 101T534 19T383 -12Q306 -12 244 15T137 88T69 195T45 325ZM144 351Q144 295 161 238T212 134T293 58T403 28Q462 28 508 55T586 125T634 223T651 332Q651 388 634 443T583 541T502 612T391 639Q332 639 287 615T209 550T161 458T144 351Z"  />
<glyph unicode="P" horiz-adv-x="562" d="M54 29Q87 33 106 49T126 91V569Q126 587 124 598T114 618T90 631T44 642V667H292Q335 667 378 659T457 630T515 574T537 483Q537 423 512 382T448 317T364 285T278 280V308Q321 309 352 322T402 356T430 405T439 462Q439 507 423 538T379 590T315 619T239 628H224L214 618V91Q214 80 213 71T211 55Q210 47 209 40L304 31L300 3L54 -3V29Z"  />
<glyph unicode="Q" horiz-adv-x="795" d="M144 351Q144 295 161 238T212 134T293 58T403 28Q462 28 508 55T586 125T634 223T651 332Q651 388 634 443T583 541T502 612T391 639Q332 639 287 615T209 550T161 458T144 351ZM308 -4Q247 8 199 38T116 113T64 211T45 325Q45 392 69 456T139 569T252 649T408 679Q486 679 549 654T657 586T726 484T750 357Q750 298 732 242T681 139T599 57T490 3Q515 -18 541 -48T597 -107T663 -156T745 -177Q753 -177 762 -176T783 -173V-199Q768 -208 750 -214Q735 -219 716 -223T675 -228Q632 -228 596 -210T531 -167T481 -115T444 -71Q423 -46 408 -34T378 -17T348 -11T308 -4Z"  />
<glyph unicode="R" horiz-adv-x="628" d="M298 335Q320 335 343 344T385 371T415 416T427 480Q427 508 419 535T391 582T339 615T261 628H224L214 618V335H298ZM54 29Q87 33 106 49T126 91V569Q126 587 124 598T114 618T90 631T44 642V667H276Q343 667 390 654T467 619T510 568T524 506Q524 471 510 442T476 389T433 349T392 323V310L536 99Q552 76 564 63T587 44T606 36T625 33L636 32L632 0H487L483 3L467 35Q459 50 448 70T421 113L297 296H224L214 286V91Q214 80 213 71T211 55Q210 47 209 40L299 31L295 3L54 -3V29Z"  />
<glyph unicode="S" horiz-adv-x="506" d="M44 91Q44 97 45 103T48 118T55 142T67 180H101Q101 134 114 105T148 58T194 33T246 26Q270 26 293 31T334 49T362 82T373 131Q373 174 350 205T292 260T217 307T141 356T83 419T60 505Q60 542 74 574T116 629T185 665T283 679Q310 679 336 677T384 671T423 664T448 660L417 504H383Q387 532 382 557T362 600T325 630T271 641Q246 641 224 635T184 617T157 584T147 537Q147 493 170 464T228 411T303 366T379 318T437 255T460 164Q460 119 442 86T394 31T323 -1T237 -12Q204 -12 170 -6T108 12T62 44T44 91Z"  />
<glyph unicode="T" horiz-adv-x="645" d="M204 29Q238 33 257 50T276 94V628H177Q151 628 132 623T97 605T68 567T40 504H6L37 673Q44 671 55 670Q73 667 104 667H572Q603 667 623 670Q634 671 644 673L613 504H579Q581 543 576 567T557 604T523 623T473 628H374L364 618V94Q364 83 363 74T361 56Q360 47 359 40L459 31L455 3L204 -3V29Z"  />
<glyph unicode="U" horiz-adv-x="735" d="M99 569Q99 587 98 598T90 618T68 631T25 642V667H103Q137 667 158 667T193 669Q208 670 215 671L220 667Q210 656 203 638Q197 623 192 600T187 546V243Q187 188 204 149T249 84T312 46T386 33Q423 33 460 45T526 83T573 147T591 236V564Q591 580 590 593T581 615T557 630T510 639V667H704L709 653Q689 646 674 633Q661 622 651 602T640 551V239Q640 178 618 131T559 53T471 5T364 -12Q314 -12 267 1T182 43T122 119T99 235V569Z"  />
<glyph unicode="V" horiz-adv-x="614" d="M55 587Q48 603 39 614T19 631Q8 638 -4 642V667H57Q80 667 99 667T132 669Q148 670 160 671L164 667Q156 649 153 623T158 575L305 180Q310 166 315 149T324 118L504 555Q518 590 507 610T456 642V667H609L613 653Q605 646 594 632Q585 620 574 599T548 546L318 -9L285 3L55 587Z"  />
<glyph unicode="W" horiz-adv-x="961" d="M476 478L322 -9L283 3L53 587Q46 603 37 614T17 631Q6 638 -6 642V667H55Q78 667 97 667T130 669Q146 670 158 671L162 667Q154 649 151 623T156 575L300 189Q305 175 310 157T319 125L451 541L434 587Q427 603 418 614T398 631Q387 638 375 642V667H436Q459 667 478 667T511 669Q527 670 539 671L543 667Q535 649 532 623T537 575L678 187Q683 173 687 157T696 126L832 555Q843 590 833 610T784 642V667H936L940 653Q930 647 919 633Q909 621 898 600T875 546L699 -9L660 3L476 478Z"  />
<glyph unicode="X" horiz-adv-x="623" d="M9 29Q42 32 61 44T91 70L271 327L88 598Q78 612 67 620T45 634Q33 639 21 642V667H83Q107 667 125 667T156 669Q171 670 182 671L186 667Q182 655 181 643Q180 632 182 620T193 595L329 391L460 582Q474 602 467 619T421 642V667H591L596 651Q585 648 573 641Q562 635 549 623T522 592L354 352L569 36L620 28L616 0H571Q554 0 528 0T475 -2Q445 -3 412 -4V28Q443 32 449 40T443 68L297 287L126 43L218 31L214 0H9V29Z"  />
<glyph unicode="Y" horiz-adv-x="585" d="M177 29Q210 33 229 49T249 91V295L57 598Q48 612 39 620T21 634Q12 639 4 642V667H52Q75 667 94 667T127 669Q143 670 154 671L158 667Q153 656 151 644Q149 633 150 621T160 595L284 395Q292 383 299 368T313 339L462 580Q474 600 467 618T422 642V667H585L589 653Q577 648 566 640Q555 633 543 622T520 592L337 297V91Q337 80 336 71T334 55Q333 47 332 40L422 31L418 3L177 -3V29Z"  />
<glyph unicode="Z" horiz-adv-x="610" d="M28 32Q34 38 43 49Q50 58 60 71T83 103L417 579Q425 590 435 603T456 628H236Q205 628 184 623T146 605T117 567T89 504H55L80 667H490Q504 667 516 667T537 669Q547 670 554 671L558 635Q553 629 546 619Q540 611 531 597T508 564L177 88Q169 76 158 63T137 39H389Q421 39 442 45T478 68T508 113T541 183H575L534 0H98Q83 0 71 0T51 -2Q41 -3 34 -4L28 32Z"  />
<glyph unicode="[" horiz-adv-x="288" d="M85 667H268V622H150V-110H268V-155H85V667Z"  />
<glyph unicode="\" horiz-adv-x="352" d="M-19 667H45L378 -196H313L-19 667Z"  />
<glyph unicode="]" horiz-adv-x="288" d="M138 -110V622H20V667H203V-155H20V-110H138Z"  />
<glyph unicode="^" horiz-adv-x="550" d="M250 679H300L514 250H448L274 600L100 250H36L250 679Z"  />
<glyph unicode="_" horiz-adv-x="524" d="M512 -37V-86H12V-37H512Z"  />
<glyph unicode="`" horiz-adv-x="500" d="M169 702L256 693L341 522L310 505L169 675V702Z"  />
<glyph unicode="a" horiz-adv-x="460" d="M172 45Q187 45 202 51T233 67T261 86T285 105V223L254 218Q233 215 209 207T164 186T130 154T116 107Q116 77 132 61T172 45ZM28 89Q28 125 48 152T100 200T172 232T251 251L285 256Q285 264 285 277T286 306T284 337T281 363Q276 391 261 409T218 427Q192 427 173 412T139 379Q123 358 112 331H80L63 406Q85 422 113 434Q137 445 171 453T248 462Q283 462 306 455T342 430T361 386T367 319V89Q367 65 372 54T394 42Q404 42 414 45T432 52Q441 56 449 62L462 41Q448 25 431 14Q417 4 398 -4T356 -12Q327 -12 308 5T288 59V83Q272 56 249 35Q229 17 200 3T132 -12Q82 -12 55 18T28 89Z"  />
<glyph unicode="b" horiz-adv-x="519" d="M67 3Q69 16 71 32Q73 46 74 64T76 103V599Q76 631 72 649T46 667H4V694Q47 703 77 711T128 726Q151 733 165 739L168 736Q165 725 163 708Q161 694 160 673T158 622V462Q158 427 156 411T154 388Q164 400 177 413T207 437T246 455T296 462Q342 462 376 444T434 395T469 325T481 244Q481 197 466 151T418 69T338 11T223 -12Q203 -12 182 -10T140 -6T101 -2T70 0L67 3ZM158 40Q168 36 179 33Q189 30 202 28T231 26Q267 26 297 39T348 77T382 137T394 215Q394 251 386 285T360 345T318 388T258 404Q225 404 197 391T158 367V40Z"  />
<glyph unicode="c" horiz-adv-x="441" d="M38 216Q38 261 52 305T93 384T160 440T252 462Q275 462 302 458T354 444T394 420T410 386Q410 372 400 361T372 350Q353 350 341 362T316 389T287 416T245 428Q215 428 192 413T153 373T129 315T120 245Q120 209 129 175T158 114T209 71T285 55Q313 55 334 61T371 75Q389 84 401 96L412 75Q397 50 374 31Q354 14 324 1T250 -12Q197 -12 158 7T92 59T52 132T38 216Z"  />
<glyph unicode="d" horiz-adv-x="539" d="M260 46Q297 46 324 62T364 90V371Q364 388 357 398T340 414T317 422T292 424Q215 424 170 374T124 235Q124 199 132 165T158 105T200 62T260 46ZM37 205Q37 252 53 298T101 380T181 439T293 462Q307 462 319 461T342 459Q353 457 364 456V599Q364 631 360 649T334 667H292V694Q335 703 365 711T416 726Q439 733 453 739L456 736Q453 725 451 708Q449 694 448 673T446 622V95Q446 74 450 62T461 45T479 39T502 38H530L527 11Q485 6 456 3T406 -3Q383 -6 367 -8L364 -5Q365 3 366 12Q367 20 367 29T368 48V69Q348 39 315 14T225 -12Q179 -12 144 6T85 55T49 125T37 205Z"  />
<glyph unicode="e" horiz-adv-x="460" d="M234 424Q209 424 189 413T155 382T132 337T120 283L330 310Q326 341 315 367Q305 388 286 406T234 424ZM38 216Q38 267 54 312T98 390T165 442T249 462Q281 462 312 452T367 420T406 368T423 296Q415 294 407 291Q400 289 393 287T377 283L128 247L118 235Q119 201 129 169T158 111T208 71T280 55Q311 55 335 62T376 79Q395 90 410 103L421 82Q405 55 380 35Q359 17 327 3T250 -12Q197 -12 157 7T91 58T51 131T38 216Z"  />
<glyph unicode="f" horiz-adv-x="327" d="M37 26Q71 30 85 47T99 91V399H36V429L99 451V478Q99 534 112 580T152 659T216 710T303 728Q321 728 340 725T374 714T400 696T410 669Q410 655 399 643T368 631Q354 631 343 639T319 656T291 674T256 682Q218 682 200 642T181 505V450H322L314 402H191L181 392V91Q181 80 180 71T178 53Q177 44 176 37L281 28L277 3L37 -3V26Z"  />
<glyph unicode="g" horiz-adv-x="483" d="M231 180Q258 180 277 189T308 215T325 252T331 295Q331 319 325 342T306 385T273 415T226 427Q200 427 182 417T151 389T134 349T128 303Q128 280 133 258T151 218T183 191T231 180ZM258 -13Q237 -8 216 -5T174 4Q165 -2 153 -12T130 -35T111 -66T103 -104Q103 -127 113 -145T141 -175T181 -193T229 -199Q256 -199 283 -192T333 -172T369 -140T383 -98Q383 -79 373 -65T345 -42T306 -25T258 -13ZM67 73Q67 89 76 101T100 122T131 139T161 154Q111 168 76 204T41 301Q41 340 56 370T97 420T157 451T228 462Q250 462 266 459T297 452T326 445T360 442H408Q420 442 431 444T453 448Q464 451 474 455L465 390H412Q404 390 398 390T386 391Q381 392 377 393Q388 383 397 368Q405 355 411 337T418 295Q418 260 403 232T361 185T300 155T228 145Q215 145 203 146T179 149Q174 143 164 131T154 107Q154 97 164 90T193 78T237 68T292 57Q323 51 354 42T410 18T450 -17T466 -69Q466 -106 444 -136T385 -189T304 -224T212 -237Q178 -237 145 -230T84 -208T41 -171T24 -116Q24 -87 37 -67T69 -32T111 -8T150 9Q115 18 91 32T67 73Z"  />
<glyph unicode="h" horiz-adv-x="562" d="M28 26Q62 30 76 47T90 91V599Q90 631 86 649T60 667H18V694Q61 703 91 711T142 726Q165 733 179 739L182 736Q179 725 177 708Q175 694 174 673T172 622V428Q172 393 170 377T168 354Q181 373 201 392T245 427T297 452T358 462Q410 462 441 431T472 327V91Q472 80 471 71T469 53Q468 44 467 37L552 28L548 3L333 -3V26Q364 30 377 47T390 91V305Q390 362 371 381T321 401Q286 401 245 382T172 333V91Q172 80 171 71T169 53Q168 44 167 37L247 28L243 3L28 -3V26Z"  />
<glyph unicode="i" horiz-adv-x="277" d="M132 564Q110 564 94 580T78 618Q78 640 94 656T132 672Q154 672 170 656T186 618Q186 596 170 580T132 564ZM38 26Q72 30 86 47T100 91V334Q100 366 96 384T70 402H25V429Q80 442 112 450T163 465Q183 471 192 476L193 473Q190 462 187 446Q185 432 184 411T182 359V91Q182 80 181 71T179 53Q178 44 177 37L262 28L258 3L38 -3V26Z"  />
<glyph unicode="j" horiz-adv-x="251" d="M124 564Q102 564 86 580T70 618Q70 640 86 656T124 672Q146 672 162 656T178 618Q178 596 162 580T124 564ZM92 334Q92 366 88 384T62 402H17V429Q71 442 104 450T155 465Q176 471 184 476L185 473Q182 463 179 448Q177 435 176 414T174 363V28Q174 -98 129 -167T-2 -237L-14 -213Q6 -210 25 -195T59 -154T83 -96T92 -24V334Z"  />
<glyph unicode="k" horiz-adv-x="517" d="M28 26Q62 30 76 47T90 91V599Q90 631 86 649T60 667H18V694Q61 703 91 711T142 726Q165 733 179 739L182 736Q179 725 177 708Q175 694 174 673T172 622V267H184L285 352Q297 363 310 374T323 400Q323 416 290 425V450H473L478 434Q461 429 443 421Q428 414 409 404T373 379L257 280V270Q259 267 262 263Q264 260 267 256T273 250L421 90Q437 72 448 61T468 44T487 35T511 31L522 30L518 0L374 -3Q370 8 364 19Q359 29 352 41T333 66L184 234H172V91Q172 80 171 71T169 53Q168 44 167 37L247 28L243 3L28 -3V26Z"  />
<glyph unicode="l" horiz-adv-x="267" d="M28 26Q62 30 76 47T90 91V599Q90 631 86 649T60 667H18V694Q61 703 91 711T142 726Q165 733 179 739L182 736Q179 725 177 708Q175 694 174 673T172 622V91Q172 80 171 71T169 53Q168 44 167 37L252 28L248 3L28 -3V26Z"  />
<glyph unicode="m" horiz-adv-x="844" d="M37 26Q71 30 85 47T99 91V334Q99 366 95 384T69 402H26V429Q63 437 92 445T143 460Q168 468 186 476L189 473Q187 463 184 446Q182 432 180 409T177 352Q190 371 209 391T251 426T301 452T358 462Q406 462 434 435T463 347Q477 369 496 390T539 427T589 452T646 462Q695 462 724 432T753 327V91Q753 80 752 71T750 53Q749 44 748 37L833 28L829 3L614 -3V26Q648 30 659 47T671 91V305Q671 362 656 381T613 401Q596 401 571 394T523 373T483 342T466 302V91Q466 80 465 71T463 53Q462 44 461 37L541 28L537 3L327 -3V26Q361 30 372 47T384 91V305Q384 362 369 381T325 401Q291 401 252 382T181 331V91Q181 80 180 71T178 53Q177 44 176 37L256 28L252 3L37 -3V26Z"  />
<glyph unicode="n" horiz-adv-x="572" d="M38 26Q72 30 86 47T100 91V334Q100 366 96 384T70 402H25V429Q62 437 91 445T142 460Q167 468 185 476L188 473Q185 462 183 445Q181 431 180 408T178 351Q191 371 211 391T255 426T307 452T368 462Q420 462 451 431T482 327V91Q482 80 481 70T479 53Q478 44 477 38L562 28L558 3L343 -3V26Q377 30 388 47T400 91V305Q400 362 381 381T331 401Q296 401 255 382T182 331V91Q182 80 181 70T179 53Q178 44 177 38L257 28L253 3L38 -3V26Z"  />
<glyph unicode="o" horiz-adv-x="532" d="M130 238Q130 200 138 162T163 93T206 42T271 22Q303 22 327 37T368 78T393 140T402 215Q402 252 394 290T369 358T326 408T261 428Q226 428 202 412T161 369T138 308T130 238ZM38 215Q38 259 51 303T92 382T164 440T273 462Q328 462 369 445T438 399T480 329T494 243Q494 196 480 151T436 69T362 11T257 -12Q204 -12 163 5T95 53T53 125T38 215Z"  />
<glyph unicode="p" horiz-adv-x="534" d="M244 26Q322 26 365 77T409 215Q409 251 401 285T377 345T336 388T278 404Q249 404 222 392T172 362V80Q172 62 178 52T195 36T219 28T244 26ZM38 -216Q55 -207 65 -198T80 -177T88 -153T90 -122V334Q90 366 86 384T60 402H20V429Q57 437 86 445T135 460Q159 468 177 476L180 473Q178 464 176 452Q173 430 170 384Q180 397 192 410T222 435T262 454T314 462Q360 462 394 444T450 395T484 325T496 244Q496 196 481 150T434 68T354 10T239 -12Q219 -12 203 -10T172 -6V-121Q172 -132 171 -142T169 -161Q168 -171 167 -178H272L268 -202Q222 -208 180 -215Q143 -221 104 -228T38 -245V-216Z"  />
<glyph unicode="q" horiz-adv-x="519" d="M124 233Q124 197 133 164T159 104T202 62T261 46Q294 46 322 59T363 83V410Q353 413 342 417Q332 419 319 421T290 424Q255 424 225 411T173 372T137 312T124 233ZM37 205Q37 253 54 299T104 382T187 440T300 462Q338 462 377 457T451 450L454 447Q451 436 449 421Q447 408 446 389T445 347V-125Q445 -136 444 -146T442 -164Q441 -173 440 -181H515L511 -205Q463 -211 425 -218T359 -232Q326 -240 301 -247V-218Q335 -199 349 -178T363 -122V-12Q363 23 365 39T367 62Q358 50 345 37T315 13T275 -5T225 -12Q180 -12 145 6T86 55T50 125T37 205Z"  />
<glyph unicode="r" horiz-adv-x="375" d="M38 26Q72 30 86 47T100 91V334Q100 366 96 384T70 402H25V429Q62 437 92 445T143 460Q168 468 187 476L190 473Q188 463 185 445Q183 430 181 406T178 346Q189 367 204 387T237 424T274 451T313 462Q331 462 349 452T367 416Q367 393 354 380T320 367Q311 367 306 369T296 375T286 381T271 384Q245 384 222 365T182 326V91Q182 80 181 71T179 53Q178 44 177 37L272 28L268 3L38 -3V26Z"  />
<glyph unicode="s" horiz-adv-x="386" d="M39 56Q39 64 41 76T45 101Q48 115 52 132H82Q84 100 95 79T123 45T158 27T195 22Q232 22 255 40T278 90Q278 117 261 135T219 169T164 198T109 231T66 274T49 335Q49 391 90 426T212 462Q235 462 257 459T297 453Q318 449 337 444L317 341H286Q286 372 275 389T249 415T219 426T196 428Q155 428 138 408T121 364Q121 337 138 320T180 289T235 261T290 230T332 185T349 119Q349 56 305 22T189 -12Q172 -12 147 -10T97 0T56 21T39 56Z"  />
<glyph unicode="t" horiz-adv-x="347" d="M87 334Q87 345 87 356T88 377Q89 388 90 399H24V429Q37 432 49 436Q60 440 71 446T92 460L129 569L174 568L177 565Q174 556 172 542Q170 530 169 511T168 465V450H324L317 402H179L169 392V138Q169 94 184 71T239 48Q256 48 272 51T301 58Q316 62 329 69L342 50Q325 32 303 19Q284 7 257 -2T198 -12Q144 -12 116 19T87 119V334Z"  />
<glyph unicode="u" horiz-adv-x="559" d="M86 334Q86 366 82 384T56 402H21V430Q57 436 85 443T133 455Q156 461 173 467L177 464Q174 455 172 440Q170 427 169 408T168 359V145Q168 88 186 69T236 49Q271 49 310 68T381 120V334Q381 366 377 384T351 402H318V430Q354 436 381 443T429 455Q451 461 468 467L472 464Q469 455 467 440Q465 427 464 408T463 359V95Q463 74 467 62T478 45T496 39T519 38H547L544 11Q502 6 472 3T421 -3Q397 -7 380 -9L376 -6Q378 3 380 12Q382 20 383 29T385 48V100Q371 80 353 60T310 24T258 -2T199 -12Q146 -12 116 19T86 122V334Z"  />
<glyph unicode="v" horiz-adv-x="457" d="M57 367Q49 386 40 397T22 415Q12 422 2 425V450H48Q71 450 90 450T122 452Q137 453 148 454L152 450Q143 430 143 406T151 358L227 147Q232 133 236 116T245 85L363 352Q377 385 360 401T313 425V450H448L453 434Q448 431 443 425Q438 420 432 410T417 382L242 -13L200 0L57 367Z"  />
<glyph unicode="w" horiz-adv-x="730" d="M57 367Q49 386 40 397T22 415Q12 422 2 425V450H48Q71 450 89 450T121 452Q136 453 146 454L150 450Q145 437 143 422Q141 409 141 393T149 358L227 147L243 93L336 314Q340 324 342 336T342 360L340 367Q332 386 323 397T305 415Q295 422 285 425V450H331Q354 450 372 450T404 452Q419 453 429 454L433 450Q428 437 426 422Q424 409 424 393T432 358L509 151Q514 138 518 123T526 94L635 353Q641 368 640 380T631 401T611 416T585 425V450H719L724 434Q719 431 713 424Q708 418 702 408T688 381L520 -13L483 0L368 294L237 -13L200 0L57 367Z"  />
<glyph unicode="x" horiz-adv-x="489" d="M283 28Q316 28 321 37T314 65L229 188L110 37L186 28L182 3L16 -3V26Q45 29 61 42T85 66L208 220L101 372Q88 390 75 401T51 417Q38 423 26 425V450H74Q99 450 118 450T151 452Q166 453 177 454L181 450Q178 439 178 428Q178 418 181 405T195 378L262 279L340 378Q352 395 344 407T299 425V450H456L461 434Q451 431 440 425Q430 420 418 411T392 384L283 247L435 31L480 27L476 3L283 -3V28Z"  />
<glyph unicode="y" horiz-adv-x="461" d="M71 -154Q111 -154 137 -132T177 -79L209 -4Q205 7 199 23T185 61L57 367Q49 386 39 397T21 415Q11 422 1 425V450H48Q71 450 90 450T123 452Q139 453 150 454L154 450Q145 432 145 405T153 358L234 155Q239 142 244 126T253 95L366 353Q372 368 370 379T359 400T338 415T311 425V450H450L455 434Q450 431 444 424Q439 418 433 408T419 381L246 -12Q236 -35 220 -72T182 -147T131 -210T66 -237Q44 -237 33 -225T22 -195Q22 -180 33 -167T71 -154Z"  />
<glyph unicode="z" horiz-adv-x="439" d="M32 22Q36 26 41 32Q46 37 52 46T68 70L262 369Q269 380 279 393T298 417H165Q142 417 126 408T98 385T79 357T69 332H40L58 450H321Q337 450 349 450T371 452Q382 453 389 454L397 428Q395 426 391 421Q385 414 363 380L174 84Q166 72 156 59T137 34H259Q295 34 318 49T355 84Q371 106 378 134H407L380 0H108Q91 0 79 0T58 -2Q47 -3 40 -4L32 22Z"  />
<glyph unicode="{" horiz-adv-x="348" d="M134 -66Q134 -41 134 -8T131 59T121 126T100 185T63 228T7 245V280Q40 281 62 296T99 337T121 394T131 459T134 524T134 581Q134 623 149 653T192 703T256 732T338 741L343 705Q297 702 270 691T229 660T210 607T206 528Q206 459 196 412T170 335T134 288T95 264V262Q114 254 134 236T170 186T196 105T206 -13Q206 -60 210 -92T228 -144T270 -175T343 -190L338 -226Q294 -226 257 -218T192 -191T150 -142T134 -66Z"  />
<glyph unicode="|" horiz-adv-x="233" d="M84 749H149V-225H84V749Z"  />
<glyph unicode="}" horiz-adv-x="348" d="M142 -13Q142 56 152 105T178 186T213 236T253 262V264Q233 271 214 287T178 334T152 412T142 528Q142 574 138 606T120 659T78 691T5 705L10 741Q54 741 91 732T156 704T198 654T214 581Q214 556 214 524T217 459T227 394T248 337T285 297T341 280V245Q307 244 285 228T249 186T227 126T217 59T214 -8T214 -66Q214 -111 199 -141T156 -191T92 -218T10 -226L5 -190Q51 -186 78 -176T119 -145T138 -92T142 -13Z"  />
<glyph unicode="~" horiz-adv-x="589" d="M66 175Q66 257 101 293T193 330Q222 330 242 323T278 303T306 278T331 253T358 234T392 226Q414 226 428 236T450 262T460 294T463 326H522Q522 243 487 207T395 171Q352 171 327 187T282 222T244 258T196 275Q173 275 160 265T138 239T128 207T125 175H66Z"  />
<glyph unicode="&#xA0;" horiz-adv-x="225" />
<glyph unicode="&#xA1;" horiz-adv-x="273" d="M199 402Q199 377 182 360T139 342Q114 342 97 359T79 402Q79 427 96 444T139 462Q164 462 181 445T199 402ZM194 -206Q160 -215 139 -221T103 -233Q87 -238 78 -242L75 -239Q77 -230 81 -214Q83 -201 86 -181T92 -131L125 274H150L194 -206Z"  />
<glyph unicode="&#xA2;" horiz-adv-x="432" d="M120 307Q120 259 141 216T209 152L225 453Q200 451 181 438T148 405T127 359T120 307ZM38 274Q38 312 50 349T85 415T144 464T226 487L231 577H271L266 487Q287 485 310 479T352 464T384 443T397 414Q397 397 387 387T358 376Q343 376 333 384T312 404T290 428T264 447L249 140Q257 139 264 139T280 138Q311 138 340 148T396 182L407 161Q392 136 369 116Q349 99 319 85T245 69L241 -22H201L205 71Q163 77 132 96T79 143T48 204T38 274Z"  />
<glyph unicode="&#xA3;" horiz-adv-x="509" d="M54 284H121L132 372Q137 414 149 449T184 510T238 550T316 565Q335 565 355 562T393 553T422 535T433 509Q433 492 422 480T392 468Q377 468 366 476T343 495T319 514T285 523Q267 523 255 516T234 492T220 445T211 369L202 284H387L382 244H198V240Q195 202 189 173T176 122Q169 97 161 78Q184 68 210 60Q232 53 260 48T318 43Q339 43 360 47T400 60T431 86T449 127L456 159H487Q484 126 476 93T450 34T404 -8T329 -25Q298 -25 252 -14L168 7Q157 9 147 11T124 14Q109 14 92 11T53 0L41 29Q56 37 68 49Q79 60 88 77T101 119L116 244H54V284Z"  />
<glyph unicode="&#xA4;" horiz-adv-x="506" d="M253 222Q310 222 341 262T372 365Q372 395 364 421T341 467T304 498T253 509Q224 509 202 498T165 468T141 422T133 365Q133 334 141 308T164 263T202 233T253 222ZM19 168L88 239Q50 294 50 365Q50 436 88 489L19 560L64 603L131 534Q155 552 185 563T253 574Q289 574 320 563T375 534L442 603L487 560L418 489Q455 435 455 365Q455 330 445 298T417 240L487 168L442 125L374 194Q325 157 253 157Q181 157 132 194L64 125L19 168Z"  />
<glyph unicode="&#xA5;" horiz-adv-x="511" d="M71 310H190L73 495Q66 506 59 512T44 522Q36 526 29 528V553H69Q87 553 103 553T133 554Q148 555 161 556L164 553Q160 544 159 535Q158 527 159 518T166 499L247 366Q254 354 261 339T275 311L380 480Q390 496 385 509T348 528V553H476L480 537Q473 535 466 531Q460 526 452 518T435 496L316 310H447V270H297V202H447V162H297V91Q297 80 296 71T294 53Q293 44 292 37L377 28L373 3L153 -3V26Q187 30 201 47T215 91V162H71V202H215V270H71V310Z"  />
<glyph unicode="&#xA6;" horiz-adv-x="252" d="M162 173V-185H90V173H162ZM90 686H162V328H90V686Z"  />
<glyph unicode="&#xA7;" horiz-adv-x="468" d="M88 396Q79 448 84 499T110 590T170 654T264 679Q302 679 332 669T383 647Q408 633 426 615L410 588Q397 598 379 607Q363 614 340 620T284 626Q239 626 210 607T165 557T146 486T151 404L203 118Q207 94 212 59T216 -12T199 -76T152 -118L147 -113Q158 -80 158 -41T151 41L88 396ZM33 -146Q46 -157 64 -165Q80 -173 103 -178T159 -184Q204 -184 233 -165T278 -115T296 -44T292 38L240 324Q235 348 230 383T227 454T244 518T291 560L296 555Q285 522 285 483T292 401L355 46Q364 -6 359 -57T333 -148T273 -212T179 -237Q141 -237 111 -227T60 -205Q35 -191 17 -173L33 -146Z"  />
<glyph unicode="&#xA8;" horiz-adv-x="500" d="M340 564Q318 564 302 580T286 618Q286 640 302 656T340 672Q362 672 378 656T394 618Q394 596 378 580T340 564ZM159 564Q137 564 121 580T105 618Q105 640 121 656T159 672Q181 672 197 656T213 618Q213 596 197 580T159 564Z"  />
<glyph unicode="&#xA9;" horiz-adv-x="760" d="M182 329Q182 367 195 405T234 473T301 523T396 542Q415 542 433 539T468 531T498 522T522 515L505 409H474Q474 440 466 459T444 489T414 503T381 507Q354 507 332 495T293 461T268 412T259 353Q259 313 270 282T302 228T349 195T409 183Q434 183 455 190T493 207Q511 218 527 232L538 203Q527 187 509 174T471 152T429 138T390 133Q349 133 312 146T245 185T199 247T182 329ZM81 333Q81 270 104 215T167 118T262 53T380 29Q443 29 497 53T592 118T656 214T679 333Q679 396 656 451T593 548T498 613T380 637Q317 637 263 613T168 548T104 452T81 333ZM35 333Q35 404 62 467T136 577T246 651T380 678Q451 678 514 651T624 577T698 467T725 333Q725 262 698 199T624 89T514 15T380 -12Q309 -12 246 15T136 89T62 199T35 333Z"  />
<glyph unicode="&#xAA;" horiz-adv-x="388" d="M148 390Q159 390 171 396T195 410Q207 419 218 430V509Q199 507 181 501T149 485T126 462T117 432Q117 412 125 401T148 390ZM123 347Q85 347 65 368T44 419Q44 444 58 464T97 499T152 523T218 536V565Q218 574 218 588T214 617T202 642T179 652Q163 652 150 641T128 617Q117 601 108 582H80L68 639Q84 650 104 659Q121 667 145 673T200 679Q226 679 243 674T269 657T283 626T287 578V419Q287 403 289 396T300 388Q311 388 325 397Q332 401 339 406L352 387Q341 376 329 367Q318 359 304 353T274 347Q252 347 237 360T221 406Q209 389 194 376Q181 365 163 356T123 347Z"  />
<glyph unicode="&#xAB;" horiz-adv-x="519" d="M232 253Q237 257 242 260T255 271T276 291T312 326T366 381T445 462L474 452Q429 380 403 341T363 281L343 251L363 221Q377 201 403 161T474 50L445 40Q379 108 341 147T281 206T250 235T232 249V253ZM37 253Q42 257 47 260T60 271T81 291T117 326T171 381T250 462L279 452Q234 380 208 341T168 281L148 251L168 221Q182 201 208 161T279 50L250 40Q184 108 146 147T86 206T55 235T37 249V253Z"  />
<glyph unicode="&#xAC;" horiz-adv-x="520" d="M24 389H472V111H413V334H24V389Z"  />
<glyph unicode="&#xAD;" horiz-adv-x="360" d="M62 283H298V217H62V283Z"  />
<glyph unicode="&#xAE;" horiz-adv-x="418" d="M187 533H209Q213 534 221 541T230 568Q230 582 222 591T196 601H187V533ZM129 461Q147 463 147 476V587Q147 596 144 599T126 606V618H200Q241 618 256 606T272 576Q272 562 261 551T239 532Q241 530 243 526Q245 523 247 519T253 509L275 477Q283 466 289 464T301 461L300 447L247 446Q246 451 243 455Q238 462 231 476L204 516H187V476Q187 473 187 471T186 467Q185 465 185 464L210 461L209 448L129 446V461ZM209 387Q237 387 262 398T307 429T337 475T348 531Q348 560 337 586T307 631T263 662T209 674Q180 674 155 663T111 632T81 586T70 531Q70 502 81 476T110 430T154 399T209 387ZM209 358Q173 358 142 371T87 408T50 463T36 531Q36 567 49 598T86 653T141 690T209 704Q245 704 276 691T331 654T368 599T382 531Q382 495 369 464T332 409T277 372T209 358Z"  />
<glyph unicode="&#xAF;" horiz-adv-x="500" d="M136 648H364V589H136V648Z"  />
<glyph unicode="&#xB0;" horiz-adv-x="322" d="M161 439Q135 439 113 448T75 474T49 512T39 559Q39 584 48 605T74 643T113 669T161 679Q186 679 208 670T247 644T273 606T283 559Q283 534 274 513T248 475T209 449T161 439ZM161 485Q191 485 212 506T233 559Q233 591 212 612T161 633Q131 633 110 612T89 559Q89 527 110 506T161 485Z"  />
<glyph unicode="&#xB1;" horiz-adv-x="520" d="M36 55H484V0H36V55ZM36 373H232V558H291V373H484V318H291V120H232V318H36V373Z"  />
<glyph unicode="&#xB2;" horiz-adv-x="331" d="M21 402Q37 417 56 434T94 470T132 512T166 557Q203 615 203 665Q203 699 183 714T137 730Q110 730 87 721T46 696L27 717Q43 736 63 752Q80 765 105 776T161 787Q182 787 203 781T240 763T267 732T278 687Q278 655 262 622T219 557T162 493T102 432H217Q247 432 257 445T276 486H304L287 376H29L21 402Z"  />
<glyph unicode="&#xB3;" horiz-adv-x="320" d="M128 369Q112 369 93 372T58 381T31 396T20 417Q20 430 28 435T49 441Q64 441 73 434T91 418T110 402T138 394Q152 394 165 402T187 424T203 454T209 488Q209 523 184 545T114 568Q109 568 105 568T96 567Q92 566 88 566V601Q109 602 126 610T157 630T178 657T186 689Q186 716 171 726T137 736Q117 736 97 730T60 712L41 733Q55 748 73 760Q89 770 111 778T162 787Q179 787 197 783T229 768T253 742T263 704Q263 688 254 673T230 644T199 619T167 599Q220 591 255 563T290 495Q290 467 276 444T239 405T187 379T128 369Z"  />
<glyph unicode="&#xB4;" horiz-adv-x="500" d="M159 522L244 693L331 702V675L190 505L159 522Z"  />
<glyph unicode="&#xB5;" horiz-adv-x="540" d="M73 336Q73 359 72 378T69 412Q67 428 66 441L158 462L162 459Q160 450 158 435Q155 409 155 354V145Q155 88 173 69T218 49Q256 49 293 68T363 120V336Q363 359 362 378T359 412Q357 428 356 441L448 462L452 459Q450 450 448 435Q445 409 445 354V95Q445 65 450 52T481 38H519L522 14Q505 6 488 1Q474 -4 459 -8T431 -12Q403 -12 385 0T367 48V100Q353 80 336 60T297 24T250 -2T196 -12Q174 -12 154 -5T116 20Q118 -12 124 -42T137 -100T149 -149T155 -187Q155 -210 143 -223T114 -237Q86 -237 78 -217T69 -165Q69 -142 71 -115T73 -57V336Z"  />
<glyph unicode="&#xB6;" horiz-adv-x="643" d="M177 -196Q177 -172 191 -163T220 -153Q232 -153 243 -157T266 -161Q285 -161 297 -149T315 -113T323 -58T325 15V159H311Q236 159 181 180T90 237T37 318T20 412Q20 460 38 505T91 587T180 645T306 667H522Q550 667 568 667T601 671L592 615H518V0H461V615H386V85Q386 43 386 16T384 -30T380 -60T376 -80Q368 -111 355 -139T323 -189T279 -224T224 -237Q198 -237 188 -223T177 -196Z"  />
<glyph unicode="&#xB7;" horiz-adv-x="252" d="M126 194Q101 194 84 211T66 254Q66 279 83 296T126 314Q151 314 168 297T186 254Q186 229 169 212T126 194Z"  />
<glyph unicode="&#xB8;" horiz-adv-x="500" d="M217 -81Q217 -70 222 -57T236 -30Q245 -15 256 0H287Q284 -9 281 -17Q279 -25 277 -32T275 -45Q275 -58 288 -65T317 -80T346 -101T359 -139Q359 -157 351 -175T328 -206T293 -228T248 -237Q227 -237 210 -232T181 -219Q167 -211 157 -201L172 -169Q182 -177 193 -182Q203 -187 215 -190T242 -194Q265 -194 279 -184T294 -158Q294 -145 282 -137T256 -122T229 -105T217 -81Z"  />
<glyph unicode="&#xB9;" horiz-adv-x="268" d="M31 402L73 404Q99 406 104 416T109 439V700Q109 725 104 727T88 727L25 713L21 743Q64 754 96 763T148 779Q172 786 188 791L191 787Q189 781 187 771Q185 763 184 750T183 719V439Q183 433 183 428T182 418Q181 413 181 409L260 404L257 378L31 374V402Z"  />
<glyph unicode="&#xBA;" horiz-adv-x="411" d="M209 376Q230 376 245 386T271 415T287 456T293 506Q293 531 288 557T272 604T244 638T202 651Q179 651 163 640T137 611T122 570T117 523Q117 497 122 471T138 424T167 390T209 376ZM199 347Q161 347 132 359T82 393T52 444T42 506Q42 537 51 567T80 623T132 663T210 679Q249 679 279 667T329 635T360 586T370 526Q370 493 360 461T328 404T274 363T199 347Z"  />
<glyph unicode="&#xBB;" horiz-adv-x="519" d="M45 50Q90 120 115 160T155 221Q171 245 176 251Q171 257 155 281Q141 301 116 340T45 452L74 462Q120 414 152 381T207 326T242 292T264 272T277 261T287 253V249Q279 243 270 235T239 207T179 147T74 40L45 50ZM240 50Q285 120 310 160T350 221Q366 245 371 251Q366 257 350 281Q336 301 311 340T240 452L269 462Q315 414 347 381T402 326T437 292T459 272T472 261T482 253V249Q474 243 465 235T434 207T374 147T269 40L240 50Z"  />
<glyph unicode="&#xBC;" horiz-adv-x="804" d="M195 0L588 682L635 666L252 0H195ZM43 294L85 296Q111 298 116 308T121 331V592Q121 617 116 619T100 619L37 605L33 635Q76 646 108 655T160 671Q184 678 200 683L203 679Q201 673 199 663Q197 655 196 642T195 611V331Q195 325 195 320T194 310Q193 305 193 301L272 296L269 270L43 266V294ZM634 156V317L507 156H634ZM461 149L654 401L711 412Q710 404 709 393Q708 384 708 371T707 342V156H775L764 114H707V60Q707 54 707 49T706 39Q705 34 705 30L759 25L757 2L589 -2V22Q610 24 622 34T634 60V114H467L461 149Z"  />
<glyph unicode="&#xBD;" horiz-adv-x="862" d="M194 0L587 682L634 666L251 0H194ZM548 26Q564 41 583 58T621 94T659 136T693 181Q730 239 730 289Q730 323 710 338T664 354Q637 354 614 345T573 320L554 341Q570 360 590 376Q607 389 632 400T688 411Q709 411 730 405T767 387T794 356T805 311Q805 279 789 246T746 181T689 117T629 56H744Q774 56 784 69T803 110H831L814 0H556L548 26ZM41 294L83 296Q109 298 114 308T119 331V592Q119 617 114 619T98 619L35 605L31 635Q74 646 106 655T158 671Q182 678 198 683L201 679Q199 673 197 663Q195 655 194 642T193 611V331Q193 325 193 320T192 310Q191 305 191 301L270 296L267 270L41 266V294Z"  />
<glyph unicode="&#xBE;" horiz-adv-x="797" d="M625 156V317L498 156H625ZM186 0L579 682L626 666L243 0H186ZM139 261Q123 261 104 264T69 273T42 288T31 309Q31 322 39 327T60 333Q75 333 84 326T102 310T121 294T149 286Q163 286 176 294T198 316T214 346T220 380Q220 415 195 437T125 460Q120 460 116 460T107 459Q103 458 99 458V493Q120 494 137 502T168 522T189 549T197 581Q197 608 182 618T148 628Q128 628 108 622T71 604L52 625Q66 640 84 652Q100 662 122 670T173 679Q190 679 208 675T240 660T264 634T274 596Q274 580 265 565T241 536T210 511T178 491Q231 483 266 455T301 387Q301 359 287 336T250 297T198 271T139 261ZM452 149L645 401L702 412Q701 404 700 393Q699 384 699 371T698 342V156H766L755 114H698V60Q698 54 698 49T697 39Q696 34 696 30L750 25L748 2L580 -2V22Q601 24 613 34T625 60V114H458L452 149Z"  />
<glyph unicode="&#xBF;" horiz-adv-x="327" d="M265 402Q265 377 248 360T205 342Q180 342 163 359T145 402Q145 427 162 444T205 462Q230 462 247 445T265 402ZM221 274Q224 260 225 248T226 224Q226 173 207 136T165 70T122 19T103 -26Q103 -39 111 -51T132 -76T163 -99T198 -120Q240 -143 294 -163L278 -251Q203 -224 144 -191Q119 -177 95 -161T53 -126T23 -89T11 -48Q11 -27 24 -7T59 34T103 79T148 131T182 195T196 274H221Z"  />
<glyph unicode="&#xC0;" horiz-adv-x="623" d="M183 809L216 861H221L398 756L385 723L183 784V809ZM310 500Q304 515 299 532T290 561L179 272H396L310 500ZM-13 29Q19 32 33 45T54 74L291 664L332 673L554 105Q564 79 573 65T590 43T608 32T630 27L626 0H583Q569 0 544 0T493 -2Q464 -3 431 -3V31Q452 32 466 39T473 70L412 230H173L160 220L91 40L176 28L172 0H-13V29Z"  />
<glyph unicode="&#xC1;" horiz-adv-x="623" d="M403 861H408L441 809V784L239 723L226 756L403 861ZM310 500Q304 515 299 532T290 561L179 272H396L310 500ZM-13 29Q19 32 33 45T54 74L291 664L332 673L554 105Q564 79 573 65T590 43T608 32T630 27L626 0H583Q569 0 544 0T493 -2Q464 -3 431 -3V31Q452 32 466 39T473 70L412 230H173L160 220L91 40L176 28L172 0H-13V29Z"  />
<glyph unicode="&#xC2;" horiz-adv-x="623" d="M286 871H339L469 741L442 718L314 799H310L182 718L155 741L286 871ZM310 500Q304 515 299 532T290 561L179 272H396L310 500ZM-13 29Q19 32 33 45T54 74L291 664L332 673L554 105Q564 79 573 65T590 43T608 32T630 27L626 0H583Q569 0 544 0T493 -2Q464 -3 431 -3V31Q452 32 466 39T473 70L412 230H173L160 220L91 40L176 28L172 0H-13V29Z"  />
<glyph unicode="&#xC3;" horiz-adv-x="623" d="M135 740Q139 771 150 796Q160 817 179 835T233 853Q256 853 278 844T322 824T363 803T400 794Q417 794 427 803T444 823Q451 836 455 853L490 850Q486 817 474 791Q463 769 442 751T383 733Q357 733 336 742T296 762T260 783T225 792Q209 792 199 783T181 762Q173 749 169 733L135 740ZM310 500Q304 515 299 532T290 561L179 272H396L310 500ZM-13 29Q19 32 33 45T54 74L291 664L332 673L554 105Q564 79 573 65T590 43T608 32T630 27L626 0H583Q569 0 544 0T493 -2Q464 -3 431 -3V31Q452 32 466 39T473 70L412 230H173L160 220L91 40L176 28L172 0H-13V29Z"  />
<glyph unicode="&#xC4;" horiz-adv-x="623" d="M373 793Q373 815 389 831T427 847Q449 847 465 831T481 793Q481 771 465 755T427 739Q405 739 389 755T373 793ZM142 793Q142 815 158 831T196 847Q218 847 234 831T250 793Q250 771 234 755T196 739Q174 739 158 755T142 793ZM310 500Q304 515 299 532T290 561L179 272H396L310 500ZM-13 29Q19 32 33 45T54 74L291 664L332 673L554 105Q564 79 573 65T590 43T608 32T630 27L626 0H583Q569 0 544 0T493 -2Q464 -3 431 -3V31Q452 32 466 39T473 70L412 230H173L160 220L91 40L176 28L172 0H-13V29Z"  />
<glyph unicode="&#xC5;" horiz-adv-x="623" d="M312 745Q335 745 347 759T360 791Q360 808 349 822T312 837Q286 837 276 823T265 791Q265 774 276 760T312 745ZM312 711Q264 711 241 736T218 792Q218 807 223 821T241 846T270 864T312 871Q336 871 353 864T383 846T400 821T406 792Q406 761 383 736T312 711ZM310 500Q304 515 299 532T290 561L179 272H396L310 500ZM-13 29Q19 32 33 45T54 74L291 664L332 673L554 105Q564 79 573 65T590 43T608 32T630 27L626 0H583Q569 0 544 0T493 -2Q464 -3 431 -3V31Q452 32 466 39T473 70L412 230H173L160 220L91 40L176 28L172 0H-13V29Z"  />
<glyph unicode="&#xC6;" horiz-adv-x="880" d="M252 348H421V622Q410 617 401 608T381 580L252 348ZM-19 29Q13 32 26 46T48 74L332 585Q343 606 335 618T284 642V667H751Q766 667 779 667T802 669Q813 670 823 671L792 504H758Q760 543 755 567T736 604T702 623T650 628H519L509 618V348H694L702 415L739 421V245H692V309H519L509 299V95Q509 84 508 74T506 56Q505 47 504 39H661Q693 39 713 43T748 61T776 99T809 163H843L806 0H494Q475 0 451 0T403 -2Q377 -3 349 -3V29Q383 33 402 48T421 91V309H240L225 299L82 40L167 28L163 0H-19V29Z"  />
<glyph unicode="&#xC7;" horiz-adv-x="679" d="M314 -81Q314 -73 317 -63T326 -43T336 -24T346 -9Q286 -2 232 23T136 91T70 193T45 326Q45 402 72 467T147 579T263 652T411 679Q439 679 469 676T527 670T581 662T627 656L597 504H563Q563 543 548 569T509 611T455 634T394 641Q336 641 289 619T209 559T157 468T138 355Q138 287 160 232T221 137T313 76T427 54Q474 54 511 64T574 89Q605 105 628 125L642 104Q618 72 583 46Q552 24 506 6T393 -12H379Q377 -20 375 -29T372 -45Q372 -58 385 -65T414 -80T443 -101T456 -139Q456 -157 448 -175T425 -206T390 -228T345 -237Q324 -237 307 -232T278 -219Q264 -211 254 -201L269 -169Q279 -177 290 -182Q300 -187 312 -190T339 -194Q362 -194 376 -184T391 -158Q391 -145 379 -137T353 -122T326 -105T314 -81Z"  />
<glyph unicode="&#xC8;" horiz-adv-x="585" d="M178 809L211 861H216L393 756L380 723L178 784V809ZM54 29Q88 33 107 48T126 91V569Q126 587 124 598T114 618T90 631T44 642V667H456Q471 667 484 667T507 669Q518 670 528 671L497 504H463Q465 543 460 567T441 604T407 623T355 628H224L214 618V358H399L407 415L444 421V245H397V319H224L214 309V95Q214 84 213 74T211 56Q210 47 209 39H366Q398 39 418 43T453 61T481 99T514 163H548L511 0H199Q180 0 156 0T108 -2Q82 -3 54 -3V29Z"  />
<glyph unicode="&#xC9;" horiz-adv-x="585" d="M398 861H403L436 809V784L234 723L221 756L398 861ZM54 29Q88 33 107 48T126 91V569Q126 587 124 598T114 618T90 631T44 642V667H456Q471 667 484 667T507 669Q518 670 528 671L497 504H463Q465 543 460 567T441 604T407 623T355 628H224L214 618V358H399L407 415L444 421V245H397V319H224L214 309V95Q214 84 213 74T211 56Q210 47 209 39H366Q398 39 418 43T453 61T481 99T514 163H548L511 0H199Q180 0 156 0T108 -2Q82 -3 54 -3V29Z"  />
<glyph unicode="&#xCA;" horiz-adv-x="585" d="M281 871H334L464 741L437 718L309 799H305L177 718L150 741L281 871ZM54 29Q88 33 107 48T126 91V569Q126 587 124 598T114 618T90 631T44 642V667H456Q471 667 484 667T507 669Q518 670 528 671L497 504H463Q465 543 460 567T441 604T407 623T355 628H224L214 618V358H399L407 415L444 421V245H397V319H224L214 309V95Q214 84 213 74T211 56Q210 47 209 39H366Q398 39 418 43T453 61T481 99T514 163H548L511 0H199Q180 0 156 0T108 -2Q82 -3 54 -3V29Z"  />
<glyph unicode="&#xCB;" horiz-adv-x="585" d="M368 793Q368 815 384 831T422 847Q444 847 460 831T476 793Q476 771 460 755T422 739Q400 739 384 755T368 793ZM137 793Q137 815 153 831T191 847Q213 847 229 831T245 793Q245 771 229 755T191 739Q169 739 153 755T137 793ZM54 29Q88 33 107 48T126 91V569Q126 587 124 598T114 618T90 631T44 642V667H456Q471 667 484 667T507 669Q518 670 528 671L497 504H463Q465 543 460 567T441 604T407 623T355 628H224L214 618V358H399L407 415L444 421V245H397V319H224L214 309V95Q214 84 213 74T211 56Q210 47 209 39H366Q398 39 418 43T453 61T481 99T514 163H548L511 0H199Q180 0 156 0T108 -2Q82 -3 54 -3V29Z"  />
<glyph unicode="&#xCC;" horiz-adv-x="331" d="M33 809L66 861H71L248 756L235 723L33 784V809ZM53 29Q86 33 105 49T125 91V569Q125 587 124 598T116 618T94 631T51 642V667H129Q163 667 184 667T219 669Q234 670 241 671L246 667Q236 656 229 638Q223 623 218 600T213 546V91Q213 80 212 71T210 55Q209 47 208 40L303 31L299 3L53 -3V29Z"  />
<glyph unicode="&#xCD;" horiz-adv-x="331" d="M253 861H258L291 809V784L89 723L76 756L253 861ZM53 29Q86 33 105 49T125 91V569Q125 587 124 598T116 618T94 631T51 642V667H129Q163 667 184 667T219 669Q234 670 241 671L246 667Q236 656 229 638Q223 623 218 600T213 546V91Q213 80 212 71T210 55Q209 47 208 40L303 31L299 3L53 -3V29Z"  />
<glyph unicode="&#xCE;" horiz-adv-x="331" d="M136 871H189L319 741L292 718L164 799H160L32 718L5 741L136 871ZM53 29Q86 33 105 49T125 91V569Q125 587 124 598T116 618T94 631T51 642V667H129Q163 667 184 667T219 669Q234 670 241 671L246 667Q236 656 229 638Q223 623 218 600T213 546V91Q213 80 212 71T210 55Q209 47 208 40L303 31L299 3L53 -3V29Z"  />
<glyph unicode="&#xCF;" horiz-adv-x="331" d="M53 29Q86 33 105 49T125 91V569Q125 587 124 598T116 618T94 631T51 642V667H129Q163 667 184 667T219 669Q234 670 241 671L246 667Q236 656 229 638Q223 623 218 600T213 546V91Q213 80 212 71T210 55Q209 47 208 40L303 31L299 3L53 -3V29ZM198 793Q198 815 214 831T252 847Q274 847 290 831T306 793Q306 771 290 755T252 739Q230 739 214 755T198 793ZM17 793Q17 815 33 831T71 847Q93 847 109 831T125 793Q125 771 109 755T71 739Q49 739 33 755T17 793Z"  />
<glyph unicode="&#xD0;" horiz-adv-x="746" d="M280 39Q368 39 429 62T528 125T583 219T600 335Q600 401 582 455T527 548T438 607T314 628H224L214 618V360H380V318H214V95Q214 84 213 74T211 56Q210 47 209 39H280ZM35 360H126V569Q126 587 124 598T114 618T90 631T44 642V667H318Q391 667 459 652T581 601T666 506T699 358Q699 273 669 207T583 94T451 24T280 0H199Q180 0 156 0T108 -2Q82 -3 54 -3V29Q88 33 107 48T126 91V318H35V360Z"  />
<glyph unicode="&#xD1;" horiz-adv-x="766" d="M217 740Q221 771 232 796Q242 817 261 835T315 853Q338 853 360 844T404 824T445 803T482 794Q499 794 509 803T526 823Q533 836 537 853L572 850Q568 817 556 791Q545 769 524 751T465 733Q439 733 418 742T378 762T342 783T307 792Q291 792 281 783T263 762Q255 749 251 733L217 740ZM55 29Q89 33 108 48T127 91V541Q127 567 124 584T111 613T86 630T45 642V667H75Q93 667 111 667T143 669Q160 670 175 671Q179 664 184 656Q189 649 195 640T212 619L574 201Q584 189 595 175T614 148V564Q614 580 613 593T604 615T579 630T532 639V667H722L727 653Q707 646 692 633Q679 622 669 602T658 551V-5H632L207 497Q198 508 189 521T171 545V91Q171 80 170 71T168 53Q167 44 166 37L256 31L252 3L55 -3V29Z"  />
<glyph unicode="&#xD2;" horiz-adv-x="795" d="M266 809L299 861H304L481 756L468 723L266 784V809ZM45 325Q45 392 69 456T139 569T252 649T408 679Q486 679 549 654T657 586T726 484T750 357Q750 285 724 219T649 101T534 19T383 -12Q306 -12 244 15T137 88T69 195T45 325ZM144 351Q144 295 161 238T212 134T293 58T403 28Q462 28 508 55T586 125T634 223T651 332Q651 388 634 443T583 541T502 612T391 639Q332 639 287 615T209 550T161 458T144 351Z"  />
<glyph unicode="&#xD3;" horiz-adv-x="795" d="M486 861H491L524 809V784L322 723L309 756L486 861ZM45 325Q45 392 69 456T139 569T252 649T408 679Q486 679 549 654T657 586T726 484T750 357Q750 285 724 219T649 101T534 19T383 -12Q306 -12 244 15T137 88T69 195T45 325ZM144 351Q144 295 161 238T212 134T293 58T403 28Q462 28 508 55T586 125T634 223T651 332Q651 388 634 443T583 541T502 612T391 639Q332 639 287 615T209 550T161 458T144 351Z"  />
<glyph unicode="&#xD4;" horiz-adv-x="795" d="M369 871H422L552 741L525 718L397 799H393L265 718L238 741L369 871ZM45 325Q45 392 69 456T139 569T252 649T408 679Q486 679 549 654T657 586T726 484T750 357Q750 285 724 219T649 101T534 19T383 -12Q306 -12 244 15T137 88T69 195T45 325ZM144 351Q144 295 161 238T212 134T293 58T403 28Q462 28 508 55T586 125T634 223T651 332Q651 388 634 443T583 541T502 612T391 639Q332 639 287 615T209 550T161 458T144 351Z"  />
<glyph unicode="&#xD5;" horiz-adv-x="795" d="M218 740Q222 771 233 796Q243 817 262 835T316 853Q339 853 361 844T405 824T446 803T483 794Q500 794 510 803T527 823Q534 836 538 853L573 850Q569 817 557 791Q546 769 525 751T466 733Q440 733 419 742T379 762T343 783T308 792Q292 792 282 783T264 762Q256 749 252 733L218 740ZM45 325Q45 392 69 456T139 569T252 649T408 679Q486 679 549 654T657 586T726 484T750 357Q750 285 724 219T649 101T534 19T383 -12Q306 -12 244 15T137 88T69 195T45 325ZM144 351Q144 295 161 238T212 134T293 58T403 28Q462 28 508 55T586 125T634 223T651 332Q651 388 634 443T583 541T502 612T391 639Q332 639 287 615T209 550T161 458T144 351Z"  />
<glyph unicode="&#xD6;" horiz-adv-x="795" d="M456 793Q456 815 472 831T510 847Q532 847 548 831T564 793Q564 771 548 755T510 739Q488 739 472 755T456 793ZM225 793Q225 815 241 831T279 847Q301 847 317 831T333 793Q333 771 317 755T279 739Q257 739 241 755T225 793ZM45 325Q45 392 69 456T139 569T252 649T408 679Q486 679 549 654T657 586T726 484T750 357Q750 285 724 219T649 101T534 19T383 -12Q306 -12 244 15T137 88T69 195T45 325ZM144 351Q144 295 161 238T212 134T293 58T403 28Q462 28 508 55T586 125T634 223T651 332Q651 388 634 443T583 541T502 612T391 639Q332 639 287 615T209 550T161 458T144 351Z"  />
<glyph unicode="&#xD7;" horiz-adv-x="520" d="M74 477L260 290L446 477L485 436L300 250L485 65L445 24L260 210L75 24L35 65L220 250L35 436L74 477Z"  />
<glyph unicode="&#xD8;" horiz-adv-x="795" d="M144 351Q144 294 161 237T212 132L551 576Q519 605 480 622T391 639Q332 639 287 615T209 550T161 458T144 351ZM651 332Q651 389 634 444T582 543L243 96Q274 65 314 47T403 28Q462 28 508 55T586 125T634 223T651 332ZM45 325Q45 392 69 456T139 569T252 649T408 679Q462 679 508 667T594 633L643 697H699L631 608Q688 564 719 500T750 357Q750 285 724 219T649 101T534 19T383 -12Q329 -12 283 1T198 38L146 -30H89L161 65Q105 113 75 180T45 325Z"  />
<glyph unicode="&#xD9;" horiz-adv-x="735" d="M250 809L283 861H288L465 756L452 723L250 784V809ZM99 569Q99 587 98 598T90 618T68 631T25 642V667H103Q137 667 158 667T193 669Q208 670 215 671L220 667Q210 656 203 638Q197 623 192 600T187 546V243Q187 188 204 149T249 84T312 46T386 33Q423 33 460 45T526 83T573 147T591 236V564Q591 580 590 593T581 615T557 630T510 639V667H704L709 653Q689 646 674 633Q661 622 651 602T640 551V239Q640 178 618 131T559 53T471 5T364 -12Q314 -12 267 1T182 43T122 119T99 235V569Z"  />
<glyph unicode="&#xDA;" horiz-adv-x="735" d="M470 861H475L508 809V784L306 723L293 756L470 861ZM99 569Q99 587 98 598T90 618T68 631T25 642V667H103Q137 667 158 667T193 669Q208 670 215 671L220 667Q210 656 203 638Q197 623 192 600T187 546V243Q187 188 204 149T249 84T312 46T386 33Q423 33 460 45T526 83T573 147T591 236V564Q591 580 590 593T581 615T557 630T510 639V667H704L709 653Q689 646 674 633Q661 622 651 602T640 551V239Q640 178 618 131T559 53T471 5T364 -12Q314 -12 267 1T182 43T122 119T99 235V569Z"  />
<glyph unicode="&#xDB;" horiz-adv-x="735" d="M353 871H406L536 741L509 718L381 799H377L249 718L222 741L353 871ZM99 569Q99 587 98 598T90 618T68 631T25 642V667H103Q137 667 158 667T193 669Q208 670 215 671L220 667Q210 656 203 638Q197 623 192 600T187 546V243Q187 188 204 149T249 84T312 46T386 33Q423 33 460 45T526 83T573 147T591 236V564Q591 580 590 593T581 615T557 630T510 639V667H704L709 653Q689 646 674 633Q661 622 651 602T640 551V239Q640 178 618 131T559 53T471 5T364 -12Q314 -12 267 1T182 43T122 119T99 235V569Z"  />
<glyph unicode="&#xDC;" horiz-adv-x="735" d="M440 793Q440 815 456 831T494 847Q516 847 532 831T548 793Q548 771 532 755T494 739Q472 739 456 755T440 793ZM209 793Q209 815 225 831T263 847Q285 847 301 831T317 793Q317 771 301 755T263 739Q241 739 225 755T209 793ZM99 569Q99 587 98 598T90 618T68 631T25 642V667H103Q137 667 158 667T193 669Q208 670 215 671L220 667Q210 656 203 638Q197 623 192 600T187 546V243Q187 188 204 149T249 84T312 46T386 33Q423 33 460 45T526 83T573 147T591 236V564Q591 580 590 593T581 615T557 630T510 639V667H704L709 653Q689 646 674 633Q661 622 651 602T640 551V239Q640 178 618 131T559 53T471 5T364 -12Q314 -12 267 1T182 43T122 119T99 235V569Z"  />
<glyph unicode="&#xDD;" horiz-adv-x="585" d="M389 861H394L427 809V784L225 723L212 756L389 861ZM177 29Q210 33 229 49T249 91V295L57 598Q48 612 39 620T21 634Q12 639 4 642V667H52Q75 667 94 667T127 669Q143 670 154 671L158 667Q153 656 151 644Q149 633 150 621T160 595L284 395Q292 383 299 368T313 339L462 580Q474 600 467 618T422 642V667H585L589 653Q577 648 566 640Q555 633 543 622T520 592L337 297V91Q337 80 336 71T334 55Q333 47 332 40L422 31L418 3L177 -3V29Z"  />
<glyph unicode="&#xDE;" horiz-adv-x="561" d="M277 185Q320 186 351 198T401 229T429 273T438 324Q438 364 422 393T378 440T314 466T238 475H223L213 465V91Q213 80 212 71T210 55Q209 47 208 40L303 31L299 3L53 -3V29Q86 33 105 49T125 91V569Q125 587 124 598T116 618T94 631T51 642V667H129Q163 667 184 667T219 669Q234 670 241 671L246 667Q236 656 229 638Q223 623 218 600T213 546V514H291Q334 514 377 505T456 476T514 424T536 345Q536 289 511 251T447 191T363 161T277 157V185Z"  />
<glyph unicode="&#xDF;" horiz-adv-x="555" d="M37 26Q71 30 85 46T99 88V399H36V429L99 451V474Q99 516 110 559T148 638T214 695T314 718Q380 718 420 687T461 604Q461 572 444 546T406 495T368 445T350 393Q350 369 363 350T397 313T442 277T486 238T520 190T534 128Q534 92 520 66T483 23T430 -3T370 -12Q352 -12 329 -9T285 3T251 26T237 61Q237 79 244 98Q247 108 251 117H281Q289 67 312 45T371 22Q386 22 401 26T430 38T452 61T461 95Q461 120 448 140T416 178T373 214T331 252T298 296T285 353Q285 388 300 414T334 465T367 516T383 575Q383 623 356 649T287 676Q230 676 206 627T181 491V53Q181 42 181 33T183 18Q184 11 185 5L182 2L37 -3V26Z"  />
<glyph unicode="&#xE0;" horiz-adv-x="460" d="M88 702L175 693L260 522L229 505L88 675V702ZM172 45Q187 45 202 51T233 67T261 86T285 105V223L254 218Q233 215 209 207T164 186T130 154T116 107Q116 77 132 61T172 45ZM28 89Q28 125 48 152T100 200T172 232T251 251L285 256Q285 264 285 277T286 306T284 337T281 363Q276 391 261 409T218 427Q192 427 173 412T139 379Q123 358 112 331H80L63 406Q85 422 113 434Q137 445 171 453T248 462Q283 462 306 455T342 430T361 386T367 319V89Q367 65 372 54T394 42Q404 42 414 45T432 52Q441 56 449 62L462 41Q448 25 431 14Q417 4 398 -4T356 -12Q327 -12 308 5T288 59V83Q272 56 249 35Q229 17 200 3T132 -12Q82 -12 55 18T28 89Z"  />
<glyph unicode="&#xE1;" horiz-adv-x="460" d="M180 522L265 693L352 702V675L211 505L180 522ZM172 45Q187 45 202 51T233 67T261 86T285 105V223L254 218Q233 215 209 207T164 186T130 154T116 107Q116 77 132 61T172 45ZM28 89Q28 125 48 152T100 200T172 232T251 251L285 256Q285 264 285 277T286 306T284 337T281 363Q276 391 261 409T218 427Q192 427 173 412T139 379Q123 358 112 331H80L63 406Q85 422 113 434Q137 445 171 453T248 462Q283 462 306 455T342 430T361 386T367 319V89Q367 65 372 54T394 42Q404 42 414 45T432 52Q441 56 449 62L462 41Q448 25 431 14Q417 4 398 -4T356 -12Q327 -12 308 5T288 59V83Q272 56 249 35Q229 17 200 3T132 -12Q82 -12 55 18T28 89Z"  />
<glyph unicode="&#xE2;" horiz-adv-x="460" d="M201 698H240L355 522L325 503L220 619L115 503L85 522L201 698ZM172 45Q187 45 202 51T233 67T261 86T285 105V223L254 218Q233 215 209 207T164 186T130 154T116 107Q116 77 132 61T172 45ZM28 89Q28 125 48 152T100 200T172 232T251 251L285 256Q285 264 285 277T286 306T284 337T281 363Q276 391 261 409T218 427Q192 427 173 412T139 379Q123 358 112 331H80L63 406Q85 422 113 434Q137 445 171 453T248 462Q283 462 306 455T342 430T361 386T367 319V89Q367 65 372 54T394 42Q404 42 414 45T432 52Q441 56 449 62L462 41Q448 25 431 14Q417 4 398 -4T356 -12Q327 -12 308 5T288 59V83Q272 56 249 35Q229 17 200 3T132 -12Q82 -12 55 18T28 89Z"  />
<glyph unicode="&#xE3;" horiz-adv-x="460" d="M75 562Q74 596 83 623Q91 646 108 665T160 684Q185 684 202 673T232 648T257 623T286 611Q302 611 310 621T323 644Q327 659 328 678H365Q366 642 357 615Q349 591 331 572T278 552Q252 552 236 563T207 588T182 613T153 625Q137 625 129 615T117 593Q113 579 112 562H75ZM172 45Q187 45 202 51T233 67T261 86T285 105V223L254 218Q233 215 209 207T164 186T130 154T116 107Q116 77 132 61T172 45ZM28 89Q28 125 48 152T100 200T172 232T251 251L285 256Q285 264 285 277T286 306T284 337T281 363Q276 391 261 409T218 427Q192 427 173 412T139 379Q123 358 112 331H80L63 406Q85 422 113 434Q137 445 171 453T248 462Q283 462 306 455T342 430T361 386T367 319V89Q367 65 372 54T394 42Q404 42 414 45T432 52Q441 56 449 62L462 41Q448 25 431 14Q417 4 398 -4T356 -12Q327 -12 308 5T288 59V83Q272 56 249 35Q229 17 200 3T132 -12Q82 -12 55 18T28 89Z"  />
<glyph unicode="&#xE4;" horiz-adv-x="460" d="M310 564Q288 564 272 580T256 618Q256 640 272 656T310 672Q332 672 348 656T364 618Q364 596 348 580T310 564ZM129 564Q107 564 91 580T75 618Q75 640 91 656T129 672Q151 672 167 656T183 618Q183 596 167 580T129 564ZM172 45Q187 45 202 51T233 67T261 86T285 105V223L254 218Q233 215 209 207T164 186T130 154T116 107Q116 77 132 61T172 45ZM28 89Q28 125 48 152T100 200T172 232T251 251L285 256Q285 264 285 277T286 306T284 337T281 363Q276 391 261 409T218 427Q192 427 173 412T139 379Q123 358 112 331H80L63 406Q85 422 113 434Q137 445 171 453T248 462Q283 462 306 455T342 430T361 386T367 319V89Q367 65 372 54T394 42Q404 42 414 45T432 52Q441 56 449 62L462 41Q448 25 431 14Q417 4 398 -4T356 -12Q327 -12 308 5T288 59V83Q272 56 249 35Q229 17 200 3T132 -12Q82 -12 55 18T28 89Z"  />
<glyph unicode="&#xE5;" horiz-adv-x="460" d="M220 570Q243 570 255 585T268 619Q268 637 257 652T220 667Q194 667 184 652T173 619Q173 600 184 585T220 570ZM172 45Q187 45 202 51T233 67T261 86T285 105V223L254 218Q233 215 209 207T164 186T130 154T116 107Q116 77 132 61T172 45ZM220 536Q196 536 179 543T149 563T132 590T126 620Q126 651 149 676T220 701Q268 701 291 676T314 620Q314 605 309 590T291 563T262 544T220 536ZM28 89Q28 125 48 152T100 200T172 232T251 251L285 256Q285 264 285 277T286 306T284 337T281 363Q276 391 261 409T218 427Q192 427 173 412T139 379Q123 358 112 331H80L63 406Q85 422 113 434Q137 445 171 453T248 462Q283 462 306 455T342 430T361 386T367 319V89Q367 65 372 54T394 42Q404 42 414 45T432 52Q441 56 449 62L462 41Q448 25 431 14Q417 4 398 -4T356 -12Q327 -12 308 5T288 59V83Q272 56 249 35Q229 17 200 3T132 -12Q82 -12 55 18T28 89Z"  />
<glyph unicode="&#xE6;" horiz-adv-x="709" d="M484 424Q459 424 440 412T406 380T382 334T370 279L576 315Q573 345 562 369Q553 389 535 406T484 424ZM171 45Q188 45 209 53T248 79T278 125T291 193V229Q265 224 234 217T177 196T132 161T114 107Q114 79 129 62T171 45ZM26 91Q26 126 46 154T101 204T186 241T292 265V290Q292 318 290 343T280 386T260 416T225 427Q198 427 179 412T145 379Q129 358 118 331H86L69 406Q91 422 119 434Q143 445 177 453T253 462Q304 462 327 446T361 395Q385 425 419 443T499 462Q532 462 562 452T616 421T653 370T669 299Q660 297 652 294Q636 289 623 287L369 242Q369 207 378 173T407 113T457 71T531 55Q562 55 586 62T627 79Q646 90 661 103L672 82Q654 55 628 35Q605 17 572 3T492 -12Q428 -12 382 20T315 118Q306 92 290 69T252 27T204 -1T146 -12Q88 -12 57 18T26 91Z"  />
<glyph unicode="&#xE7;" horiz-adv-x="441" d="M178 -82Q178 -73 181 -63T190 -43T201 -23T211 -8Q168 -1 136 20T82 71T49 139T38 216Q38 261 52 305T93 384T160 440T252 462Q275 462 302 458T354 444T394 420T410 386Q410 372 400 361T372 350Q353 350 341 362T316 389T287 416T245 428Q215 428 192 413T153 373T129 315T120 245Q120 209 129 175T158 114T209 71T285 55Q313 55 334 61T371 75Q389 84 401 96L412 75Q397 50 374 31Q354 14 324 1T250 -12H244Q241 -20 239 -29T236 -46Q236 -59 249 -66T278 -81T307 -102T320 -140Q320 -158 312 -176T289 -207T254 -229T209 -238Q188 -238 171 -233T142 -220Q128 -212 118 -202L133 -170Q143 -178 154 -183Q164 -188 176 -191T203 -195Q226 -195 240 -185T255 -159Q255 -146 243 -138T217 -123T190 -106T178 -82Z"  />
<glyph unicode="&#xE8;" horiz-adv-x="460" d="M107 702L194 693L279 522L248 505L107 675V702ZM234 424Q209 424 189 413T155 382T132 337T120 283L330 310Q326 341 315 367Q305 388 286 406T234 424ZM38 216Q38 267 54 312T98 390T165 442T249 462Q281 462 312 452T367 420T406 368T423 296Q415 294 407 291Q400 289 393 287T377 283L128 247L118 235Q119 201 129 169T158 111T208 71T280 55Q311 55 335 62T376 79Q395 90 410 103L421 82Q405 55 380 35Q359 17 327 3T250 -12Q197 -12 157 7T91 58T51 131T38 216Z"  />
<glyph unicode="&#xE9;" horiz-adv-x="460" d="M199 522L284 693L371 702V675L230 505L199 522ZM234 424Q209 424 189 413T155 382T132 337T120 283L330 310Q326 341 315 367Q305 388 286 406T234 424ZM38 216Q38 267 54 312T98 390T165 442T249 462Q281 462 312 452T367 420T406 368T423 296Q415 294 407 291Q400 289 393 287T377 283L128 247L118 235Q119 201 129 169T158 111T208 71T280 55Q311 55 335 62T376 79Q395 90 410 103L421 82Q405 55 380 35Q359 17 327 3T250 -12Q197 -12 157 7T91 58T51 131T38 216Z"  />
<glyph unicode="&#xEA;" horiz-adv-x="460" d="M220 698H259L374 522L344 503L239 619L134 503L104 522L220 698ZM234 424Q209 424 189 413T155 382T132 337T120 283L330 310Q326 341 315 367Q305 388 286 406T234 424ZM38 216Q38 267 54 312T98 390T165 442T249 462Q281 462 312 452T367 420T406 368T423 296Q415 294 407 291Q400 289 393 287T377 283L128 247L118 235Q119 201 129 169T158 111T208 71T280 55Q311 55 335 62T376 79Q395 90 410 103L421 82Q405 55 380 35Q359 17 327 3T250 -12Q197 -12 157 7T91 58T51 131T38 216Z"  />
<glyph unicode="&#xEB;" horiz-adv-x="460" d="M329 564Q307 564 291 580T275 618Q275 640 291 656T329 672Q351 672 367 656T383 618Q383 596 367 580T329 564ZM148 564Q126 564 110 580T94 618Q94 640 110 656T148 672Q170 672 186 656T202 618Q202 596 186 580T148 564ZM234 424Q209 424 189 413T155 382T132 337T120 283L330 310Q326 341 315 367Q305 388 286 406T234 424ZM38 216Q38 267 54 312T98 390T165 442T249 462Q281 462 312 452T367 420T406 368T423 296Q415 294 407 291Q400 289 393 287T377 283L128 247L118 235Q119 201 129 169T158 111T208 71T280 55Q311 55 335 62T376 79Q395 90 410 103L421 82Q405 55 380 35Q359 17 327 3T250 -12Q197 -12 157 7T91 58T51 131T38 216Z"  />
<glyph unicode="&#xEC;" horiz-adv-x="277" d="M0 702L87 693L172 522L141 505L0 675V702ZM38 26Q72 30 86 47T100 91V334Q100 366 96 384T70 402H25V429Q80 442 112 450T163 465Q183 471 192 476L193 473Q190 462 187 446Q185 432 184 411T182 359V91Q182 80 181 71T179 53Q178 44 177 37L262 28L258 3L38 -3V26Z"  />
<glyph unicode="&#xED;" horiz-adv-x="277" d="M92 522L177 693L264 702V675L123 505L92 522ZM38 26Q72 30 86 47T100 91V334Q100 366 96 384T70 402H25V429Q80 442 112 450T163 465Q183 471 192 476L193 473Q190 462 187 446Q185 432 184 411T182 359V91Q182 80 181 71T179 53Q178 44 177 37L262 28L258 3L38 -3V26Z"  />
<glyph unicode="&#xEE;" horiz-adv-x="277" d="M113 698H152L267 522L237 503L132 619L27 503L-3 522L113 698ZM38 26Q72 30 86 47T100 91V334Q100 366 96 384T70 402H25V429Q80 442 112 450T163 465Q183 471 192 476L193 473Q190 462 187 446Q185 432 184 411T182 359V91Q182 80 181 71T179 53Q178 44 177 37L262 28L258 3L38 -3V26Z"  />
<glyph unicode="&#xEF;" horiz-adv-x="277" d="M38 26Q72 30 86 47T100 91V334Q100 366 96 384T70 402H25V429Q80 442 112 450T163 465Q183 471 192 476L193 473Q190 462 187 446Q185 432 184 411T182 359V91Q182 80 181 71T179 53Q178 44 177 37L262 28L258 3L38 -3V26ZM163 618Q163 640 179 656T217 672Q239 672 255 656T271 618Q271 596 255 580T217 564Q195 564 179 580T163 618ZM-8 618Q-8 640 8 656T46 672Q68 672 84 656T100 618Q100 596 84 580T46 564Q24 564 8 580T-8 618Z"  />
<glyph unicode="&#xF0;" horiz-adv-x="526" d="M124 227Q124 192 132 156T155 90T195 41T252 22Q280 22 305 37T349 82T379 156T390 257Q390 283 386 313T369 368T335 409T276 426Q241 426 213 411T166 370T135 307T124 227ZM112 548L238 624Q206 653 168 676T83 714L93 740Q150 729 199 708T290 656L423 737L442 702L323 629Q396 562 436 471T477 282Q477 219 462 166T416 73T343 11T244 -12Q193 -12 154 6T89 55T50 125T37 208Q37 255 52 300T96 382T168 440T265 462Q295 462 318 457T356 445Q341 486 319 523T267 595L132 513L112 548Z"  />
<glyph unicode="&#xF1;" horiz-adv-x="572" d="M146 562Q145 596 154 623Q162 646 179 665T231 684Q256 684 273 673T303 648T328 623T357 611Q373 611 381 621T394 644Q398 659 399 678H436Q437 642 428 615Q420 591 402 572T349 552Q323 552 307 563T278 588T253 613T224 625Q208 625 200 615T188 593Q184 579 183 562H146ZM38 26Q72 30 86 47T100 91V334Q100 366 96 384T70 402H25V429Q62 437 91 445T142 460Q167 468 185 476L188 473Q185 462 183 445Q181 431 180 408T178 351Q191 371 211 391T255 426T307 452T368 462Q420 462 451 431T482 327V91Q482 80 481 70T479 53Q478 44 477 38L562 28L558 3L343 -3V26Q377 30 388 47T400 91V305Q400 362 381 381T331 401Q296 401 255 382T182 331V91Q182 80 181 70T179 53Q178 44 177 38L257 28L253 3L38 -3V26Z"  />
<glyph unicode="&#xF2;" horiz-adv-x="532" d="M132 702L219 693L304 522L273 505L132 675V702ZM130 238Q130 200 138 162T163 93T206 42T271 22Q303 22 327 37T368 78T393 140T402 215Q402 252 394 290T369 358T326 408T261 428Q226 428 202 412T161 369T138 308T130 238ZM38 215Q38 259 51 303T92 382T164 440T273 462Q328 462 369 445T438 399T480 329T494 243Q494 196 480 151T436 69T362 11T257 -12Q204 -12 163 5T95 53T53 125T38 215Z"  />
<glyph unicode="&#xF3;" horiz-adv-x="532" d="M224 522L309 693L396 702V675L255 505L224 522ZM130 238Q130 200 138 162T163 93T206 42T271 22Q303 22 327 37T368 78T393 140T402 215Q402 252 394 290T369 358T326 408T261 428Q226 428 202 412T161 369T138 308T130 238ZM38 215Q38 259 51 303T92 382T164 440T273 462Q328 462 369 445T438 399T480 329T494 243Q494 196 480 151T436 69T362 11T257 -12Q204 -12 163 5T95 53T53 125T38 215Z"  />
<glyph unicode="&#xF4;" horiz-adv-x="532" d="M245 698H284L399 522L369 503L264 619L159 503L129 522L245 698ZM130 238Q130 200 138 162T163 93T206 42T271 22Q303 22 327 37T368 78T393 140T402 215Q402 252 394 290T369 358T326 408T261 428Q226 428 202 412T161 369T138 308T130 238ZM38 215Q38 259 51 303T92 382T164 440T273 462Q328 462 369 445T438 399T480 329T494 243Q494 196 480 151T436 69T362 11T257 -12Q204 -12 163 5T95 53T53 125T38 215Z"  />
<glyph unicode="&#xF5;" horiz-adv-x="532" d="M119 562Q118 596 127 623Q135 646 152 665T204 684Q229 684 246 673T276 648T301 623T330 611Q346 611 354 621T367 644Q371 659 372 678H409Q410 642 401 615Q393 591 375 572T322 552Q296 552 280 563T251 588T226 613T197 625Q181 625 173 615T161 593Q157 579 156 562H119ZM130 238Q130 200 138 162T163 93T206 42T271 22Q303 22 327 37T368 78T393 140T402 215Q402 252 394 290T369 358T326 408T261 428Q226 428 202 412T161 369T138 308T130 238ZM38 215Q38 259 51 303T92 382T164 440T273 462Q328 462 369 445T438 399T480 329T494 243Q494 196 480 151T436 69T362 11T257 -12Q204 -12 163 5T95 53T53 125T38 215Z"  />
<glyph unicode="&#xF6;" horiz-adv-x="532" d="M354 564Q332 564 316 580T300 618Q300 640 316 656T354 672Q376 672 392 656T408 618Q408 596 392 580T354 564ZM173 564Q151 564 135 580T119 618Q119 640 135 656T173 672Q195 672 211 656T227 618Q227 596 211 580T173 564ZM130 238Q130 200 138 162T163 93T206 42T271 22Q303 22 327 37T368 78T393 140T402 215Q402 252 394 290T369 358T326 408T261 428Q226 428 202 412T161 369T138 308T130 238ZM38 215Q38 259 51 303T92 382T164 440T273 462Q328 462 369 445T438 399T480 329T494 243Q494 196 480 151T436 69T362 11T257 -12Q204 -12 163 5T95 53T53 125T38 215Z"  />
<glyph unicode="&#xF7;" horiz-adv-x="520" d="M260 382Q235 382 218 399T200 442Q200 467 217 484T260 502Q285 502 302 485T320 442Q320 417 303 400T260 382ZM200 59Q200 84 217 101T260 119Q285 119 302 102T320 59Q320 34 303 17T260 -1Q235 -1 218 16T200 59ZM36 278H484V223H36V278Z"  />
<glyph unicode="&#xF8;" horiz-adv-x="532" d="M402 215Q402 247 396 279T378 340L177 70Q194 47 217 35T271 22Q303 22 327 37T368 78T393 140T402 215ZM130 238Q130 205 135 172T154 110L355 380Q338 402 315 415T261 428Q226 428 202 412T161 369T138 308T130 238ZM105 43Q72 74 55 118T38 215Q38 259 51 303T92 382T164 440T273 462Q309 462 339 454T394 432L430 480H482L428 408Q461 378 477 336T494 243Q494 196 480 151T436 69T362 11T257 -12Q222 -12 193 -4T138 18L103 -30H50L105 43Z"  />
<glyph unicode="&#xF9;" horiz-adv-x="559" d="M142 702L229 693L314 522L283 505L142 675V702ZM86 334Q86 366 82 384T56 402H21V430Q57 436 85 443T133 455Q156 461 173 467L177 464Q174 455 172 440Q170 427 169 408T168 359V145Q168 88 186 69T236 49Q271 49 310 68T381 120V334Q381 366 377 384T351 402H318V430Q354 436 381 443T429 455Q451 461 468 467L472 464Q469 455 467 440Q465 427 464 408T463 359V95Q463 74 467 62T478 45T496 39T519 38H547L544 11Q502 6 472 3T421 -3Q397 -7 380 -9L376 -6Q378 3 380 12Q382 20 383 29T385 48V100Q371 80 353 60T310 24T258 -2T199 -12Q146 -12 116 19T86 122V334Z"  />
<glyph unicode="&#xFA;" horiz-adv-x="559" d="M234 522L319 693L406 702V675L265 505L234 522ZM86 334Q86 366 82 384T56 402H21V430Q57 436 85 443T133 455Q156 461 173 467L177 464Q174 455 172 440Q170 427 169 408T168 359V145Q168 88 186 69T236 49Q271 49 310 68T381 120V334Q381 366 377 384T351 402H318V430Q354 436 381 443T429 455Q451 461 468 467L472 464Q469 455 467 440Q465 427 464 408T463 359V95Q463 74 467 62T478 45T496 39T519 38H547L544 11Q502 6 472 3T421 -3Q397 -7 380 -9L376 -6Q378 3 380 12Q382 20 383 29T385 48V100Q371 80 353 60T310 24T258 -2T199 -12Q146 -12 116 19T86 122V334Z"  />
<glyph unicode="&#xFB;" horiz-adv-x="559" d="M255 698H294L409 522L379 503L274 619L169 503L139 522L255 698ZM86 334Q86 366 82 384T56 402H21V430Q57 436 85 443T133 455Q156 461 173 467L177 464Q174 455 172 440Q170 427 169 408T168 359V145Q168 88 186 69T236 49Q271 49 310 68T381 120V334Q381 366 377 384T351 402H318V430Q354 436 381 443T429 455Q451 461 468 467L472 464Q469 455 467 440Q465 427 464 408T463 359V95Q463 74 467 62T478 45T496 39T519 38H547L544 11Q502 6 472 3T421 -3Q397 -7 380 -9L376 -6Q378 3 380 12Q382 20 383 29T385 48V100Q371 80 353 60T310 24T258 -2T199 -12Q146 -12 116 19T86 122V334Z"  />
<glyph unicode="&#xFC;" horiz-adv-x="559" d="M364 564Q342 564 326 580T310 618Q310 640 326 656T364 672Q386 672 402 656T418 618Q418 596 402 580T364 564ZM183 564Q161 564 145 580T129 618Q129 640 145 656T183 672Q205 672 221 656T237 618Q237 596 221 580T183 564ZM86 334Q86 366 82 384T56 402H21V430Q57 436 85 443T133 455Q156 461 173 467L177 464Q174 455 172 440Q170 427 169 408T168 359V145Q168 88 186 69T236 49Q271 49 310 68T381 120V334Q381 366 377 384T351 402H318V430Q354 436 381 443T429 455Q451 461 468 467L472 464Q469 455 467 440Q465 427 464 408T463 359V95Q463 74 467 62T478 45T496 39T519 38H547L544 11Q502 6 472 3T421 -3Q397 -7 380 -9L376 -6Q378 3 380 12Q382 20 383 29T385 48V100Q371 80 353 60T310 24T258 -2T199 -12Q146 -12 116 19T86 122V334Z"  />
<glyph unicode="&#xFD;" horiz-adv-x="461" d="M201 522L286 693L373 702V675L232 505L201 522ZM71 -154Q111 -154 137 -132T177 -79L209 -4Q205 7 199 23T185 61L57 367Q49 386 39 397T21 415Q11 422 1 425V450H48Q71 450 90 450T123 452Q139 453 150 454L154 450Q145 432 145 405T153 358L234 155Q239 142 244 126T253 95L366 353Q372 368 370 379T359 400T338 415T311 425V450H450L455 434Q450 431 444 424Q439 418 433 408T419 381L246 -12Q236 -35 220 -72T182 -147T131 -210T66 -237Q44 -237 33 -225T22 -195Q22 -180 33 -167T71 -154Z"  />
<glyph unicode="&#xFE;" horiz-adv-x="520" d="M76 599Q76 631 72 649T46 667H4V694Q47 703 77 711T128 726Q151 733 165 739L168 736Q165 725 163 708Q161 694 160 673T158 622V473Q158 458 158 442T157 413Q156 398 156 384Q166 397 178 410T208 435T248 454T300 462Q346 462 380 444T436 395T470 325T482 244Q482 196 467 150T420 68T340 10T225 -12Q205 -12 189 -10T158 -6V-121Q158 -132 157 -142T155 -161Q154 -171 153 -178H258L254 -202Q208 -208 166 -215Q129 -221 90 -228T24 -245V-216Q41 -207 51 -198T66 -177T74 -153T76 -122V599ZM158 80Q158 62 164 52T181 36T205 28T230 26Q308 26 351 77T395 215Q395 251 387 285T363 345T322 388T264 404Q235 404 208 392T158 362V80Z"  />
<glyph unicode="&#xFF;" horiz-adv-x="461" d="M150 564Q128 564 112 580T96 618Q96 640 112 656T150 672Q172 672 188 656T204 618Q204 596 188 580T150 564ZM331 564Q309 564 293 580T277 618Q277 640 293 656T331 672Q353 672 369 656T385 618Q385 596 369 580T331 564ZM71 -154Q111 -154 137 -132T177 -79L209 -4Q205 7 199 23T185 61L57 367Q49 386 39 397T21 415Q11 422 1 425V450H48Q71 450 90 450T123 452Q139 453 150 454L154 450Q145 432 145 405T153 358L234 155Q239 142 244 126T253 95L366 353Q372 368 370 379T359 400T338 415T311 425V450H450L455 434Q450 431 444 424Q439 418 433 408T419 381L246 -12Q236 -35 220 -72T182 -147T131 -210T66 -237Q44 -237 33 -225T22 -195Q22 -180 33 -167T71 -154Z"  />
<glyph unicode="&#x152;" horiz-adv-x="992" d="M144 353Q144 296 161 239T213 134T301 58T426 28Q436 28 454 29T490 37T520 56T533 91V579Q533 600 520 612T490 630T454 637T423 639Q350 639 297 615T210 550T160 459T144 353ZM45 323Q45 390 69 454T141 568T256 648T411 679Q456 679 494 673T570 667H863Q878 667 891 667T914 669Q925 670 935 671L904 504H870Q872 543 867 567T848 604T814 623T762 628H631L621 618V358H806L814 415L851 421V245H804V319H631L621 309V95Q621 84 620 74T618 56Q617 47 616 39H773Q805 39 825 43T860 61T888 99T921 163H955L918 0H566Q539 0 519 -2T479 -6T441 -10T398 -12Q316 -12 251 15T140 88T70 194T45 323Z"  />
<glyph unicode="&#x153;" horiz-adv-x="832" d="M606 424Q581 424 561 413T527 382T504 337T492 283L702 310Q698 341 687 367Q677 388 658 406T606 424ZM130 238Q130 200 138 162T163 93T206 42T271 22Q303 22 327 37T368 78T393 140T402 215Q402 252 394 290T369 358T326 408T261 428Q226 428 202 412T161 369T138 308T130 238ZM38 215Q38 259 51 303T92 382T164 440T273 462Q339 462 383 437T452 366Q481 411 524 436T621 462Q653 462 684 452T739 420T778 368T795 296Q787 294 779 291Q772 289 765 287T749 283L501 246L490 234Q491 200 501 168T530 110T580 70T652 55Q683 55 707 62T748 79Q767 90 782 103L793 82Q776 55 750 35Q728 17 694 3T614 -12Q554 -12 513 14T447 85Q418 42 371 15T257 -12Q204 -12 163 5T95 53T53 125T38 215Z"  />
<glyph unicode="&#x160;" horiz-adv-x="506" d="M133 871L261 790H265L393 871L420 848L290 718H237L106 848L133 871ZM44 91Q44 97 45 103T48 118T55 142T67 180H101Q101 134 114 105T148 58T194 33T246 26Q270 26 293 31T334 49T362 82T373 131Q373 174 350 205T292 260T217 307T141 356T83 419T60 505Q60 542 74 574T116 629T185 665T283 679Q310 679 336 677T384 671T423 664T448 660L417 504H383Q387 532 382 557T362 600T325 630T271 641Q246 641 224 635T184 617T157 584T147 537Q147 493 170 464T228 411T303 366T379 318T437 255T460 164Q460 119 442 86T394 31T323 -1T237 -12Q204 -12 170 -6T108 12T62 44T44 91Z"  />
<glyph unicode="&#x161;" horiz-adv-x="386" d="M64 689L94 708L199 600L304 708L334 689L219 523H180L64 689ZM39 56Q39 64 41 76T45 101Q48 115 52 132H82Q84 100 95 79T123 45T158 27T195 22Q232 22 255 40T278 90Q278 117 261 135T219 169T164 198T109 231T66 274T49 335Q49 391 90 426T212 462Q235 462 257 459T297 453Q318 449 337 444L317 341H286Q286 372 275 389T249 415T219 426T196 428Q155 428 138 408T121 364Q121 337 138 320T180 289T235 261T290 230T332 185T349 119Q349 56 305 22T189 -12Q172 -12 147 -10T97 0T56 21T39 56Z"  />
<glyph unicode="&#x178;" horiz-adv-x="585" d="M128 793Q128 815 144 831T182 847Q204 847 220 831T236 793Q236 771 220 755T182 739Q160 739 144 755T128 793ZM359 793Q359 815 375 831T413 847Q435 847 451 831T467 793Q467 771 451 755T413 739Q391 739 375 755T359 793ZM177 29Q210 33 229 49T249 91V295L57 598Q48 612 39 620T21 634Q12 639 4 642V667H52Q75 667 94 667T127 669Q143 670 154 671L158 667Q153 656 151 644Q149 633 150 621T160 595L284 395Q292 383 299 368T313 339L462 580Q474 600 467 618T422 642V667H585L589 653Q577 648 566 640Q555 633 543 622T520 592L337 297V91Q337 80 336 71T334 55Q333 47 332 40L422 31L418 3L177 -3V29Z"  />
<glyph unicode="&#x17D;" horiz-adv-x="610" d="M189 871L317 790H321L449 871L476 848L346 718H293L162 848L189 871ZM28 32Q34 38 43 49Q50 58 60 71T83 103L417 579Q425 590 435 603T456 628H236Q205 628 184 623T146 605T117 567T89 504H55L80 667H490Q504 667 516 667T537 669Q547 670 554 671L558 635Q553 629 546 619Q540 611 531 597T508 564L177 88Q169 76 158 63T137 39H389Q421 39 442 45T478 68T508 113T541 183H575L534 0H98Q83 0 71 0T51 -2Q41 -3 34 -4L28 32Z"  />
<glyph unicode="&#x17E;" horiz-adv-x="439" d="M100 689L130 708L235 600L340 708L370 689L255 523H216L100 689ZM32 22Q36 26 41 32Q46 37 52 46T68 70L262 369Q269 380 279 393T298 417H165Q142 417 126 408T98 385T79 357T69 332H40L58 450H321Q337 450 349 450T371 452Q382 453 389 454L397 428Q395 426 391 421Q385 414 363 380L174 84Q166 72 156 59T137 34H259Q295 34 318 49T355 84Q371 106 378 134H407L380 0H108Q91 0 79 0T58 -2Q47 -3 40 -4L32 22Z"  />
<glyph unicode="&#x192;" horiz-adv-x="455" d="M47 343H183Q196 433 213 497T256 601T316 660T396 679Q411 679 426 677T452 670T471 656T478 634Q478 616 466 606T437 596Q419 596 406 601T381 611T358 622T335 627Q324 627 316 621T300 586T284 500T264 343H418L404 303H260Q258 293 258 284T256 265Q242 135 224 47T178 -96T115 -175T28 -199Q13 -199 -2 -197T-28 -190T-47 -177T-54 -154Q-54 -136 -42 -126T-13 -116Q5 -116 18 -121T43 -131T66 -142T89 -147Q96 -147 102 -144T115 -127T127 -88T140 -16T155 98T174 265L178 303H47V343Z"  />
<glyph unicode="&#x2C6;" horiz-adv-x="500" d="M231 698H270L385 522L355 503L250 619L145 503L115 522L231 698Z"  />
<glyph unicode="&#x2DC;" horiz-adv-x="500" d="M105 562Q104 596 113 623Q121 646 138 665T190 684Q215 684 232 673T262 648T287 623T316 611Q332 611 340 621T353 644Q357 659 358 678H395Q396 642 387 615Q379 591 361 572T308 552Q282 552 266 563T237 588T212 613T183 625Q167 625 159 615T147 593Q143 579 142 562H105Z"  />
<glyph unicode="&#x2013;" horiz-adv-x="536" d="M63 281H473V226H63V281Z"  />
<glyph unicode="&#x2014;" horiz-adv-x="926" d="M63 281H863V226H63V281Z"  />
<glyph unicode="&#x2018;" horiz-adv-x="202" d="M43 577Q43 617 67 657T142 731L164 707Q99 656 99 620Q99 585 166 552V517L89 476Q43 519 43 577Z"  />
<glyph unicode="&#x2019;" horiz-adv-x="201" d="M44 691L121 732Q167 689 167 631Q167 591 143 551T68 477L46 501Q111 552 111 588Q111 623 44 656V691Z"  />
<glyph unicode="&#x201A;" horiz-adv-x="233" d="M55 78L132 119Q178 76 178 18Q178 -22 154 -62T79 -136L57 -112Q122 -61 122 -25Q122 10 55 43V78Z"  />
<glyph unicode="&#x201C;" horiz-adv-x="364" d="M43 577Q43 617 67 657T142 731L164 707Q99 656 99 620Q99 585 166 552V517L89 476Q43 519 43 577ZM205 577Q205 617 229 657T304 731L326 707Q261 656 261 620Q261 585 328 552V517L251 476Q205 519 205 577Z"  />
<glyph unicode="&#x201D;" horiz-adv-x="363" d="M206 691L283 732Q329 689 329 631Q329 591 305 551T230 477L208 501Q273 552 273 588Q273 623 206 656V691ZM44 691L121 732Q167 689 167 631Q167 591 143 551T68 477L46 501Q111 552 111 588Q111 623 44 656V691Z"  />
<glyph unicode="&#x201E;" horiz-adv-x="393" d="M215 78L292 119Q338 76 338 18Q338 -22 314 -62T239 -136L217 -112Q282 -61 282 -25Q282 10 215 43V78ZM55 78L132 119Q178 76 178 18Q178 -22 154 -62T79 -136L57 -112Q122 -61 122 -25Q122 10 55 43V78Z"  />
<glyph unicode="&#x2020;" horiz-adv-x="520" d="M77 371Q52 371 42 386T31 416Q31 431 41 446T77 462Q87 462 104 459T142 451T188 442T239 435Q238 464 234 492T226 545T218 590T214 621Q214 646 229 656T260 667Q275 667 290 657T305 621Q305 610 302 590T294 546T285 493T281 435Q307 437 331 441T377 450T416 458T443 462Q468 462 478 447T489 416Q489 401 479 386T443 371Q433 371 416 374T378 381T332 390T281 397V101Q282 71 285 41T293 -15T301 -61T305 -93Q305 -118 290 -128T260 -139Q245 -139 230 -129T214 -93Q214 -81 218 -61T226 -14T235 41T239 101V397Q213 395 189 391T143 382T104 374T77 371Z"  />
<glyph unicode="&#x2021;" horiz-adv-x="520" d="M77 371Q52 371 42 386T31 416Q31 431 41 446T77 462Q87 462 104 459T142 451T188 442T239 435Q238 465 234 493T226 546T218 590T214 621Q214 646 229 656T260 667Q275 667 290 657T305 621Q305 610 302 590T294 546T285 493T281 435Q307 437 331 441T377 450T416 458T443 462Q468 462 478 447T489 416Q489 401 479 386T443 371Q433 371 416 374T378 381T332 390T281 397V136Q307 138 331 142T377 151T416 159T443 163Q468 163 478 148T489 117Q489 102 479 87T443 72Q433 72 416 75T378 82T332 91T281 98Q282 66 285 37T293 -18T301 -62T305 -93Q305 -118 290 -128T260 -139Q245 -139 230 -129T214 -93Q214 -82 217 -63T225 -18T234 36T239 98Q213 96 189 92T143 83T104 75T77 72Q52 72 42 87T31 117Q31 132 41 147T77 163Q87 163 104 160T142 152T188 143T239 136V397Q213 395 189 391T143 382T104 374T77 371Z"  />
<glyph unicode="&#x2022;" horiz-adv-x="378" d="M189 118Q160 118 135 128T91 157T62 201T51 256Q51 285 61 310T90 354T134 383T189 394Q218 394 243 384T287 355T316 311T327 256Q327 227 317 202T288 158T244 129T189 118Z"  />
<glyph unicode="&#x2026;" horiz-adv-x="774" d="M597 48Q597 73 614 90T657 108Q682 108 699 91T717 48Q717 23 700 6T657 -12Q632 -12 615 5T597 48ZM327 48Q327 73 344 90T387 108Q412 108 429 91T447 48Q447 23 430 6T387 -12Q362 -12 345 5T327 48ZM57 48Q57 73 74 90T117 108Q142 108 159 91T177 48Q177 23 160 6T117 -12Q92 -12 75 5T57 48Z"  />
<glyph unicode="&#x2030;" horiz-adv-x="1075" d="M800 137Q800 116 807 98T828 65T859 43T897 34Q917 34 935 42T966 65T986 97T994 137Q994 158 987 176T966 209T935 231T897 240Q877 240 859 232T828 209T808 177T800 137ZM746 137Q746 168 758 195T790 243T838 275T897 287Q928 287 955 275T1003 243T1036 196T1048 137Q1048 106 1036 79T1004 31T956 -1T897 -13Q866 -13 839 -1T791 31T758 78T746 137ZM443 137Q443 116 450 98T471 65T502 43T540 34Q560 34 578 42T609 65T629 97T637 137Q637 158 630 176T609 209T578 231T540 240Q520 240 502 232T471 209T451 177T443 137ZM389 137Q389 168 401 195T433 243T481 275T540 287Q571 287 598 275T646 243T679 196T691 137Q691 106 679 79T647 31T599 -1T540 -13Q509 -13 482 -1T434 31T401 78T389 137ZM570 672L609 645L160 0H103L570 672ZM89 507Q89 486 96 468T117 435T148 413T186 404Q206 404 224 412T255 435T275 467T283 507Q283 528 276 546T255 579T224 601T186 610Q166 610 148 602T117 579T97 547T89 507ZM35 507Q35 538 47 565T79 613T127 645T186 657Q217 657 244 645T292 613T325 566T337 507Q337 476 325 449T293 401T245 369T186 357Q155 357 128 369T80 401T47 448T35 507Z"  />
<glyph unicode="&#x2039;" horiz-adv-x="329" d="M37 253Q42 257 47 260T60 271T82 291T118 326T174 381T255 462L284 452Q239 380 213 341T173 281L153 251L173 221Q187 201 213 161T284 50L255 40Q187 108 148 147T87 206T56 235T37 249V253Z"  />
<glyph unicode="&#x203A;" horiz-adv-x="329" d="M45 50Q90 120 115 160T155 221Q171 245 176 251Q171 257 155 281Q141 301 116 340T45 452L74 462Q121 414 154 381T210 326T246 292T268 272T282 261T292 253V249Q283 243 274 235T242 207T181 147T74 40L45 50Z"  />
<glyph unicode="&#x20AC;" horiz-adv-x="529" d="M33 238H84Q83 244 83 250T83 262Q83 273 83 284T85 306H33V346H92Q102 390 123 429T176 499T248 547T341 565Q370 565 398 560T450 548Q476 541 500 532L468 425H438Q438 472 415 499T330 527Q297 527 271 513T226 473T195 415T178 346H445L433 306H175V295Q175 281 176 267T179 238H414L402 198H187Q195 166 209 138T243 88T289 55T347 43Q381 43 406 48T448 59Q467 66 481 76L495 54Q476 35 451 21Q429 8 399 -2T327 -12Q274 -12 234 5T164 50T116 117T89 198H33V238Z"  />
<glyph unicode="&#x2122;" horiz-adv-x="713" d="M305 417Q332 419 334 442L342 620Q343 634 338 639T309 650V667H344Q359 667 372 667T397 668Q409 668 420 669L421 667Q423 662 425 656Q427 651 429 644T434 630L477 506L483 483L542 639L552 667H564Q584 667 597 667T620 668Q631 668 637 669L639 667Q636 661 633 654Q631 647 629 638T627 616L635 440Q635 435 635 432T634 426V420L670 417L667 399L552 397V417Q580 419 580 440L573 637L483 398L458 402L373 632L365 442Q365 437 365 433T364 426Q363 422 363 420L400 417L398 399L305 397V417ZM102 417Q116 418 123 425T130 443V642H105Q86 642 75 632T49 592H27L40 669Q45 668 50 668Q55 667 61 667T74 667H257Q263 667 269 667T280 668Q285 668 291 669L279 592H258Q258 622 248 632T214 642H185V443Q185 438 185 434T184 427Q183 423 183 421L223 417L222 399L102 397V417Z"  />

</font>
</defs>
</svg>
